<?xml version="1.0" standalone="no"?>
<!DOCTYPE svg PUBLIC "-//W3C//DTD SVG 20010904//EN"
 "http://www.w3.org/TR/2001/REC-SVG-20010904/DTD/svg10.dtd">
<svg version="1.0" xmlns="http://www.w3.org/2000/svg"
 width="1110.000000pt" height="396.000000pt" viewBox="0 0 1110.000000 396.000000"
 preserveAspectRatio="xMidYMid meet">

<g transform="translate(0.000000,396.000000) scale(0.100000,-0.100000)"
fill="#000000" stroke="none">
<path d="M210 3814 c0 -117 -3 -148 -15 -161 -9 -8 -13 -23 -10 -33 3 -10 6
-67 7 -126 1 -65 7 -122 15 -141 10 -25 13 -116 13 -397 0 -201 -4 -367 -9
-370 -4 -3 -9 -76 -9 -162 0 -127 -3 -159 -16 -173 -19 -21 -20 -32 -4 -29 26
6 28 -101 10 -479 -10 -211 -22 -387 -27 -392 -6 -6 -31 -4 -64 5 -30 7 -56
12 -59 10 -2 -3 14 -10 36 -15 22 -6 43 -19 46 -28 6 -14 -13 -46 -37 -64 -4
-3 -7 -10 -6 -15 2 -5 -2 -27 -8 -49 -6 -22 -10 -92 -9 -155 2 -65 -1 -120 -6
-127 -6 -7 -7 -21 -3 -30 5 -10 9 -34 10 -54 1 -20 5 -42 10 -48 4 -8 -1 -14
-14 -18 -22 -6 -30 -46 -12 -58 6 -3 16 -19 25 -35 14 -29 14 -30 -10 -30
l-24 0 0 -217 c-1 -120 -3 -264 -6 -320 l-4 -103 5537 2 c3046 0 5522 3 5503
5 -19 3 -41 9 -47 15 -9 7 -13 7 -13 -1 0 -6 -17 -11 -40 -11 -23 0 -40 5 -40
11 0 7 11 9 30 6 37 -8 39 6 5 21 -40 18 -55 15 -55 -13 0 -16 -6 -25 -16 -25
-11 0 -14 8 -12 32 2 18 -2 33 -9 35 -8 3 -13 -4 -13 -16 0 -22 -15 -27 -38
-12 -12 7 -18 24 -21 54 -1 4 -5 7 -11 7 -5 0 -10 -22 -10 -50 l0 -50 -112 0
-111 0 6 168 c4 92 10 246 13 343 l7 175 -256 87 c-141 48 -258 87 -260 87 -2
0 -7 -109 -11 -242 -3 -134 -9 -327 -13 -430 l-6 -188 -31 0 c-30 0 -31 1 -29
43 1 23 8 266 14 540 l12 499 30 -6 c17 -4 148 -44 291 -90 553 -179 769 -247
772 -243 3 2 3 172 2 378 l-3 374 -23 -35 c-12 -19 -21 -43 -18 -52 2 -10 -1
-18 -7 -18 -8 0 -7 -4 1 -12 18 -18 14 -67 -8 -117 -11 -24 -20 -48 -20 -53 0
-5 -6 -16 -14 -24 -13 -12 -25 -11 -91 4 -75 18 -76 18 -55 37 11 10 20 13 20
7 0 -40 76 21 105 85 11 24 23 43 27 43 17 0 0 45 -18 49 -39 7 -45 21 -17 45
23 20 24 23 9 38 -9 9 -16 23 -16 31 0 8 -7 20 -15 27 -9 8 -15 29 -15 56 0
34 5 46 21 54 11 7 28 9 36 6 13 -5 14 -4 3 9 -11 13 -9 15 11 16 60 3 76 -12
82 -72 2 -31 4 -23 5 28 2 69 1 71 -20 67 l-23 -5 23 12 c22 12 22 16 22 192
0 174 -1 180 -18 164 -27 -24 -59 -21 -78 8 -22 33 -12 131 27 285 45 176 42
243 -10 191 -12 -12 -25 -21 -30 -21 -5 0 -12 -8 -15 -17 -4 -10 -24 -37 -46
-60 -21 -24 -37 -43 -35 -43 3 0 -31 -71 -74 -157 -140 -279 -130 -248 -132
-418 -2 -164 -11 -196 -45 -170 -24 18 -34 19 -34 2 0 -7 -9 -18 -19 -24 -12
-7 -21 -26 -23 -45 -4 -41 -31 -48 -78 -19 -18 10 -39 17 -46 14 -7 -3 -25 4
-39 15 -14 12 -34 19 -44 17 -15 -3 -19 2 -17 26 4 52 19 56 87 24 33 -16 64
-36 69 -45 7 -12 10 -10 18 10 12 30 11 31 -25 34 -15 2 -41 8 -56 15 -16 6
-32 11 -37 11 -9 0 -6 32 5 50 4 6 11 7 17 4 6 -4 5 -10 -3 -16 -10 -6 -6 -7
11 -2 33 9 34 10 21 31 -7 12 -10 14 -11 4 0 -11 -5 -10 -20 4 -11 10 -17 21
-15 26 3 4 1 10 -3 13 -10 6 -42 -56 -42 -80 0 -18 -22 -13 -82 17 -57 29 -59
22 -3 -9 41 -22 50 -32 50 -54 1 -15 -1 -25 -4 -23 -2 3 -10 -3 -17 -12 -11
-16 -16 -16 -51 -4 -61 22 -70 23 -43 7 38 -23 18 -19 -46 9 -75 33 -81 31
-16 -5 28 -17 52 -33 52 -36 0 -3 -4 -2 -10 1 -5 3 -10 1 -10 -4 0 -6 7 -11
15 -11 7 0 18 -6 22 -13 4 -8 16 -16 26 -20 26 -10 21 -23 -15 -38 -47 -19
-133 -14 -168 11 -15 11 -37 20 -47 20 -35 0 -56 38 -49 89 3 25 10 84 15 131
5 47 21 137 35 200 98 447 103 485 69 522 -24 27 -105 87 -166 122 -47 27 -49
29 -43 64 3 21 8 66 11 102 4 53 3 60 -6 40 -6 -14 -13 -57 -16 -97 -4 -54 -9
-70 -19 -66 -8 3 -11 9 -8 14 3 5 -3 6 -12 2 -12 -4 -15 -3 -10 5 5 8 2 10 -8
6 -9 -3 -16 -1 -16 5 0 22 -2 26 -16 34 -20 11 -18 66 3 90 16 17 16 20 1 31
-23 17 -20 92 5 90 13 -1 17 6 17 37 0 34 3 39 28 45 15 3 31 7 36 8 16 4 -60
46 -82 46 -21 0 -52 24 -52 41 0 5 5 9 10 9 6 0 10 7 10 15 0 8 7 15 15 15 18
0 19 8 2 41 -19 35 -29 107 -17 111 6 2 13 21 15 42 7 49 9 52 39 38 18 -8 22
-16 19 -36 -3 -15 -9 -29 -14 -32 -5 -3 -9 -9 -9 -13 0 -10 80 -34 88 -27 3 3
-2 6 -12 6 -18 0 -40 45 -30 61 9 14 13 61 8 80 -2 9 -11 16 -20 16 -8 0 -13
-6 -10 -14 3 -7 0 -13 -5 -13 -6 0 -9 9 -6 20 3 11 -3 30 -14 44 -10 13 -15
26 -12 30 4 4 6 35 5 70 -2 53 0 65 15 71 17 6 17 7 1 19 -23 17 -12 61 22 90
23 19 28 30 25 59 -3 29 0 35 12 30 12 -5 14 -3 8 6 -4 8 -3 16 4 20 7 5 2 12
-14 21 -14 7 -25 17 -25 22 0 4 -289 8 -642 8 -352 0 -638 -3 -635 -7 4 -3 1
-13 -5 -21 -9 -10 -14 -84 -16 -243 l-4 -229 -28 0 c-40 0 -162 -43 -202 -71
-117 -82 -146 -122 -151 -210 -3 -41 -8 -54 -23 -60 -10 -4 -13 -8 -6 -8 17
-1 15 -31 -2 -31 -8 0 -21 7 -29 15 -8 8 -18 11 -23 7 -5 -4 0 3 11 16 16 20
16 22 2 16 -11 -4 -17 -1 -17 9 0 8 -7 18 -16 21 -20 8 -24 8 -22 -1 3 -13
-13 -53 -21 -53 -5 0 -6 -11 -3 -25 6 -35 -14 -31 -33 6 -28 53 -179 108 -300
109 l-59 0 35 -37 c81 -86 133 -220 143 -373 5 -57 10 -109 13 -117 9 -23 35
-14 69 22 17 19 41 35 53 35 11 0 30 9 41 20 11 11 38 23 60 26 22 4 40 12 40
19 0 19 30 27 36 10 4 -8 12 -15 19 -15 7 0 18 -7 25 -15 7 -8 20 -15 30 -15
18 0 47 -27 38 -36 -3 -2 -25 -8 -49 -13 -49 -10 -38 -14 34 -11 40 1 47 -1
47 -18 0 -21 -37 -42 -75 -42 -13 0 -27 -4 -30 -10 -4 -6 13 -10 44 -10 28 0
51 -4 51 -8 0 -12 -52 -58 -73 -65 -13 -5 -17 -13 -12 -29 3 -13 3 -18 -2 -13
-4 6 -18 11 -30 12 -16 2 -21 -2 -17 -12 4 -8 1 -15 -5 -15 -18 0 -104 -91
-123 -130 -18 -37 -30 -76 -33 -100 -1 -8 -11 -37 -23 -64 -13 -28 -25 -61
-28 -75 -6 -27 -15 -56 -35 -106 -7 -16 -13 -32 -14 -35 -4 -10 -18 -95 -17
-100 0 -3 -6 -9 -14 -13 -8 -4 -14 -17 -14 -28 0 -15 -12 -25 -40 -36 -22 -9
-40 -22 -40 -30 0 -9 -9 -14 -22 -13 -13 1 -41 1 -63 0 -37 -1 -38 -2 -15 -11
27 -11 145 -8 172 5 12 5 16 3 15 -10 -2 -14 21 -26 98 -54 108 -40 154 -63
286 -146 124 -79 237 -115 369 -119 l105 -4 -96 8 c-87 8 -220 42 -243 63 -6
4 -18 8 -28 8 -11 0 -21 13 -29 39 -7 22 -18 42 -25 45 -19 7 -17 -19 2 -39 9
-9 14 -19 11 -22 -7 -6 -65 28 -118 69 -20 15 -41 28 -46 28 -5 0 -20 11 -32
24 l-23 24 34 37 c25 27 43 38 75 42 24 3 41 9 38 13 -7 12 81 33 120 28 31
-4 39 0 58 26 22 31 33 96 17 96 -5 0 -7 7 -4 15 4 8 1 15 -5 15 -6 0 -11 -6
-11 -14 0 -8 -4 -18 -10 -21 -14 -9 -50 13 -50 30 0 8 -5 15 -11 15 -5 0 -8
-3 -6 -8 3 -4 -2 -23 -12 -42 -13 -28 -22 -35 -48 -36 -18 -1 -33 2 -33 7 0
14 -28 11 -34 -3 -3 -7 -5 1 -4 17 3 41 -8 58 -32 45 -13 -7 -21 -6 -30 5 -9
11 -9 15 -1 15 16 0 14 27 -3 33 -8 3 -18 26 -21 51 -4 25 -11 46 -16 46 -5 0
-9 5 -9 11 0 5 4 8 9 4 15 -9 23 13 13 32 -9 18 5 129 28 213 8 30 14 37 29
33 13 -3 21 2 26 16 4 14 14 20 28 18 16 -1 21 3 19 15 -2 12 2 16 13 12 10
-4 15 0 15 14 0 11 7 28 16 36 8 9 13 20 10 25 -5 7 10 8 48 2 5 0 6 -14 3
-31 -5 -21 -3 -28 6 -24 12 4 28 -18 40 -56 3 -8 6 -3 6 12 1 21 11 32 54 56
28 16 81 56 116 88 35 33 68 59 75 59 6 0 19 13 29 28 9 15 22 25 27 22 13 -8
50 4 50 16 0 14 -28 11 -33 -3 -2 -7 -8 -10 -12 -6 -10 10 13 38 31 38 8 0 33
17 57 38 23 21 54 46 69 55 26 16 28 16 75 -19 76 -57 229 -224 262 -284 16
-30 47 -89 70 -130 71 -128 92 -176 97 -232 4 -29 13 -76 20 -104 8 -29 14
-56 13 -60 -1 -5 0 -16 4 -24 3 -8 15 -42 27 -75 12 -33 36 -85 53 -115 17
-30 39 -68 49 -85 9 -16 20 -38 24 -47 3 -10 11 -18 16 -18 14 0 38 -27 30
-34 -3 -4 1 -4 9 -1 19 7 99 -75 100 -102 0 -10 3 -30 5 -45 3 -16 3 -28 0
-28 -9 0 -46 92 -41 100 4 6 -1 10 -9 10 -8 0 -17 -4 -20 -8 -3 -5 -19 -9 -36
-10 -16 0 -35 -4 -42 -9 -24 -14 -203 -74 -223 -74 -11 0 -22 -3 -25 -8 -10
-15 -71 -40 -85 -35 -7 3 -16 1 -20 -5 -7 -13 -64 -14 -82 -3 -6 4 -10 19 -9
34 4 31 -13 41 -51 32 -19 -5 -24 -3 -21 7 3 8 20 17 39 21 43 8 102 30 120
45 20 15 89 36 97 28 3 -3 0 -10 -7 -14 -7 -5 -11 -13 -7 -19 8 -14 -38 -42
-71 -43 -25 0 -26 -1 -8 -9 11 -5 14 -9 8 -9 -7 -1 -13 -9 -13 -18 0 -13 3
-14 11 -6 6 6 18 9 25 6 8 -3 14 1 14 11 0 8 11 23 26 32 14 9 23 22 20 29 -2
7 11 18 30 25 34 14 38 20 35 53 -2 11 5 17 17 17 11 0 25 7 32 15 8 9 8 15 2
15 -6 0 -12 -5 -14 -12 -3 -8 -7 -9 -11 -2 -3 6 1 20 11 30 30 35 43 65 49
110 3 29 1 44 -6 44 -6 0 -11 -17 -11 -37 0 -20 -3 -33 -7 -30 -11 12 -33 -15
-33 -40 0 -21 -30 -77 -50 -93 -4 -3 -12 -14 -18 -25 -10 -18 -11 -19 -16 -3
-16 48 -18 53 -23 40 -7 -20 -58 -42 -81 -35 -17 4 -22 1 -22 -13 0 -23 -13
-10 -17 18 -5 31 -11 34 -30 15 -13 -12 -14 -19 -5 -30 14 -16 6 -27 -19 -27
-9 0 -20 -7 -23 -16 -3 -8 -10 -13 -15 -10 -13 8 -42 -4 -35 -15 3 -5 0 -9 -5
-9 -6 0 -11 5 -11 10 0 6 -9 10 -19 10 -21 0 -64 35 -74 60 -4 11 -6 10 -6 -5
-2 -25 -18 -52 -26 -43 -4 3 8 35 25 69 47 96 53 105 73 101 11 -2 20 5 25 19
7 19 10 20 15 6 9 -25 40 -22 32 2 -4 14 0 21 15 26 11 3 20 11 20 17 0 5 10
18 22 28 l23 18 -30 -5 c-23 -3 -26 -2 -15 6 8 6 32 8 53 6 31 -4 37 -2 37 14
0 16 13 25 50 35 3 0 24 21 48 45 29 30 44 55 48 83 4 21 10 41 15 44 9 5 -11
44 -23 44 -3 0 -5 -15 -3 -32 3 -25 -2 -41 -24 -66 -16 -17 -34 -32 -40 -32
-6 0 -14 -7 -17 -15 -4 -8 -10 -15 -16 -15 -5 0 -7 4 -4 9 9 13 -4 41 -19 41
-7 0 -11 -10 -10 -22 1 -13 3 -23 4 -23 2 0 4 -7 6 -16 2 -11 -3 -15 -14 -12
-9 2 -29 -3 -45 -11 -60 -31 -107 26 -48 58 19 11 22 15 10 16 -46 1 -2 43 47
44 19 1 38 6 42 10 4 5 2 6 -4 2 -7 -4 -13 -5 -13 -2 0 10 73 55 81 50 15 -9
-1 88 -17 104 -15 15 -16 15 -10 -4 8 -28 -14 -54 -48 -58 -16 -2 -35 -11 -42
-21 -8 -10 -17 -16 -20 -12 -13 12 31 55 56 53 31 -1 40 29 10 37 -11 3 -20 1
-20 -5 0 -5 -5 -6 -11 -2 -8 4 -8 9 0 17 6 6 11 17 11 25 0 9 -8 4 -21 -12
-11 -15 -19 -33 -16 -40 3 -8 -3 -23 -13 -34 -10 -11 -16 -23 -13 -26 4 -3 1
-6 -6 -6 -7 0 -11 -8 -10 -17 4 -23 -19 -65 -32 -58 -5 4 -9 -1 -9 -10 0 -8
-7 -18 -15 -21 -8 -4 -15 -14 -15 -23 0 -22 -23 -71 -32 -71 -5 0 -8 -8 -8
-18 0 -10 -7 -27 -16 -38 -8 -10 -13 -13 -9 -6 3 6 2 12 -3 12 -19 0 -21 -14
-4 -26 16 -12 16 -13 0 -19 -10 -4 -18 -17 -18 -29 0 -16 -2 -18 -9 -7 -7 11
-11 8 -17 -10 -4 -13 -7 -28 -6 -32 1 -4 -9 -20 -23 -35 -20 -20 -25 -35 -23
-60 4 -29 0 -33 -29 -44 -20 -7 -33 -19 -33 -29 0 -10 -7 -16 -17 -15 -12 0
-18 -6 -18 -18 0 -10 -7 -22 -15 -25 -29 -12 -19 -30 23 -41 23 -6 58 -17 77
-24 56 -21 110 -29 110 -15 0 7 10 9 25 7 14 -3 25 -1 25 3 0 5 7 9 15 9 8 0
15 -7 15 -15 0 -8 7 -15 15 -15 8 0 15 7 15 15 0 19 14 19 30 0 11 -13 10 -18
-5 -29 -16 -11 -13 -14 26 -24 57 -15 219 -25 172 -11 -33 10 -45 29 -19 29 7
0 19 7 26 15 7 8 22 15 34 15 39 0 101 12 114 23 9 7 16 7 24 -1 17 -17 38
-15 38 3 0 8 -7 15 -16 15 -25 0 -6 18 27 25 22 5 34 3 40 -6 7 -11 9 -10 9 4
0 18 17 21 68 11 21 -4 29 -11 25 -20 -3 -8 -9 -12 -13 -9 -5 3 -11 1 -15 -5
-3 -6 2 -13 11 -17 33 -13 -213 -75 -251 -64 -32 10 -54 10 -60 1 -6 -10 6
-14 35 -11 24 2 -16 -25 -66 -46 -24 -10 -44 -20 -44 -23 0 -3 82 -32 183 -65
401 -129 452 -147 460 -155 5 -4 6 -87 2 -183 -7 -158 -9 -175 -24 -167 -29
17 -165 59 -236 74 -38 8 -133 20 -210 26 -140 12 -149 11 -260 -20 -5 -2 -22
0 -36 4 -19 6 -38 0 -75 -22 -121 -71 -252 -154 -411 -259 -189 -125 -173
-121 -270 -77 -85 39 -38 65 -471 -257 -115 -85 -210 -149 -220 -147 -9 2
-111 56 -225 122 -171 97 -206 121 -195 131 12 12 109 68 333 192 44 25 109
62 145 83 36 21 166 95 290 165 124 70 254 144 290 165 36 20 98 54 138 76 39
21 72 42 72 47 0 5 -19 -2 -42 -16 -24 -13 -151 -85 -283 -159 -418 -235 -919
-520 -940 -534 -11 -8 -26 -14 -35 -14 -8 0 -116 58 -240 128 -245 139 -247
141 -215 209 18 38 14 86 -10 133 -8 15 -11 43 -8 71 3 27 0 55 -7 68 -25 47
-126 84 -118 44 2 -10 19 -22 40 -28 50 -14 72 -37 63 -65 l-7 -22 -12 23
c-14 28 -65 47 -138 51 -51 3 -53 2 -53 -23 -1 -23 3 -26 44 -28 55 -3 70 -13
64 -45 -3 -13 0 -48 6 -76 8 -37 8 -56 1 -65 -8 -9 -7 -14 2 -18 10 -4 11 -7
1 -18 -10 -9 -13 -10 -13 -1 0 7 -9 12 -19 12 -29 0 -34 16 -15 47 16 28 16
28 -10 -2 l-26 -30 -15 23 c-9 12 -20 22 -24 22 -10 0 -31 -116 -31 -171 0
-34 3 -40 11 -29 11 16 10 0 -9 -135 -15 -102 -51 -268 -61 -278 -14 -14 -226
-20 -252 -7 -20 9 -22 9 -9 -2 8 -7 16 -21 16 -30 2 -17 -20 -18 -332 -18
l-334 0 30 42 c36 50 37 58 5 88 -14 13 -26 35 -26 49 -2 25 -2 25 -6 2 -4
-19 -9 -22 -31 -17 -75 18 -197 -8 -274 -59 -41 -27 -45 -21 -26 31 8 23 8 46
1 83 -8 43 -8 49 3 40 8 -6 14 -23 14 -38 0 -20 2 -23 10 -11 5 8 7 22 5 30
-3 9 6 20 21 27 25 12 26 11 10 -6 -23 -26 -20 -37 5 -15 12 10 37 25 58 31
20 7 24 10 10 8 -50 -9 -45 4 42 105 26 29 30 41 26 73 -8 63 -1 72 95 121 93
48 118 55 119 34 0 -7 4 -3 9 9 15 36 48 37 116 4 68 -33 142 -51 130 -32 -5
7 1 11 14 11 l21 0 -22 30 c-13 17 -42 36 -71 47 -50 18 -57 26 -35 40 19 11
29 43 14 43 -7 0 -25 -9 -42 -20 -16 -11 -37 -20 -45 -20 -8 0 1 10 20 22 19
13 37 26 38 30 2 5 10 8 18 8 8 0 14 6 14 13 0 7 8 22 18 33 10 11 17 24 16
29 -2 6 9 57 24 115 l28 105 38 3 c27 2 42 -2 53 -15 8 -10 12 -13 9 -6 -11
22 5 38 39 39 40 1 75 28 75 59 0 27 -55 55 -110 55 -28 0 -40 4 -40 14 0 8
-6 16 -12 19 -7 2 -9 8 -5 13 4 5 11 4 15 -1 4 -6 20 -16 35 -23 33 -14 53 -6
90 38 26 30 55 37 102 24 18 -5 20 -13 19 -104 -1 -93 0 -100 23 -122 21 -20
35 -23 96 -23 77 0 132 17 142 43 3 8 1 20 -5 26 -5 5 -10 32 -10 58 0 47 1
48 30 48 19 0 33 6 37 16 5 13 15 15 59 9 48 -6 56 -4 101 28 26 19 73 47 102
63 54 28 161 124 161 144 0 5 -12 12 -27 16 -16 3 -62 15 -105 25 -42 10 -83
19 -91 19 -7 0 -42 -18 -76 -40 -34 -22 -64 -40 -66 -40 -3 0 -5 17 -5 38 0
37 2 40 40 51 49 14 75 38 61 55 -7 9 -7 16 1 24 9 9 6 18 -12 37 -13 13 -31
27 -42 31 -19 6 -23 21 -10 42 7 10 24 7 83 -14 83 -30 129 -58 129 -80 0 -8
-11 -14 -27 -15 -27 0 -27 -1 -5 -9 14 -6 31 -5 48 2 32 15 32 15 112 -126 68
-121 114 -169 184 -191 29 -10 72 -28 96 -41 24 -13 50 -20 60 -17 9 3 14 3
10 -2 -4 -4 25 -19 65 -32 39 -13 79 -26 87 -30 8 -3 24 -5 35 -3 19 2 19 1 3
-17 -26 -28 -163 -113 -182 -113 -30 0 -116 -42 -116 -56 0 -15 -2 -16 -153
-104 -59 -35 -106 -68 -104 -74 2 -6 112 -47 245 -91 133 -44 247 -87 254 -94
11 -12 10 -13 -7 -6 -30 12 -81 19 -73 10 11 -12 141 -65 146 -61 2 3 -8 12
-22 22 -40 25 -23 30 18 4 20 -12 36 -29 36 -39 0 -9 5 -22 12 -29 7 -7 9 -12
5 -12 -18 0 -174 63 -225 90 -31 17 -109 53 -173 80 -63 27 -132 58 -152 70
-48 29 -103 13 -64 -18 25 -20 603 -263 617 -259 9 2 74 42 145 89 72 47 202
131 290 188 187 120 215 143 215 181 0 31 -43 65 -131 107 -38 18 -52 33 -77
81 -17 32 -28 61 -25 64 2 3 -7 25 -20 49 -14 24 -33 63 -43 88 -9 25 -22 51
-28 59 -19 24 -34 99 -22 111 15 15 33 12 40 -6 3 -8 2 -13 -3 -10 -5 3 -12
-1 -15 -10 -3 -8 -2 -12 4 -9 5 3 20 -3 32 -15 19 -18 21 -22 8 -31 -11 -8 -4
-9 25 -4 24 3 35 2 27 -3 -9 -6 -1 -12 26 -21 35 -12 43 -11 78 8 70 37 71 38
32 54 -34 14 -260 86 -285 91 -7 1 -22 14 -33 29 -15 19 -42 33 -93 47 -40 11
-91 27 -115 35 -28 9 -40 10 -36 3 5 -7 2 -9 -8 -5 -10 3 -25 -5 -39 -20 -17
-18 -20 -27 -12 -30 15 -5 18 -63 3 -63 -5 0 -10 -14 -10 -30 l0 -31 -78 3
c-66 3 -77 5 -76 21 1 9 -3 17 -8 17 -12 0 -38 26 -38 39 0 5 -11 18 -25 29
-14 11 -25 25 -25 31 0 6 -4 11 -10 11 -5 0 -10 8 -10 17 0 9 -10 27 -22 41
-22 22 -22 24 -5 34 17 9 17 10 1 22 -15 11 -12 12 17 8 32 -4 33 -3 14 12
-11 8 -24 15 -30 16 -5 0 -115 34 -244 76 -232 76 -234 76 -270 60 -32 -15
-41 -15 -91 -1 -30 8 -62 15 -71 15 -18 0 -99 -116 -99 -142 0 -9 -6 -21 -14
-27 -8 -6 -24 -35 -36 -63 l-22 -50 -46 6 c-25 3 -48 9 -51 12 -3 3 -5 73 -3
156 2 120 0 149 -10 146 -7 -3 -14 -15 -16 -27 -3 -19 -8 -22 -30 -16 -15 3
-37 9 -49 12 -18 4 -23 1 -23 -15 0 -16 8 -23 36 -28 19 -4 38 -12 41 -19 4
-13 -37 -197 -60 -262 -6 -17 -19 -34 -29 -36 -19 -5 -25 -42 -8 -52 16 -10
12 -91 -5 -105 -12 -10 -13 -16 -4 -26 26 -31 -27 -154 -65 -154 -17 0 -29 27
-16 35 6 4 10 11 10 16 0 5 -11 2 -24 -6 -15 -10 -27 -12 -30 -6 -8 13 10 58
26 64 8 3 9 6 1 6 -8 1 -7 17 4 59 8 31 17 59 19 61 2 2 19 -8 39 -23 19 -15
35 -23 35 -18 0 5 -16 20 -35 33 -19 13 -35 28 -35 32 0 4 9 37 21 72 11 35
19 77 17 92 -3 24 -9 29 -53 39 -27 7 -126 35 -220 64 -93 28 -204 62 -245 75
-307 93 -353 106 -362 97 -6 -6 -32 -86 -58 -178 -27 -93 -56 -174 -64 -180
-11 -8 -16 -28 -16 -62 0 -28 -5 -54 -10 -57 -6 -4 -37 3 -70 14 -42 15 -66
18 -82 12 -60 -23 -164 -74 -170 -84 -12 -20 16 -45 80 -67 59 -21 63 -24 47
-37 -11 -7 -22 -13 -27 -13 -4 0 -8 -4 -8 -10 0 -5 7 -10 16 -10 11 0 13 -6 9
-19 -5 -16 -2 -18 17 -13 13 3 28 11 33 17 6 7 25 18 43 25 69 27 68 -36 -1
-69 -82 -39 -369 -161 -380 -161 -14 -1 -137 63 -137 70 0 3 82 38 183 78 101
41 190 77 197 82 27 17 3 20 -34 5 -20 -9 -41 -13 -46 -10 -5 3 -19 1 -30 -5
-16 -9 -25 -8 -35 0 -11 9 -19 8 -37 -4 -15 -11 -18 -16 -7 -16 8 0 20 5 25
10 7 7 11 6 11 -5 0 -8 -2 -13 -5 -11 -2 3 -29 -6 -59 -20 -65 -28 -81 -30
-58 -7 16 15 16 17 0 26 -12 6 -22 5 -33 -7 -9 -9 -11 -16 -5 -16 6 0 10 -7 9
-16 -2 -11 -33 -28 -87 -49 -102 -39 -159 -66 -159 -76 0 -18 22 -18 70 1 61
24 83 25 101 4 17 -20 123 -74 147 -74 10 0 88 29 173 64 137 57 219 86 242
86 11 0 8 -28 -3 -32 -9 -3 203 -92 220 -93 3 0 30 -12 60 -27 30 -14 75 -34
100 -43 25 -10 54 -22 64 -27 39 -21 187 -78 202 -78 8 0 14 -4 14 -8 0 -4 25
-19 55 -32 35 -16 50 -27 42 -32 -22 -14 -47 -9 -40 8 5 13 0 14 -33 8 -36 -6
-38 -6 -25 9 11 15 11 17 -2 17 -9 0 -18 -4 -22 -10 -3 -5 -12 -7 -21 -3 -12
4 -12 8 -2 21 11 14 10 15 -7 8 -22 -8 -25 -9 -42 -7 -7 0 -10 7 -7 14 4 10
-3 12 -26 9 -24 -3 -29 -1 -25 11 5 11 0 13 -21 9 -22 -4 -26 -2 -21 12 7 17
-8 23 -17 7 -3 -5 -15 -7 -26 -4 -17 5 -18 8 -8 21 11 13 10 14 -8 4 -23 -12
-50 0 -39 18 4 6 -11 2 -34 -9 -22 -12 -51 -21 -63 -21 -23 1 -23 1 -3 16 11
8 25 12 31 10 7 -3 15 2 18 10 9 24 7 27 -8 15 -7 -6 -21 -8 -30 -5 -14 5 -14
9 -4 22 11 13 10 14 -10 3 -27 -14 -43 -7 -35 17 6 14 4 15 -9 4 -8 -7 -23 -9
-33 -6 -13 5 -14 9 -3 16 9 7 4 8 -14 4 -27 -6 -49 8 -26 17 7 2 10 8 6 12 -4
4 -14 2 -22 -4 -17 -14 -40 -5 -30 11 5 7 -2 9 -21 4 -21 -5 -26 -4 -22 6 3 8
-11 21 -37 33 -22 11 -44 23 -47 28 -3 4 -68 -22 -145 -59 -76 -36 -158 -75
-182 -85 -23 -10 -42 -22 -42 -27 0 -4 21 -18 48 -29 26 -12 56 -28 67 -37 19
-15 19 -16 -14 -13 -35 2 -56 -19 -24 -25 35 -7 72 3 66 18 -3 9 22 3 75 -20
100 -43 193 -88 189 -92 -3 -4 -158 59 -190 77 -13 7 -27 5 -50 -7 -18 -9 -54
-28 -82 -42 -27 -14 -45 -27 -38 -29 7 -2 22 1 34 8 19 10 21 9 16 -5 -4 -10
4 -23 23 -38 16 -11 27 -25 24 -29 -3 -5 2 -6 11 -3 16 6 80 -20 102 -42 26
-26 -19 -24 -76 2 -81 39 -161 72 -161 68 0 -7 208 -104 222 -104 7 0 37 10
66 22 38 16 55 19 60 11 5 -8 13 -9 22 -3 22 14 30 12 24 -5 -5 -11 3 -17 25
-21 35 -7 39 -18 13 -33 -9 -6 -13 -11 -7 -11 5 0 59 52 120 115 96 100 115
115 142 115 25 0 31 -4 27 -15 -4 -8 -14 -15 -23 -15 -22 0 -41 -19 -41 -41 0
-24 52 -44 78 -30 26 14 42 14 42 1 0 -5 -7 -10 -16 -10 -24 0 -154 -44 -154
-52 0 -4 -11 -19 -25 -34 -29 -32 -51 -72 -60 -113 -3 -17 -14 -31 -25 -34
-16 -4 -18 -10 -10 -36 5 -17 5 -31 1 -31 -4 0 -18 -9 -31 -20 -13 -11 -28
-20 -35 -20 -12 0 -52 -39 -47 -46 8 -13 -1 -24 -20 -25 -16 -1 -18 -3 -6 -6
13 -3 15 -10 6 -39 -5 -20 -23 -58 -39 -85 -16 -27 -29 -54 -29 -59 0 -6 -4
-10 -10 -10 -5 0 -10 -5 -10 -10 0 -18 38 8 45 30 3 11 11 20 17 20 5 0 8 -7
5 -15 -4 -8 -2 -17 3 -20 5 -3 10 5 12 17 4 32 42 49 79 35 27 -10 27 -12 9
-19 -11 -4 -32 -9 -47 -11 -25 -3 -47 -27 -24 -27 6 0 15 -10 22 -21 10 -20 9
-21 -10 -16 -16 4 -21 1 -21 -13 0 -16 9 -20 53 -23 28 -2 -116 -4 -321 -5
l-373 -2 31 45 c51 74 50 92 -9 154 -27 29 -53 61 -56 71 -3 9 -19 20 -34 23
-23 5 -31 13 -36 37 -4 19 -16 36 -31 42 -28 13 -144 150 -144 170 0 8 -14 30
-30 49 -17 18 -26 35 -20 37 8 3 8 8 0 17 -8 9 -8 19 -1 32 22 41 42 313 23
313 -4 0 -12 -4 -17 -9 -6 -4 -25 -13 -43 -19 -41 -14 -52 3 -27 41 13 20 13
26 3 30 -7 3 -1 6 15 6 15 1 27 -4 27 -9 0 -24 58 22 78 62 22 41 22 45 7 87
-8 24 -16 55 -16 70 -1 17 -3 20 -6 8 -4 -16 -7 -15 -25 8 -15 19 -23 23 -37
15 -10 -5 -35 -6 -55 -3 -33 5 -37 8 -32 29 5 17 2 24 -9 24 -8 0 -15 9 -15
20 0 27 29 70 46 70 8 0 14 5 14 10 0 6 -8 10 -19 10 -27 0 -47 26 -32 44 16
19 -5 67 -26 59 -11 -4 -10 -8 4 -19 17 -13 17 -13 1 -14 -10 0 -18 -5 -18
-11 0 -7 9 -9 23 -6 20 5 20 5 5 -7 -10 -7 -15 -16 -11 -20 4 -4 0 -4 -9 -1
-18 7 -32 62 -22 91 5 15 4 16 -5 4 -5 -8 -12 -12 -15 -9 -7 7 16 79 25 79 15
0 21 -22 8 -31 -7 -4 -10 -12 -5 -16 5 -4 11 -2 13 5 3 6 11 12 19 12 8 0 14
7 14 16 0 10 -6 14 -15 10 -9 -3 -15 0 -15 10 0 15 -2 15 -25 0 -27 -18 -30
-15 -16 12 5 9 21 44 35 77 27 63 28 62 29 -32 1 -34 3 -40 14 -32 7 6 17 27
22 45 8 28 5 44 -14 87 -13 29 -25 66 -27 82 -2 17 -6 32 -10 35 -16 12 12 27
88 48 87 24 124 27 124 13 0 -5 7 -12 17 -15 14 -6 15 4 9 101 -3 60 -11 136
-16 171 -9 52 -8 69 5 94 8 17 15 40 15 50 0 11 4 17 10 13 5 -3 6 -13 3 -21
-5 -12 2 -15 33 -12 l39 3 6 90 c3 50 6 86 7 80 1 -5 9 1 18 13 9 13 13 29 10
37 -2 7 5 26 16 42 l22 28 -27 -24 c-23 -21 -27 -22 -27 -7 0 9 -4 15 -9 11
-5 -3 -12 -1 -16 5 -3 5 9 16 27 24 27 12 29 15 11 15 -12 1 -28 4 -37 7 -12
4 -16 -4 -18 -43 l-3 -48 -8 60 c-14 107 -19 117 -29 56 -5 -32 -5 -57 1 -60
11 -8 19 -91 8 -91 -7 0 -4 -19 10 -57 3 -7 -2 -13 -11 -13 -12 0 -15 -8 -11
-35 4 -36 -3 -43 -22 -24 -7 7 -15 0 -27 -25 -9 -20 -21 -36 -26 -36 -6 0 -9
-3 -9 -7 3 -21 -3 -33 -17 -33 -15 0 -104 -48 -104 -56 0 -7 76 2 89 10 18 12
24 0 12 -22 -12 -22 -23 -27 -83 -38 -30 -5 -38 -3 -38 9 0 9 -8 18 -17 20
-14 4 -13 5 4 6 26 1 30 13 37 126 3 49 1 70 -4 55 -4 -14 -9 -43 -11 -65 -2
-39 -2 -39 -6 -7 -4 26 -8 32 -23 27 -15 -5 -19 3 -28 42 -9 47 -10 47 -11 12
0 -20 6 -53 14 -72 8 -20 15 -46 15 -57 0 -40 -16 -19 -35 45 -18 65 -43 93
-31 35 18 -86 17 -95 -5 -43 l-22 53 -70 -4 c-84 -5 -119 -26 -128 -77 l-5
-34 -8 38 c-8 34 -30 66 -25 36 3 -25 -1 -35 -21 -57 -16 -17 -18 -26 -10 -46
9 -25 -1 -43 -17 -33 -23 14 -185 16 -258 3 -44 -8 -81 -13 -83 -11 -2 2 2 13
8 26 7 13 10 39 7 64 -5 34 -2 46 13 60 11 10 20 22 20 27 0 12 -28 10 -32 -4
-3 -8 -11 -9 -24 -3 -10 4 -23 9 -27 9 -5 1 -15 13 -24 27 -15 24 -14 30 11
92 14 36 26 80 26 97 0 17 5 41 11 52 7 12 13 58 14 102 1 61 7 93 24 128 22
46 98 126 123 130 7 1 -14 4 -47 7 l-60 6 -6 105 c-4 58 -7 195 -8 306 0 110
-4 269 -8 352 l-6 152 -40 0 -39 0 6 -107 c3 -60 7 -268 8 -463 l3 -355 -130
-8 c-191 -12 -277 -15 -622 -23 l-312 -7 -5 34 c-5 33 -19 346 -31 704 -8 228
-7 225 -56 225 l-39 0 0 -52 c0 -29 4 -136 9 -238 28 -530 33 -661 27 -667 -9
-9 -80 -13 -416 -18 -168 -3 -333 -7 -368 -8 l-62 -3 -10 36 c-20 73 -132 633
-148 740 -6 36 -16 98 -23 138 l-13 72 -293 0 -293 0 0 -146z m603 -354 c15
-58 29 -134 58 -321 4 -32 13 -77 18 -100 15 -65 14 -68 -29 -75 -39 -6 -40
-8 -40 -45 l0 -39 50 0 c28 0 53 -1 58 -1 21 -4 49 -83 33 -93 -5 -3 -18 -26
-30 -51 -12 -25 -25 -45 -30 -45 -5 0 -28 -18 -52 -40 -24 -22 -47 -40 -50
-40 -20 0 -49 613 -45 945 1 155 16 183 32 60 6 -49 18 -119 27 -155z m7837
161 c17 -5 21 -9 12 -15 -6 -4 -17 -4 -24 0 -7 4 -8 3 -4 -4 5 -8 -3 -12 -25
-12 -31 0 -32 -1 -13 -15 17 -13 17 -14 2 -15 -10 0 -18 -7 -18 -15 0 -8 -4
-15 -9 -15 -10 0 -24 77 -16 91 7 10 58 10 95 0z m10 -49 c0 -14 -11 -21 -26
-15 -21 8 -17 23 6 23 11 0 20 -4 20 -8z m330 -107 c11 -7 -8 -13 -70 -22 -60
-8 -88 -17 -98 -30 -10 -15 -14 -15 -21 -4 -6 10 -19 12 -45 7 -25 -5 -48 -1
-78 12 -24 11 -59 23 -78 27 -105 22 -25 32 205 25 94 -3 177 -9 185 -15z
m-147 -84 c5 0 6 -5 2 -11 -6 -10 29 -50 43 -50 5 0 15 -15 23 -32 8 -18 21
-34 29 -34 8 -1 22 -2 31 -3 9 0 20 -9 24 -18 7 -19 -30 -56 -75 -74 -22 -9
-23 -12 -9 -22 17 -13 14 -36 -7 -52 -11 -8 -18 -32 -23 -77 -1 -4 -7 -5 -15
-2 -15 6 -14 41 4 111 4 17 4 35 0 40 -4 4 -17 37 -29 73 -13 37 -39 85 -61
111 l-39 46 47 -2 c26 -1 51 -3 55 -4z m64 -47 c-3 -3 -12 -4 -19 -1 -8 3 -5
6 6 6 11 1 17 -2 13 -5z m-627 -128 c0 -31 -12 -38 -44 -30 -24 6 -24 7 -9 30
21 32 53 32 53 0z m-61 -84 c11 -21 9 -47 -4 -59 -4 -5 -5 -2 0 6 6 11 4 13
-8 8 -10 -4 -21 3 -31 19 -15 21 -15 24 -1 24 8 0 15 5 15 10 0 17 19 11 29
-8z m-77 -66 c4 -5 3 -15 -2 -21 -15 -18 -31 -67 -20 -60 6 3 13 -1 16 -9 3
-8 15 -18 26 -22 11 -3 18 -8 15 -10 -8 -9 -77 27 -87 45 -11 22 -14 84 -3 94
8 9 46 -2 55 -17z m278 -36 l21 -30 -33 7 c-18 3 -44 11 -58 16 -14 6 -29 9
-34 8 -5 -1 -4 5 4 13 7 9 27 16 46 16 25 0 38 -7 54 -30z m1360 -5 c0 -8 -2
-15 -4 -15 -2 0 -6 7 -10 15 -3 8 -1 15 4 15 6 0 10 -7 10 -15z m-827 -45 c32
-3 62 -11 65 -16 4 -6 16 -14 27 -19 l20 -8 -20 -4 c-11 -3 -26 -12 -33 -21
-8 -11 -15 -13 -20 -7 -4 6 -38 19 -77 29 -79 20 -85 24 -66 35 8 5 10 14 6
21 -5 9 -1 10 16 5 13 -4 50 -11 82 -15z m-682 -87 c4 -32 6 -59 4 -62 -7 -7
-100 20 -107 31 -6 11 32 71 61 96 22 18 33 1 42 -65z m-5271 4 c0 -40 -5 -70
-15 -83 -22 -28 -18 -37 13 -30 27 6 27 5 -3 -8 -16 -8 -56 -20 -88 -27 -47
-10 -63 -10 -79 0 -18 11 -19 10 -13 -10 5 -16 3 -20 -6 -17 -8 3 -13 12 -13
21 1 9 -4 13 -11 10 -8 -2 -22 0 -33 6 -23 12 -36 3 -21 -15 8 -10 1 -13 -32
-12 -25 0 -47 -5 -53 -14 -6 -7 -19 -12 -30 -10 -13 3 -16 0 -11 -9 6 -8 4
-11 -7 -6 -28 10 -32 -96 -8 -220 12 -59 23 -119 26 -133 2 -14 15 -63 30
-110 66 -217 69 -313 13 -322 -30 -4 -36 -28 -9 -35 21 -6 21 -10 19 -117 -3
-134 9 -340 22 -380 5 -16 9 -33 9 -37 0 -9 -46 -30 -118 -55 -23 -8 -59 -26
-79 -40 -61 -41 -74 -32 -106 71 -15 50 -51 160 -79 245 l-51 155 2 178 2 178
-273 -7 -273 -7 18 21 c18 19 17 22 -13 76 -34 60 -36 89 -9 153 11 26 11 39
1 67 -22 60 -18 98 16 145 18 24 32 51 32 60 0 8 -18 32 -39 52 -27 24 -43 50
-51 80 -10 38 -17 47 -53 63 -23 10 -50 22 -59 27 -13 7 -16 5 -12 -6 9 -21
-13 -19 -54 7 -29 18 -55 23 -132 26 -74 3 -99 8 -115 22 -11 10 -36 22 -55
27 -32 8 -28 10 50 21 108 15 576 20 588 7 5 -6 15 -109 21 -230 7 -121 15
-228 17 -237 4 -14 16 -18 48 -18 l43 0 -3 48 c-12 160 -24 359 -24 395 l0 42
60 18 c50 14 104 17 337 18 153 1 289 5 303 9 14 4 100 8 193 9 l167 1 0 -63z
m5149 5 c-12 -5 -39 17 -39 30 0 5 11 1 24 -9 13 -10 20 -20 15 -21z m898 12
c-3 -3 -12 -4 -19 -1 -8 3 -5 6 6 6 11 1 17 -2 13 -5z m-723 -19 c3 -8 1 -15
-4 -15 -6 0 -10 7 -10 15 0 8 2 15 4 15 2 0 6 -7 10 -15z m231 -33 c-2 -9 -4
-20 -4 -24 -1 -5 -7 -8 -15 -8 -7 0 -20 -9 -27 -20 -9 -12 -37 -25 -75 -34
-58 -13 -63 -12 -78 5 -21 25 -21 26 17 21 27 -3 35 1 47 23 22 40 103 81 127
63 6 -5 10 -17 8 -26z m148 -47 c4 -8 3 -16 -1 -19 -4 -3 -9 4 -9 15 -2 23 3
25 10 4z m-400 -25 c4 -16 0 -20 -20 -20 -13 0 -31 6 -39 14 -12 13 -10 15 13
19 16 2 31 5 34 6 4 0 9 -8 12 -19z m-4210 -195 c4 -8 2 -17 -2 -20 -5 -2 -11
4 -14 15 -6 23 8 27 16 5z m4157 -39 c0 -2 -8 -10 -17 -17 -16 -13 -17 -12 -4
4 13 16 21 21 21 13z m-115 -126 c-24 -45 -29 -31 -8 21 11 27 19 38 21 27 2
-9 -4 -31 -13 -48z m-4075 6 c0 -2 -7 -6 -15 -10 -8 -3 -15 -1 -15 4 0 6 7 10
15 10 8 0 15 -2 15 -4z m-466 -51 c-10 -8 -37 -14 -59 -15 -39 0 -40 0 -15 14
14 8 40 14 59 15 33 1 34 0 15 -14z m96 -102 c0 -3 -7 0 -15 7 -8 7 -15 22
-15 34 0 18 2 17 15 -8 8 -15 15 -31 15 -33z m-247 -4 c5 -3 2 -9 -7 -12 -12
-5 -16 0 -16 15 0 12 3 17 8 12 4 -5 11 -12 15 -15z m177 -43 c0 -19 30 -29
46 -15 7 6 21 9 31 6 14 -4 13 -5 -4 -6 -13 -1 -23 -7 -23 -16 0 -24 -67 -20
-80 5 -6 11 -8 25 -5 30 9 15 35 12 35 -4z m4380 -79 c0 -4 -6 -10 -14 -13 -8
-3 -17 -21 -20 -40 -5 -24 -12 -34 -26 -34 -10 0 -21 -6 -23 -12 -3 -7 -6 -3
-6 10 -1 16 5 22 19 22 17 0 19 3 10 19 -14 28 -12 41 5 35 11 -4 13 -2 9 9
-4 11 1 15 20 13 14 0 26 -5 26 -9z m-5108 -19 c-7 -7 -12 -8 -12 -2 0 14 12
26 19 19 2 -3 -1 -11 -7 -17z m6308 -47 c0 -5 -9 -11 -21 -14 -16 -4 -18 -3
-8 9 13 16 29 19 29 5z m-1286 -66 c-4 -8 -10 -15 -15 -15 -4 0 -6 7 -3 15 4
8 10 15 15 15 4 0 6 -7 3 -15z m1211 -5 c-3 -5 -10 -10 -16 -10 -5 0 -9 5 -9
10 0 6 7 10 16 10 8 0 12 -4 9 -10z m-1158 -6 c-3 -3 -12 -4 -19 -1 -8 3 -5 6
6 6 11 1 17 -2 13 -5z m13 -85 c0 -5 -7 -9 -15 -9 -9 0 -12 6 -9 15 6 15 24
11 24 -6z m-7290 -45 c-6 -14 -8 -29 -5 -34 3 -5 0 -12 -6 -15 -14 -9 29 -55
52 -55 10 0 21 -4 24 -10 7 -12 25 -13 25 -2 0 4 -14 13 -30 20 -17 8 -28 17
-25 22 3 5 -1 11 -7 14 -7 3 -2 3 12 0 14 -3 42 -14 62 -25 23 -11 40 -15 43
-8 9 13 -11 36 -43 52 -35 16 -36 29 -6 50 18 13 29 16 37 8 7 -5 23 -8 35 -5
25 7 146 -49 287 -134 158 -94 177 -103 191 -91 14 12 19 5 28 -36 7 -31 7
-31 -34 -27 -23 2 -44 10 -47 18 -3 8 -10 14 -15 14 -5 0 -21 9 -35 20 -30 23
-53 26 -53 6 0 -8 10 -16 23 -18 12 -2 22 -10 21 -19 -1 -11 6 -14 27 -11 39
6 38 -18 -2 -52 -17 -14 -27 -30 -24 -36 9 -15 25 -12 19 4 -8 22 43 50 93 51
24 1 43 -3 43 -8 0 -5 -18 -7 -40 -4 -26 3 -43 1 -50 -8 -9 -10 1 -12 48 -10
56 3 60 2 72 -23 23 -52 62 -164 57 -168 -3 -3 -14 7 -26 22 -15 19 -21 22
-21 10 0 -9 4 -16 10 -16 5 0 9 -3 9 -7 -3 -21 2 -33 16 -33 8 0 27 -19 41
-42 35 -56 97 -131 159 -193 27 -27 61 -65 75 -83 20 -26 44 -39 113 -62 49
-17 104 -30 122 -30 25 0 33 -4 29 -14 -7 -19 -130 -18 -167 1 l-28 14 17 -32
c13 -27 14 -36 4 -53 -11 -17 -9 -22 11 -39 24 -19 24 -19 27 3 3 17 8 21 25
16 12 -3 28 -6 35 -6 6 0 12 -7 12 -16 0 -12 -7 -15 -30 -12 -31 5 -37 -1 -20
-18 7 -7 -2 -14 -26 -23 -29 -11 -33 -15 -23 -27 7 -8 18 -13 25 -10 7 3 27
-8 43 -24 31 -32 88 -43 78 -16 -4 9 3 15 22 18 51 7 73 -14 26 -26 -31 -8
-31 -17 1 -66 32 -48 28 -84 -16 -154 -17 -25 -30 -55 -30 -65 0 -33 -27 -43
-122 -47 -51 -2 -97 -4 -103 -5 -5 -1 -10 -30 -10 -63 0 -50 -4 -65 -22 -83
-13 -13 -23 -29 -24 -35 0 -7 -4 -3 -9 10 -5 12 -7 30 -4 40 11 32 -15 -9 -52
-85 -22 -45 -42 -74 -52 -74 -9 -1 -1 -5 18 -9 19 -4 -72 -8 -203 -8 -231 0
-239 0 -234 19 5 18 -3 23 -32 19 -8 -1 -18 4 -22 12 -18 28 -9 36 39 32 l47
-3 -47 8 c-59 11 -68 17 -68 42 0 11 -10 33 -22 49 -26 35 -19 47 19 31 19 -7
38 -8 58 -2 28 9 27 9 -17 10 -27 1 -48 6 -48 11 0 6 -7 10 -15 10 -8 0 -15 4
-15 8 0 5 26 13 58 19 l57 10 -53 2 c-33 0 -59 7 -69 16 -20 20 -16 24 38 34
l44 9 -46 1 c-31 1 -51 7 -63 20 -16 18 -16 19 11 29 l28 10 -28 1 c-53 2 -75
50 -24 52 14 1 8 5 -16 11 -20 6 -42 18 -47 28 -8 15 -3 19 43 26 l52 8 -53 4
c-36 2 -55 8 -59 19 -8 22 15 33 70 33 30 0 46 4 42 10 -9 15 -82 12 -114 -5
-38 -19 -48 -6 -14 17 28 18 23 22 -24 18 -37 -3 -49 11 -22 26 19 10 20 13 7
14 -10 0 -18 6 -18 14 0 18 17 30 22 16 6 -17 62 -13 163 14 163 43 143 47
-38 6 -91 -20 -100 -20 -123 -5 -13 8 -24 20 -24 25 0 6 -6 10 -13 10 -8 0
-22 9 -31 19 -21 23 -66 33 -83 19 -15 -12 -33 -2 -33 18 0 9 -10 14 -27 14
-23 -1 -25 -2 -11 -10 12 -8 48 -63 48 -74 0 -1 -8 -3 -17 -4 -10 -1 -39 -5
-65 -8 -44 -6 -49 -4 -78 28 -17 18 -29 40 -27 50 3 9 0 19 -7 21 -6 3 -21 23
-33 46 -19 35 -20 41 -6 41 11 0 8 6 -11 21 -15 11 -33 35 -41 52 -8 18 -22
43 -32 57 l-17 25 23 -23 c30 -30 37 -22 16 17 -8 17 -13 31 -10 31 3 0 1 10
-6 21 -13 25 -6 22 49 -19 18 -14 35 -22 38 -19 3 3 -10 17 -29 31 -19 15 -40
39 -46 54 -6 15 -25 36 -41 47 -30 20 -39 35 -20 35 6 0 10 15 10 33 1 30 3
28 30 -28 15 -33 29 -56 29 -51 1 6 13 -2 29 -16 31 -29 72 -52 72 -41 0 5 -9
14 -21 21 -11 7 -19 19 -16 25 3 7 -6 13 -20 13 -33 2 -54 32 -48 67 4 23 1
30 -15 34 -19 5 -26 29 -21 77 2 27 10 33 22 16 8 -11 9 -7 5 17 -4 23 -2 32
7 30 6 -1 13 9 15 22 2 13 0 21 -6 17 -6 -4 -6 9 0 34 6 22 16 40 24 40 8 0
13 3 13 8 -3 17 2 32 10 32 6 0 11 -14 13 -31 l3 -31 28 25 c15 15 27 33 27
42 0 18 -26 20 -34 3 -4 -9 -5 -8 -4 2 1 8 -2 23 -6 32 -13 28 39 101 132 188
47 44 87 80 89 80 1 0 -2 -12 -7 -26z m90 21 c0 -2 -9 -9 -20 -15 -16 -9 -18
-8 -14 5 5 13 34 22 34 10z m7570 -20 c0 -9 -6 -12 -15 -9 -8 4 -15 10 -15 15
0 5 7 9 15 9 8 0 15 -7 15 -15z m-3160 -30 c8 -7 94 -38 190 -69 96 -30 231
-74 300 -96 68 -22 132 -38 141 -35 9 3 35 -1 56 -10 l40 -16 -34 -127 c-28
-106 -111 -412 -129 -475 -7 -22 -6 -22 -178 46 -87 34 -131 47 -134 39 -6
-18 -20 -15 -18 4 1 12 -36 30 -137 69 -114 44 -138 51 -145 38 -7 -12 -19
-10 -78 12 -38 14 -73 30 -78 35 -22 22 -11 81 55 316 39 137 73 259 76 272 5
20 10 22 32 17 14 -4 33 -12 41 -20z m1443 -25 c5 -4 -6 -10 -23 -12 -23 -3
-30 -1 -26 9 3 7 -1 13 -9 13 -8 0 -15 4 -15 9 0 10 58 -5 73 -19z m1307 11
c0 -12 -20 -25 -27 -18 -7 7 6 27 18 27 5 0 9 -4 9 -9z m107 -28 c-9 -9 -19
-14 -23 -11 -10 10 6 28 24 28 15 0 15 -1 -1 -17z m998 -34 c11 -17 -34 -49
-57 -40 -27 10 -26 23 3 38 30 16 46 16 54 2z m-7711 -54 c3 -9 0 -15 -9 -15
-16 0 -27 14 -18 24 10 10 21 7 27 -9z m6653 -7 c-3 -8 -6 -5 -6 6 -1 11 2 17
5 13 3 -3 4 -12 1 -19z m-1481 -104 c-3 -9 -6 -22 -6 -30 0 -8 -7 -14 -16 -14
-11 0 -14 5 -10 16 3 9 6 22 6 30 0 8 7 14 16 14 11 0 14 -5 10 -16z m2739
-54 c3 -5 -1 -10 -10 -10 -9 0 -13 5 -10 10 3 6 8 10 10 10 2 0 7 -4 10 -10z
m-5545 -10 c0 -5 -4 -10 -10 -10 -5 0 -10 5 -10 10 0 6 5 10 10 10 6 0 10 -4
10 -10z m4081 -13 c-10 -9 -11 -8 -5 6 3 10 9 15 12 12 3 -3 0 -11 -7 -18z
m-4254 -61 c-13 -14 -27 -26 -31 -26 -14 0 -4 23 21 48 33 33 43 14 10 -22z
m2733 -1 c9 -11 10 -18 1 -29 -9 -11 -6 -15 14 -18 20 -4 25 -1 25 14 0 15 6
19 28 16 21 -2 28 -9 30 -30 3 -26 0 -28 -30 -28 -18 0 -42 -7 -52 -15 -26
-20 -50 -19 -42 0 3 8 1 15 -4 15 -6 0 -10 8 -11 18 0 14 -2 14 -9 -3 -7 -19
-8 -19 -15 -2 -5 12 -14 16 -29 11 -21 -6 -21 -6 2 18 12 13 22 30 22 36 0 17
55 15 70 -3z m-2669 -25 c5 0 9 -11 9 -24 0 -19 -4 -23 -20 -19 -11 3 -17 10
-13 16 4 6 0 8 -10 4 -21 -8 -21 -3 0 30 15 22 19 24 21 10 2 -9 8 -17 13 -17z
m5354 0 c-3 -5 -16 -10 -28 -10 -18 0 -19 2 -7 10 20 13 43 13 35 0z m-65 -20
c-20 -13 -67 -13 -54 -1 9 10 56 19 64 13 2 -2 -2 -7 -10 -12z m-4080 -55 c14
-8 21 -14 15 -14 -5 0 -21 6 -35 14 -14 8 -20 14 -15 14 6 0 21 -6 35 -14z
m-1278 -57 c22 -18 5 -78 -22 -78 -27 0 -25 26 2 41 20 11 20 13 5 24 -9 7
-17 15 -17 19 0 10 15 7 32 -6z m6471 -55 c-7 -2 -19 -2 -25 0 -7 3 -2 5 12 5
14 0 19 -2 13 -5z m-2548 -34 c5 -5 -6 -4 -25 2 -45 15 -54 24 -15 15 17 -4
34 -12 40 -17z m-7122 -91 c3 -21 2 -38 -4 -38 -5 0 -9 -14 -9 -31 0 -23 10
-42 40 -72 22 -22 39 -42 36 -44 -2 -3 -24 15 -49 39 -44 43 -44 43 -50 128
-4 57 -2 89 6 99 12 14 19 -4 30 -81z m4662 40 c14 -6 25 -15 25 -20 0 -5 -9
-4 -20 2 -11 6 -24 9 -29 6 -4 -3 -8 1 -8 9 0 18 0 18 32 3z m-215 -108 c0 -5
-7 -10 -16 -10 -8 0 -12 5 -9 10 3 6 10 10 16 10 5 0 9 -4 9 -10z m-40 -30
c12 -8 9 -10 -12 -10 -16 0 -28 5 -28 10 0 13 20 13 40 0z m115 0 c-3 -5 -11
-10 -16 -10 -6 0 -7 5 -4 10 3 6 11 10 16 10 6 0 7 -4 4 -10z m5963 -9 c10 -6
8 -10 -9 -14 -13 -4 -25 -4 -28 -2 -2 3 1 5 8 5 7 0 9 5 6 10 -8 12 5 13 23 1z
m-5908 -5 c0 -3 -4 -8 -10 -11 -5 -3 -10 -1 -10 4 0 6 5 11 10 11 6 0 10 -2
10 -4z m-1300 -14 c0 -15 -103 -132 -116 -132 -8 0 -23 9 -33 19 -11 11 -23
16 -26 13 -4 -4 -2 2 5 13 6 11 21 21 33 21 12 1 32 3 45 5 l22 3 -26 23 c-30
25 -25 30 41 36 22 2 43 4 48 5 4 1 7 -1 7 -6z m1047 1 c-9 -2 -15 -9 -12 -14
7 -11 3 -11 -20 -3 -13 5 -14 8 -3 15 7 5 22 8 33 8 17 -1 17 -2 2 -6z m143
-3 c0 -5 -5 -10 -11 -10 -5 0 -7 5 -4 10 3 6 8 10 11 10 2 0 4 -4 4 -10z
m6060 -10 c13 -9 13 -10 0 -9 -8 0 -24 4 -35 9 l-20 9 20 0 c11 0 27 -4 35 -9z
m-6005 -10 c3 -5 -1 -10 -10 -10 -9 0 -13 5 -10 10 3 6 8 10 10 10 2 0 7 -4
10 -10z m250 0 c3 -5 -1 -10 -9 -10 -8 0 -18 5 -21 10 -3 6 1 10 9 10 8 0 18
-4 21 -10z m5822 4 c-3 -3 -12 -4 -19 -1 -8 3 -5 6 6 6 11 1 17 -2 13 -5z
m-6330 -10 c-3 -3 -12 -4 -19 -1 -8 3 -5 6 6 6 11 1 17 -2 13 -5z m93 -4 c0
-5 -4 -10 -9 -10 -6 0 -13 5 -16 10 -3 6 1 10 9 10 9 0 16 -4 16 -10z m84 -9
c3 -5 -1 -12 -10 -15 -27 -11 -37 -7 -24 9 14 17 26 19 34 6z m377 -6 c0 -5
-9 -11 -21 -13 -20 -3 -27 8 -13 22 10 9 34 3 34 -9z m5776 9 c-3 -3 -12 -4
-19 -1 -8 3 -5 6 6 6 11 1 17 -2 13 -5z m-6263 -13 c6 -10 -16 -21 -41 -21
-13 0 -13 3 -3 15 14 17 36 20 44 6z m246 5 c0 -3 -4 -8 -10 -11 -5 -3 -10 -1
-10 4 0 6 5 11 10 11 6 0 10 -2 10 -4z m-85 -16 c3 -5 -1 -10 -10 -10 -9 0
-13 5 -10 10 3 6 8 10 10 10 2 0 7 -4 10 -10z m6232 4 c-3 -3 -12 -4 -19 -1
-8 3 -5 6 6 6 11 1 17 -2 13 -5z m-6337 -19 c0 -2 -9 -9 -20 -15 -24 -13 -50
-2 -29 11 15 9 49 12 49 4z m75 -5 c3 -6 -1 -7 -9 -4 -18 7 -21 14 -7 14 6 0
13 -4 16 -10z m460 -16 c-9 -7 -24 -10 -32 -7 -14 5 -14 8 2 19 9 7 24 10 32
7 14 -5 14 -8 -2 -19z m5820 16 c3 -5 -1 -10 -10 -10 -9 0 -13 5 -10 10 3 6 8
10 10 10 2 0 7 -4 10 -10z m-6065 -10 c0 -5 -5 -10 -11 -10 -5 0 -7 5 -4 10 3
6 8 10 11 10 2 0 4 -4 4 -10z m-240 -9 c0 -12 -39 -25 -48 -16 -7 7 17 25 36
25 6 0 12 -4 12 -9z m405 -1 c3 -5 -1 -10 -9 -10 -9 0 -16 5 -16 10 0 6 4 10
9 10 6 0 13 -4 16 -10z m145 -9 c0 -11 -39 -25 -47 -18 -3 3 -2 10 2 16 8 13
45 15 45 2z m-3143 -46 c9 -3 4 -19 -14 -54 -20 -37 -32 -49 -47 -47 -20 3
-56 40 -56 60 -1 16 -48 48 -60 41 -6 -3 -10 1 -10 9 0 29 30 33 103 14 40
-10 77 -21 84 -23z m2657 30 c30 -13 34 -18 24 -29 -9 -10 -17 -11 -25 -4 -7
6 -13 7 -13 2 0 -4 -5 -3 -12 4 -7 7 -21 12 -32 12 -21 1 -21 1 -2 15 24 18
16 18 60 0z m392 -13 c-22 -5 -30 3 -21 18 5 8 11 7 22 -2 15 -12 14 -13 -1
-16z m147 3 c1 -6 -10 -11 -25 -13 -31 -4 -39 14 -10 21 23 6 33 4 35 -8z
m-405 -2 c-10 -2 -18 -9 -18 -15 0 -6 -3 -9 -6 -5 -10 10 6 27 24 26 15 -1 15
-2 0 -6z m321 -12 c12 -8 9 -11 -12 -17 -30 -7 -43 -1 -32 15 8 13 25 14 44 2z
m145 -12 c-3 -5 -17 -9 -32 -9 -25 1 -26 2 -9 15 20 14 51 10 41 -6z m-404 1
c0 -5 -4 -10 -10 -10 -5 0 -10 5 -10 10 0 6 5 10 10 10 6 0 10 -4 10 -10z
m310 -15 c0 -10 -10 -15 -27 -15 -26 0 -26 1 -7 15 25 19 34 19 34 0z m145 -4
c6 -11 -33 -26 -43 -16 -4 3 0 10 8 15 19 12 27 12 35 1z m-87 -23 c-5 -16
-48 -24 -48 -10 0 11 17 20 38 21 8 1 12 -5 10 -11z m173 -5 c34 -13 38 -18
24 -26 -11 -6 -32 -5 -61 3 -36 10 -42 15 -33 26 15 18 20 18 70 -3z m-111
-13 c13 -9 13 -10 0 -10 -8 0 -26 -3 -40 -6 -24 -5 -24 -5 -6 10 23 19 26 19
46 6z m79 -29 c11 -7 9 -11 -8 -20 -14 -8 -21 -8 -21 -1 0 5 -9 10 -21 10 -11
0 -17 5 -14 10 8 12 45 13 64 1z m-129 -11 c0 -5 -4 -10 -10 -10 -5 0 -10 5
-10 10 0 6 5 10 10 10 6 0 10 -4 10 -10z m-4985 -18 c-3 -3 -11 0 -18 7 -9 10
-8 11 6 5 10 -3 15 -9 12 -12z m6317 -63 c0 -21 -8 -55 -18 -77 -15 -36 -20
-40 -37 -30 -18 9 -19 12 -5 22 26 20 38 53 39 113 0 49 2 54 10 33 6 -14 11
-41 11 -61z m-6102 42 c0 -6 12 -6 30 -1 28 8 70 4 70 -8 0 -2 -8 -11 -17 -19
-16 -12 -15 -13 9 -7 16 3 35 3 44 0 15 -6 15 -8 -1 -26 -18 -19 -17 -20 4
-20 12 0 19 -4 16 -10 -7 -12 -45 -14 -45 -2 0 4 -17 6 -39 4 -24 -2 -42 1
-46 9 -6 9 -1 10 18 5 21 -5 25 -3 21 9 -4 8 -15 15 -26 15 -26 0 -108 38
-108 50 0 6 16 10 35 10 19 0 35 -4 35 -9z m5113 -13 c37 -19 8 -18 -39 2 -43
18 -45 20 -14 14 19 -4 43 -11 53 -16z m3824 -33 c103 -35 216 -88 259 -123
21 -16 22 -23 17 -119 l-6 -102 -31 22 c-17 12 -42 32 -56 44 -76 66 -213 143
-332 185 -53 18 -88 22 -223 25 -88 1 -180 -2 -204 -8 -66 -15 -69 -7 -10 37
80 60 95 66 183 72 45 2 83 6 85 8 3 2 51 2 109 -1 83 -4 124 -12 209 -40z
m-4038 7 c-80 -50 -159 -92 -159 -85 0 9 180 113 194 113 6 0 -10 -13 -35 -28z
m-4914 -63 c9 -14 -36 -31 -63 -24 -15 4 -21 10 -14 12 6 3 12 10 12 17 0 14
56 10 65 -5z m148 -26 c38 -6 34 -19 -10 -32 -36 -10 -35 -10 16 -5 62 6 87
-11 48 -33 -19 -11 -17 -12 21 -7 l43 7 -12 -26 c-6 -14 -28 -33 -48 -41 l-36
-16 45 7 c25 3 53 10 63 15 11 5 17 5 17 -2 0 -5 8 -10 17 -10 26 0 3 -18 -53
-41 l-49 -20 49 6 c53 7 56 -4 8 -29 -35 -17 -162 -31 -162 -18 0 6 8 13 18
15 12 3 11 5 -6 6 -30 1 -112 44 -92 48 8 2 42 7 75 12 54 8 56 9 18 10 -23 0
-65 -4 -93 -10 -38 -8 -55 -8 -63 0 -8 8 2 11 35 11 40 0 108 25 108 40 0 3
-20 4 -44 2 -26 -2 -55 2 -72 11 l-29 16 25 10 c23 9 23 10 4 10 -12 1 -32 9
-45 20 l-23 18 25 8 c49 16 158 26 202 18z m5812 -10 c19 -9 35 -24 35 -32 1
-10 86 -65 227 -146 124 -71 269 -155 322 -186 53 -31 148 -86 211 -122 l114
-67 -300 0 -300 0 18 87 c9 49 14 89 10 91 -4 1 -36 20 -72 41 -44 27 -67 36
-71 28 -3 -7 -12 -41 -18 -77 -6 -36 -16 -89 -22 -117 l-10 -53 -70 0 c-59 0
-69 3 -69 18 0 13 -2 14 -9 4 -6 -10 -10 -8 -14 8 -3 13 -10 19 -17 15 -9 -5
-9 -10 -1 -18 21 -21 10 -27 -48 -27 l-59 0 4 43 c2 23 8 62 14 87 5 25 14 74
20 110 21 150 40 266 45 279 4 11 8 11 20 1 9 -7 19 -10 23 -6 4 4 -1 13 -11
20 -15 12 -24 36 -12 36 2 0 20 -8 40 -17z m2365 -41 c0 -15 -2 -15 -10 -2
-13 20 -13 33 0 25 6 -3 10 -14 10 -23z m-76 -28 c3 -8 2 -12 -4 -9 -6 3 -10
10 -10 16 0 14 7 11 14 -7z m-68 -27 c4 -4 -2 -7 -14 -7 -11 0 -23 4 -26 8 -6
10 30 9 40 -1z m-3686 -92 c41 -22 43 -24 18 -25 -15 0 -39 11 -55 25 -35 31
-21 31 37 0z m3518 7 c2 -7 -3 -12 -12 -12 -9 0 -16 7 -16 16 0 17 22 14 28
-4z m-3593 -32 c3 -5 1 -10 -4 -10 -6 0 -11 5 -11 10 0 6 2 10 4 10 3 0 8 -4
11 -10z m3635 0 c0 -5 -4 -10 -10 -10 -5 0 -10 5 -10 10 0 6 5 10 10 10 6 0
10 -4 10 -10z m-7983 -16 c35 -10 17 -24 -30 -24 -38 0 -39 1 -21 15 22 17 22
17 51 9z m293 -4 c0 -5 -4 -10 -10 -10 -5 0 -10 5 -10 10 0 6 5 10 10 10 6 0
10 -4 10 -10z m4160 -32 c0 -13 -14 -8 -37 11 -32 27 -28 33 7 13 16 -9 30
-20 30 -24z m3435 22 c-3 -5 -12 -7 -20 -3 -21 7 -19 13 6 13 11 0 18 -4 14
-10z m-7682 -7 c-7 -2 -19 -2 -25 0 -7 3 -2 5 12 5 14 0 19 -2 13 -5z m4108
-2 c-7 -5 -11 -13 -8 -18 3 -5 -10 -10 -29 -10 -21 -1 -34 4 -34 11 0 20 11
26 49 26 24 0 32 -3 22 -9z m-4173 -8 c-10 -2 -26 -2 -35 0 -10 3 -2 5 17 5
19 0 27 -2 18 -5z m177 -13 c7 -12 -53 -40 -85 -40 -11 0 -20 -4 -20 -9 0 -16
-154 -71 -199 -71 -13 0 -21 3 -18 7 4 3 -1 12 -10 18 -15 11 -10 14 37 23
l55 10 -49 1 c-27 0 -73 9 -102 19 l-53 17 157 16 c189 20 279 22 287 9z
m4200 0 c-3 -5 -12 -10 -18 -10 -7 0 -6 4 3 10 19 12 23 12 15 0z m3449 -10
c-10 -4 -21 -6 -24 -3 -8 7 24 22 34 16 5 -4 1 -10 -10 -13z m254 -6 c20 -3
60 -12 87 -20 135 -40 118 -33 270 -104 50 -23 111 -51 138 -62 32 -14 49 -28
53 -44 3 -13 15 -25 27 -27 12 -3 -19 -4 -70 -4 -50 1 -87 4 -82 7 5 4 -29 21
-76 39 -47 18 -90 29 -97 25 -7 -4 -8 -3 -4 4 4 7 1 12 -9 12 -8 0 -18 7 -21
15 -3 8 -14 17 -24 20 -10 3 -30 17 -46 32 -25 23 -25 25 -6 19 43 -14 21 5
-35 30 -54 23 -58 24 -70 8 -12 -17 -13 -16 -13 3 0 16 -8 23 -30 27 -16 3
-43 9 -59 12 -16 3 -35 11 -41 19 -9 11 -4 11 30 4 22 -5 57 -12 78 -15z
m-203 -4 c-3 -5 -16 -10 -28 -10 -18 0 -19 2 -7 10 20 13 43 13 35 0z m130
-32 c36 -17 64 -33 62 -34 -6 -7 -137 48 -137 57 0 13 4 12 75 -23z m-220 12
c-3 -5 -10 -10 -16 -10 -5 0 -9 5 -9 10 0 6 7 10 16 10 8 0 12 -4 9 -10z
m-225 -40 c18 -12 2 -12 -25 0 -13 6 -15 9 -5 9 8 0 22 -4 30 -9z m610 -5 c14
-8 21 -14 15 -14 -5 0 -21 6 -35 14 -14 8 -20 14 -15 14 6 0 21 -6 35 -14z
m-8380 -36 c0 -5 -13 -2 -30 8 -16 9 -30 21 -30 25 0 5 14 2 30 -7 17 -9 30
-20 30 -26z m298 8 c5 -27 -44 -49 -118 -55 -37 -2 -81 -1 -97 3 -26 6 -23 9
41 32 50 18 71 22 76 13 5 -8 17 -6 41 9 37 23 52 23 57 -2z m7257 -7 c-3 -5
-11 -10 -16 -10 -6 0 -7 5 -4 10 3 6 11 10 16 10 6 0 7 -4 4 -10z m-2925 -70
c0 -11 -5 -20 -11 -20 -8 0 -8 -4 -1 -13 8 -10 2 -12 -29 -12 -46 0 -54 22
-16 48 32 23 57 21 57 -3z m-4290 3 c0 -1 -12 -9 -28 -17 -29 -15 -59 -19
-131 -17 -47 1 -51 7 -11 15 14 3 39 9 55 15 25 8 115 11 115 4z m700 -43
c-12 -17 -24 -29 -27 -26 -6 5 40 65 46 60 2 -1 -7 -17 -19 -34z m-765 -40
c13 -5 -16 -8 -80 -8 -89 1 -94 2 -40 8 86 10 98 10 120 0z m4445 0 c0 -5 -7
-10 -16 -10 -8 0 -12 5 -9 10 3 6 10 10 16 10 5 0 9 -4 9 -10z m5510 0 c11 -7
7 -10 -17 -10 -18 0 -33 5 -33 10 0 13 30 13 50 0z m-9857 -7 c-7 -2 -19 -2
-25 0 -7 3 -2 5 12 5 14 0 19 -2 13 -5z"/>
<path d="M1892 2356 c4 -18 0 -27 -11 -31 -12 -4 -15 -15 -13 -50 l4 -45 44 0
45 0 -3 73 -3 72 -34 3 c-31 3 -33 2 -29 -22z"/>
<path d="M613 1800 c-6 -15 -7 -26 -1 -29 15 -5 20 5 16 31 l-5 23 -10 -25z"/>
<path d="M854 1776 c-13 -27 -2 -46 25 -46 22 0 45 51 28 62 -22 14 -42 8 -53
-16z"/>
<path d="M565 1724 c-9 -15 -12 -23 -6 -20 11 7 35 46 28 46 -3 0 -12 -12 -22
-26z"/>
<path d="M1100 1720 c-13 -8 -12 -10 3 -10 9 0 17 5 17 10 0 12 -1 12 -20 0z"/>
<path d="M570 1690 c0 -5 5 -10 10 -10 6 0 10 5 10 10 0 6 -4 10 -10 10 -5 0
-10 -4 -10 -10z"/>
<path d="M1145 1690 c-3 -5 3 -10 14 -10 12 0 21 5 21 10 0 6 -6 10 -14 10 -8
0 -18 -4 -21 -10z"/>
<path d="M1060 1670 c0 -5 3 -10 8 -10 4 0 18 -10 32 -23 121 -112 145 -118
40 -11 -50 50 -80 67 -80 44z"/>
<path d="M432 1520 c0 -14 2 -19 5 -12 2 6 2 18 0 25 -3 6 -5 1 -5 -13z"/>
<path d="M510 1530 c-9 -6 -10 -10 -3 -10 6 0 15 5 18 10 8 12 4 12 -15 0z"/>
<path d="M460 1498 c0 -19 2 -20 10 -8 13 19 13 30 0 30 -5 0 -10 -10 -10 -22z"/>
<path d="M1315 1500 c-8 -13 16 -48 37 -53 22 -6 23 0 3 20 -8 8 -13 18 -10
23 3 4 -2 10 -10 14 -8 3 -17 1 -20 -4z"/>
<path d="M537 1453 c-4 -3 -7 -13 -7 -22 1 -13 3 -13 11 2 11 19 8 33 -4 20z"/>
<path d="M470 1446 c0 -2 7 -6 15 -10 8 -3 15 -1 15 4 0 6 -7 10 -15 10 -8 0
-15 -2 -15 -4z"/>
<path d="M445 1420 c3 -5 8 -10 11 -10 2 0 4 5 4 10 0 6 -5 10 -11 10 -5 0 -7
-4 -4 -10z"/>
<path d="M455 1391 c-3 -5 -1 -12 5 -16 5 -3 10 1 10 9 0 18 -6 21 -15 7z"/>
<path d="M420 1372 c0 -10 85 -84 140 -122 19 -13 38 -29 42 -35 5 -6 8 -3 8
8 0 10 -8 21 -17 24 -16 6 -46 29 -83 63 -35 33 -90 70 -90 62z"/>
<path d="M390 1327 c0 -9 15 -34 34 -54 18 -21 31 -45 29 -53 -3 -11 -2 -12 4
-3 9 13 11 12 97 -47 19 -14 36 -32 36 -41 0 -9 7 -20 16 -23 24 -9 29 -7 16
6 -7 7 -12 20 -12 30 0 10 -8 22 -18 26 -40 16 -149 104 -179 145 -16 22 -23
26 -23 14z"/>
<path d="M1430 1291 c0 -6 4 -13 10 -16 6 -3 7 1 4 9 -7 18 -14 21 -14 7z"/>
<path d="M800 1250 c-6 -11 -8 -20 -6 -20 3 0 10 9 16 20 6 11 8 20 6 20 -3 0
-10 -9 -16 -20z"/>
<path d="M1470 1233 c0 -10 4 -24 9 -32 7 -11 10 -9 16 8 7 22 0 41 -16 41 -5
0 -9 -8 -9 -17z"/>
<path d="M806 1165 c-3 -8 -1 -15 4 -15 6 0 10 7 10 15 0 8 -2 15 -4 15 -2 0
-6 -7 -10 -15z"/>
<path d="M1440 1140 c0 -6 7 -10 15 -10 8 0 15 2 15 4 0 2 -7 6 -15 10 -8 3
-15 1 -15 -4z"/>
<path d="M547 1098 c16 -18 34 -42 38 -53 8 -19 9 -19 13 3 2 16 -5 33 -25 53
-40 41 -65 38 -26 -3z"/>
<path d="M880 1110 c-18 -12 -2 -12 25 0 13 6 15 9 5 9 -8 0 -22 -4 -30 -9z"/>
<path d="M1580 1111 c0 -5 7 -14 15 -21 8 -7 15 -18 15 -24 0 -6 8 -18 18 -27
9 -8 24 -26 33 -39 9 -14 20 -22 24 -18 14 13 -77 138 -100 138 -3 0 -5 -4 -5
-9z"/>
<path d="M1460 1079 c0 -5 5 -7 10 -4 6 3 10 8 10 11 0 2 -4 4 -10 4 -5 0 -10
-5 -10 -11z"/>
<path d="M965 1070 c-16 -7 -17 -9 -3 -9 9 -1 20 4 23 9 7 11 7 11 -20 0z"/>
<path d="M494 1055 c11 -8 26 -15 33 -15 8 0 20 -15 28 -34 8 -18 26 -41 40
-50 32 -21 32 -16 0 18 -14 15 -25 35 -25 46 0 12 -10 21 -30 25 -16 4 -32 11
-35 16 -4 5 -12 9 -18 9 -7 0 -3 -7 7 -15z"/>
<path d="M1465 1020 c-3 -5 1 -10 9 -10 9 0 16 5 16 10 0 6 -4 10 -9 10 -6 0
-13 -4 -16 -10z"/>
<path d="M430 1016 c0 -3 14 -12 30 -21 17 -9 30 -13 30 -11 0 3 -13 12 -30
21 -16 9 -30 13 -30 11z"/>
<path d="M1596 981 c-3 -4 8 -15 25 -25 35 -21 37 -17 4 12 -13 12 -26 18 -29
13z"/>
<path d="M1692 970 c-12 -19 -17 -50 -8 -50 13 0 52 47 49 58 -7 18 -27 15
-41 -8z"/>
<path d="M523 965 c20 -12 27 -23 27 -46 0 -29 -2 -31 -27 -25 -25 6 -26 5 -8
-6 11 -6 25 -19 32 -27 11 -14 12 -14 13 2 0 9 7 17 17 17 15 0 15 2 -1 19
-10 11 -15 24 -12 29 8 14 -16 39 -44 46 -24 7 -24 6 3 -9z"/>
<path d="M1470 960 c0 -5 7 -10 16 -10 8 0 12 5 9 10 -3 6 -10 10 -16 10 -5 0
-9 -4 -9 -10z"/>
<path d="M1480 915 c0 -14 4 -25 9 -25 4 0 6 11 3 25 -2 14 -6 25 -8 25 -2 0
-4 -11 -4 -25z"/>
<path d="M636 875 c-16 -12 -17 -15 -4 -15 9 0 18 7 22 15 7 18 6 18 -18 0z"/>
<path d="M1714 814 c0 -25 6 -35 23 -43 13 -6 26 -11 28 -11 10 0 -11 47 -30
66 l-21 21 0 -33z"/>
<path d="M550 830 c0 -5 7 -10 16 -10 8 0 12 5 9 10 -3 6 -10 10 -16 10 -5 0
-9 -4 -9 -10z"/>
<path d="M530 800 c19 -13 30 -13 30 0 0 6 -10 10 -22 10 -19 0 -20 -2 -8 -10z"/>
<path d="M545 770 c3 -5 14 -10 23 -10 15 0 15 2 2 10 -20 13 -33 13 -25 0z"/>
<path d="M1328 766 c-25 -6 -50 -14 -53 -18 -6 -6 105 17 130 26 21 9 -32 3
-77 -8z"/>
<path d="M990 660 c-8 -5 -10 -10 -5 -10 6 0 17 5 25 10 8 5 11 10 5 10 -5 0
-17 -5 -25 -10z"/>
<path d="M1350 630 c-8 -5 -10 -10 -5 -10 6 0 17 5 25 10 8 5 11 10 5 10 -5 0
-17 -5 -25 -10z"/>
<path d="M1460 619 c0 -5 5 -7 10 -4 6 3 10 8 10 11 0 2 -4 4 -10 4 -5 0 -10
-5 -10 -11z"/>
<path d="M1865 599 c-4 -6 -5 -13 -2 -16 7 -7 27 6 27 18 0 12 -17 12 -25 -2z"/>
<path d="M1238 593 c7 -3 16 -2 19 1 4 3 -2 6 -13 5 -11 0 -14 -3 -6 -6z"/>
<path d="M1751 530 l-23 -19 35 6 c33 5 35 4 47 -33 18 -57 22 -60 37 -30 13
26 13 29 -11 51 -14 13 -26 29 -26 35 0 17 -35 11 -59 -10z"/>
<path d="M1874 510 c0 -11 6 -20 12 -20 6 0 17 -6 23 -14 10 -12 9 -20 -4 -40
-10 -15 -13 -26 -7 -26 16 0 62 22 62 30 0 7 -74 90 -81 90 -3 0 -5 -9 -5 -20z"/>
<path d="M1038 473 c7 -3 16 -2 19 1 4 3 -2 6 -13 5 -11 0 -14 -3 -6 -6z"/>
<path d="M1530 435 c-33 -19 -21 -19 21 0 19 8 27 14 19 14 -8 0 -26 -6 -40
-14z"/>
<path d="M1668 363 c7 -3 16 -2 19 1 4 3 -2 6 -13 5 -11 0 -14 -3 -6 -6z"/>
<path d="M1570 265 c-7 -9 -8 -15 -2 -15 5 0 12 7 16 15 3 8 4 15 2 15 -2 0
-9 -7 -16 -15z"/>
<path d="M1519 213 c-13 -16 -12 -17 4 -4 16 13 21 21 13 21 -2 0 -10 -8 -17
-17z"/>
<path d="M1310 200 c-8 -5 -10 -10 -5 -10 6 0 17 5 25 10 8 5 11 10 5 10 -5 0
-17 -5 -25 -10z"/>
<path d="M1455 172 c-5 -4 -17 -16 -25 -26 -12 -16 -9 -15 18 4 17 13 32 25
32 27 0 6 -15 3 -25 -5z"/>
<path d="M1583 128 c-23 -25 -63 -89 -63 -100 0 -5 9 -8 21 -8 11 0 17 4 14
10 -9 14 13 50 28 45 6 -3 21 7 31 22 18 24 18 26 2 20 -14 -6 -16 -3 -11 13
8 26 3 25 -22 -2z"/>
<path d="M1360 99 c0 -5 5 -7 10 -4 6 3 10 8 10 11 0 2 -4 4 -10 4 -5 0 -10
-5 -10 -11z"/>
<path d="M1285 86 c-12 -9 -9 -11 20 -13 19 -1 33 2 30 7 -3 4 1 10 7 13 7 2
1 4 -14 4 -15 0 -34 -5 -43 -11z"/>
<path d="M1253 53 c-18 -2 -33 -9 -33 -15 0 -5 7 -7 16 -4 9 3 27 6 40 6 13 0
24 5 24 10 0 6 -3 9 -7 8 -5 0 -23 -3 -40 -5z"/>
<path d="M5092 1701 c-7 -19 -10 -36 -7 -39 6 -7 26 49 22 62 -2 6 -9 -5 -15
-23z"/>
<path d="M5110 1616 c0 -8 -3 -21 -6 -30 -3 -9 -2 -16 4 -16 13 0 22 49 11 56
-5 3 -9 -1 -9 -10z"/>
<path d="M5456 1478 c-20 -73 -45 -164 -56 -201 l-19 -68 35 -15 c37 -16 54
-12 54 12 0 8 10 19 23 24 12 5 16 9 10 9 -7 1 -13 8 -13 17 0 10 6 14 14 11
39 -15 86 -19 86 -7 0 7 -7 10 -15 7 -8 -4 -17 -2 -20 3 -3 4 -1 10 5 12 18 6
-1 76 -22 81 -14 4 -19 12 -16 29 2 18 8 22 30 20 21 -3 26 1 24 15 -2 10 2
22 8 26 6 4 -1 5 -16 1 -32 -7 -33 -5 -13 60 8 27 15 55 15 62 0 10 -48 34
-70 34 -4 0 -23 -60 -44 -132z m81 -175 c-3 -10 -5 -2 -5 17 0 19 2 27 5 18 2
-10 2 -26 0 -35z"/>
<path d="M5642 1488 c-6 -16 -19 -28 -27 -28 -31 0 -5 -17 35 -24 22 -3 40
-11 40 -17 0 -5 -5 -7 -11 -3 -20 12 -29 -19 -12 -38 21 -24 30 -23 36 5 3 12
9 32 12 45 6 16 3 22 -9 22 -9 0 -16 4 -16 10 0 5 -6 7 -14 4 -10 -4 -16 3
-18 23 l-4 28 -12 -27z"/>
<path d="M5020 1420 c0 -5 5 -10 11 -10 5 0 7 5 4 10 -3 6 -8 10 -11 10 -2 0
-4 -4 -4 -10z"/>
<path d="M5000 1374 c-15 -38 -12 -54 10 -54 11 0 20 6 20 13 0 6 3 22 6 33 9
33 -24 40 -36 8z"/>
<path d="M6215 1450 c-3 -5 1 -10 9 -10 9 0 16 5 16 10 0 6 -4 10 -9 10 -6 0
-13 -4 -16 -10z"/>
<path d="M6320 1420 c0 -5 5 -10 10 -10 6 0 10 5 10 10 0 6 -4 10 -10 10 -5 0
-10 -4 -10 -10z"/>
<path d="M798 363 c7 -3 16 -2 19 1 4 3 -2 6 -13 5 -11 0 -14 -3 -6 -6z"/>
<path d="M6506 392 c-3 -5 -9 -35 -12 -67 -6 -47 -4 -57 7 -53 17 6 35 106 21
120 -6 6 -12 6 -16 0z"/>
<path d="M6546 214 c-13 -35 -19 -124 -7 -124 6 0 11 5 11 10 0 7 6 7 19 0 31
-16 34 -12 12 16 -12 15 -21 31 -21 35 0 15 22 10 37 -8 12 -17 13 -16 11 7
-2 17 -8 24 -20 22 -13 -2 -18 4 -18 22 0 30 -15 42 -24 20z"/>
<path d="M3877 3875 l6 -84 -39 6 c-21 3 -44 12 -50 19 -15 19 -104 18 -178
-1 -32 -9 -70 -14 -83 -13 -21 3 -27 -3 -36 -32 -9 -27 -19 -36 -42 -41 -16
-4 -22 -7 -12 -8 22 -1 18 -20 -6 -35 -13 -8 -20 -8 -26 2 -5 9 -11 5 -20 -15
-9 -19 -9 -29 -2 -31 16 -5 13 -29 -5 -36 -22 -8 -26 -8 -19 4 3 6 1 10 -5 10
-6 0 -8 -10 -4 -25 5 -19 2 -25 -11 -25 -13 0 -16 -5 -11 -22 4 -13 11 -49 15
-80 5 -37 15 -66 28 -80 12 -13 27 -45 33 -73 9 -36 22 -59 47 -82 22 -20 33
-38 30 -47 -6 -14 11 -70 66 -217 43 -116 51 -126 106 -139 27 -6 57 -20 67
-31 16 -18 18 -16 39 45 26 74 50 113 60 97 11 -19 25 -12 25 12 0 13 5 28 12
35 9 9 9 12 -3 12 -14 1 -6 8 45 45 14 11 20 28 22 67 1 29 9 67 18 83 12 23
16 60 16 156 l0 127 34 26 c19 14 40 26 46 26 7 0 10 7 7 15 -4 8 -2 17 3 20
6 4 10 20 10 37 0 23 -4 29 -16 24 -9 -3 -30 6 -50 22 l-34 27 0 143 0 142
-45 0 -44 0 6 -85z"/>
<path d="M4956 3914 c-3 -26 -6 -111 -6 -189 0 -78 -3 -243 -7 -366 l-6 -225
-126 -13 c-69 -7 -249 -15 -398 -18 -150 -3 -273 -9 -273 -12 0 -4 12 -21 28
-38 l27 -31 275 6 c151 4 318 7 370 7 l95 0 3 -112 3 -113 39 0 40 0 0 114 0
115 53 5 c28 3 160 8 293 12 194 5 242 3 250 -8 6 -7 18 -57 28 -110 9 -53 23
-115 31 -137 8 -22 11 -42 7 -45 -36 -22 -259 -35 -246 -14 5 8 -15 10 -79 5
-48 -3 -89 -2 -92 3 -6 9 -92 6 -240 -9 -55 -6 -169 -11 -252 -11 -95 0 -153
-4 -153 -10 0 -6 -50 -10 -130 -10 -73 0 -130 -4 -130 -9 0 -5 10 -22 23 -38
36 -46 51 -76 56 -118 l6 -40 209 -3 c147 -2 214 -6 224 -15 9 -7 48 -13 91
-14 42 -1 79 -2 84 -2 4 -1 13 -12 19 -26 6 -14 16 -25 23 -25 6 0 77 18 158
40 80 22 157 40 171 40 15 0 106 -26 204 -59 442 -147 953 -311 1012 -326 36
-9 83 -25 106 -36 22 -10 46 -19 53 -19 29 0 0 -27 -64 -62 l-69 -36 74 -22
c41 -12 107 -32 145 -45 39 -13 114 -38 168 -55 l98 -32 34 27 c23 17 35 34
35 51 0 13 6 24 13 24 6 0 66 -18 131 -40 66 -22 123 -40 128 -40 4 0 -1 15
-12 33 -27 44 -25 62 11 97 35 33 25 39 -22 15 -32 -17 -31 -17 -43 37 -7 29
14 58 42 58 20 1 36 21 82 104 18 33 41 69 52 80 25 28 19 58 -14 67 -14 4
-47 21 -71 38 -25 17 -52 31 -59 31 -7 0 1 -9 17 -19 17 -11 50 -38 75 -60 44
-38 44 -40 26 -59 -10 -12 -24 -18 -32 -15 -17 6 -19 -13 -3 -23 8 -5 7 -9 -4
-15 -24 -14 -116 34 -174 93 -29 28 -53 55 -53 59 0 4 11 20 25 35 17 19 22
31 16 43 -5 9 -7 33 -5 54 3 21 0 45 -5 55 -8 13 -11 7 -12 -28 -1 -25 -1 -54
0 -65 1 -11 -9 -38 -22 -60 -21 -38 -25 -40 -107 -57 -75 -15 -131 -24 -274
-45 -35 -5 -39 -4 -32 12 6 18 6 18 -11 3 -19 -18 -75 -33 -158 -43 -27 -3
-64 -13 -82 -22 -27 -14 -34 -15 -48 -3 -26 22 -70 113 -56 118 9 3 8 9 -4 22
-14 16 -13 21 10 61 31 55 31 68 0 101 -29 32 -63 43 -104 35 -29 -6 -29 -6
-26 41 2 30 14 67 34 102 17 30 31 59 31 63 0 5 -30 6 -67 2 -38 -3 -98 -7
-134 -10 l-66 -4 23 57 c13 31 26 87 30 124 4 37 10 65 14 63 4 -3 10 2 14 10
3 9 19 15 38 15 31 1 32 1 14 15 -23 18 -24 17 41 45 46 19 78 50 53 50 -6 0
-10 7 -10 14 0 12 -11 14 -55 10 -34 -4 -55 -2 -55 4 0 6 6 13 13 15 9 4 9 6
0 6 -7 1 -24 12 -39 26 -15 14 -33 25 -40 25 -8 0 -14 5 -14 10 0 10 -16 12
-105 11 -39 0 -53 -5 -67 -23 -30 -39 -40 -7 -33 107 3 55 8 216 12 358 l6
257 -46 0 -46 0 -5 -337 c-2 -186 -5 -346 -7 -355 -2 -10 -9 -18 -15 -18 -7 0
-15 -6 -18 -12 -3 -9 -11 -6 -24 10 -11 12 -24 22 -28 22 -4 0 -3 -5 4 -12 21
-21 13 -25 -48 -26 -33 0 -60 4 -60 9 0 5 -9 9 -21 9 -11 0 -29 5 -39 10 -12
6 -21 7 -25 0 -3 -5 -11 -7 -18 -5 -7 3 -19 0 -27 -5 -13 -9 -13 -12 3 -21 23
-14 11 -32 -16 -23 -21 6 -21 5 -5 -12 14 -14 22 -16 42 -6 23 10 36 7 36 -9
0 -4 -10 -5 -22 -1 -14 3 -19 2 -14 -6 4 -7 6 -13 4 -13 -12 -5 -341 -21 -468
-22 l-155 -2 -8 210 c-4 116 -6 301 -5 413 l3 202 -31 0 c-30 0 -32 -2 -38
-46z m1341 -1379 c7 -20 0 -27 -31 -29 -23 -1 -39 -16 -17 -16 5 0 12 -7 15
-16 4 -12 0 -15 -17 -12 -23 3 -25 17 -7 64 11 27 47 33 57 9z m212 -284 c12
-16 35 -32 51 -36 39 -9 38 -18 -5 -41 -35 -18 -35 -18 -57 4 -16 16 -23 34
-23 62 0 48 7 50 34 11z m246 -30 c3 -5 1 -12 -5 -16 -5 -3 -10 1 -10 9 0 18
6 21 15 7z m61 -17 c-4 -12 -2 -15 9 -11 26 11 27 -13 1 -25 -25 -11 -30 -19
-27 -46 2 -8 -5 -12 -16 -10 -10 2 -17 9 -16 16 2 6 -3 9 -11 6 -20 -8 -30 14
-16 31 7 8 9 15 4 16 -5 1 2 4 16 8 14 4 24 13 23 19 -2 7 6 12 18 12 15 0 19
-4 15 -16z"/>
<path d="M10590 3949 c0 -5 5 -7 10 -4 6 3 10 8 10 11 0 2 -4 4 -10 4 -5 0
-10 -5 -10 -11z"/>
<path d="M11004 3934 c-3 -16 -13 -39 -20 -51 -11 -18 -12 -23 -2 -23 18 0 51
81 39 93 -6 6 -12 -1 -17 -19z"/>
<path d="M6950 3930 c-14 -5 -37 -11 -51 -14 -49 -11 -79 -48 -93 -114 -12
-59 -12 -61 11 -71 21 -10 22 -13 11 -38 -22 -49 -77 -85 -78 -50 0 6 -5 4
-11 -6 -19 -32 -7 -52 30 -52 48 0 48 -17 1 -38 -37 -16 -40 -19 -29 -40 7
-12 16 -25 21 -28 4 -3 3 -32 -4 -64 -9 -45 -9 -60 0 -63 7 -2 12 -8 12 -13 0
-5 16 -31 35 -58 19 -26 35 -60 35 -74 0 -38 10 -57 30 -57 18 0 43 -24 53
-51 3 -9 26 -26 51 -39 l46 -22 58 24 c90 36 242 210 242 276 0 11 -10 32 -22
48 -21 25 -23 40 -24 139 -1 120 -18 199 -57 256 -20 30 -119 107 -140 108 -4
1 -20 10 -35 20 -35 25 -61 31 -92 21z m-70 -510 c0 -5 -7 -10 -15 -10 -8 0
-15 5 -15 10 0 6 7 10 15 10 8 0 15 -4 15 -10z"/>
<path d="M10875 3902 c3 -3 0 -11 -6 -18 -6 -7 -13 -40 -16 -74 l-6 -60 61 0
c42 0 61 -4 65 -14 4 -11 14 -12 41 -6 19 4 37 5 40 2 4 -3 6 0 6 6 0 7 -15
12 -35 12 -22 0 -38 6 -41 15 -4 10 -20 15 -50 15 -32 0 -46 5 -53 19 -14 26
4 76 32 88 21 9 20 10 -10 15 -18 2 -31 2 -28 0z"/>
<path d="M10393 3873 c15 -3 25 -9 21 -15 -4 -6 1 -8 11 -6 10 1 20 9 23 16 2
8 -9 12 -40 11 -30 -2 -35 -3 -15 -6z"/>
<path d="M10090 3850 c0 -5 9 -10 21 -10 11 0 17 5 14 10 -3 6 -13 10 -21 10
-8 0 -14 -4 -14 -10z"/>
<path d="M9940 3771 c0 -6 5 -13 10 -16 6 -3 10 -2 10 4 0 6 7 8 15 5 8 -4 15
-1 15 5 0 6 -11 11 -25 11 -14 0 -25 -4 -25 -9z"/>
<path d="M10005 3691 c-3 -5 -1 -12 5 -16 5 -3 10 1 10 9 0 18 -6 21 -15 7z"/>
<path d="M10788 3683 c-9 -2 -15 -10 -12 -18 7 -16 44 -7 44 11 0 14 -3 15
-32 7z"/>
<path d="M10210 3601 l-55 -6 42 -9 c47 -8 106 0 97 15 -3 5 -11 8 -17 7 -7
-1 -37 -4 -67 -7z"/>
<path d="M10339 3566 c16 -19 55 -22 49 -3 -3 6 -17 14 -33 15 -25 3 -27 2
-16 -12z"/>
<path d="M10645 3570 c-4 -6 7 -10 25 -10 18 0 29 4 25 10 -3 6 -15 10 -25 10
-10 0 -22 -4 -25 -10z"/>
<path d="M10710 3569 c0 -5 5 -7 10 -4 6 3 10 8 10 11 0 2 -4 4 -10 4 -5 0
-10 -5 -10 -11z"/>
<path d="M10584 3498 c-16 -18 -20 -25 -8 -15 11 9 23 15 26 12 3 -3 8 3 11
15 7 26 6 26 -29 -12z"/>
<path d="M10910 3520 c0 -6 31 -10 73 -10 50 0 67 3 57 10 -20 13 -130 13
-130 0z"/>
<path d="M10536 3445 c-10 -7 -16 -19 -14 -26 2 -7 11 0 21 15 20 30 19 31 -7
11z"/>
<path d="M10710 3445 c0 -11 11 -15 40 -15 23 0 52 -7 65 -16 19 -12 37 -14
75 -9 27 4 50 11 50 16 0 10 -7 11 -79 9 -30 -1 -57 3 -60 8 -3 5 -25 12 -48
16 -35 5 -43 3 -43 -9z"/>
<path d="M10005 3440 c3 -5 13 -10 21 -10 8 0 14 5 14 10 0 6 -9 10 -21 10
-11 0 -17 -4 -14 -10z"/>
<path d="M10081 3394 c0 -11 3 -14 6 -6 3 7 2 16 -1 19 -3 4 -6 -2 -5 -13z"/>
<path d="M10974 3396 c32 -18 74 -21 96 -6 12 7 8 10 -15 10 -16 0 -48 3 -70
6 l-40 6 29 -16z"/>
<path d="M10520 3348 c0 -4 14 -8 30 -8 17 0 30 2 30 4 0 2 -13 6 -30 8 -16 3
-30 1 -30 -4z"/>
<path d="M10650 3320 c135 -43 136 -44 95 -103 -27 -41 -26 -43 30 -52 l40 -6
-28 16 c-28 16 -34 53 -9 48 7 -2 12 8 12 23 0 28 5 28 100 7 19 -4 22 -3 14
6 -6 7 -30 15 -53 18 -44 6 -47 11 -30 46 10 22 10 22 -6 2 -16 -20 -75 -30
-75 -13 0 6 -7 8 -15 4 -8 -3 -15 -1 -15 4 0 5 -8 8 -17 8 -10 -1 -38 2 -63 5
-39 6 -37 5 20 -13z"/>
<path d="M9960 3300 c-17 -13 -20 -20 -10 -20 8 0 26 -3 40 -6 24 -5 24 -5 6
10 -10 8 -15 19 -11 25 9 15 4 13 -25 -9z"/>
<path d="M10328 3313 c7 -3 16 -2 19 1 4 3 -2 6 -13 5 -11 0 -14 -3 -6 -6z"/>
<path d="M10925 3252 c-2 -2 -1 -10 1 -16 6 -17 -24 -106 -44 -131 -12 -14
-10 -14 10 3 14 13 29 40 33 60 6 34 28 59 65 73 9 4 0 8 -23 11 -21 2 -39 2
-42 0z"/>
<path d="M10577 3180 l6 -40 -47 6 c-28 4 -46 3 -46 -3 0 -6 10 -10 23 -9 40
1 176 -35 174 -47 -1 -7 13 -13 33 -15 60 -5 64 -9 46 -37 -9 -14 -14 -30 -11
-34 3 -5 -2 -16 -11 -25 -14 -14 -13 -16 10 -14 22 2 26 8 31 50 6 41 10 48
30 48 12 0 28 7 35 15 11 14 10 14 -11 7 -13 -5 -46 -6 -74 -2 -27 4 -57 5
-65 3 -13 -4 -13 -4 0 6 17 11 15 12 -56 31 -40 10 -42 13 -48 55 -4 25 -11
45 -16 45 -4 0 -6 -18 -3 -40z"/>
<path d="M10302 3185 c0 -16 2 -22 5 -12 2 9 2 23 0 30 -3 6 -5 -1 -5 -18z"/>
<path d="M6607 3170 c-14 -11 -28 -20 -32 -20 -3 0 -16 -10 -29 -23 -19 -19
-23 -35 -25 -95 -1 -40 0 -72 2 -72 2 0 19 38 36 84 18 46 39 90 47 97 15 13
38 49 31 49 -3 0 -16 -9 -30 -20z"/>
<path d="M7186 3116 c-23 -36 -20 -44 5 -12 12 15 19 29 16 32 -2 2 -12 -7
-21 -20z"/>
<path d="M10310 3096 c0 -14 4 -27 8 -30 5 -3 6 8 4 25 -5 35 -12 38 -12 5z"/>
<path d="M7066 3031 c-4 -5 3 -7 14 -4 23 6 26 13 6 13 -8 0 -17 -4 -20 -9z"/>
<path d="M10566 2991 c-4 -5 -2 -12 3 -15 5 -4 12 -2 15 3 4 5 2 12 -3 15 -5
4 -12 2 -15 -3z"/>
<path d="M10668 2963 c7 -3 16 -2 19 1 4 3 -2 6 -13 5 -11 0 -14 -3 -6 -6z"/>
<path d="M3422 2940 c0 -14 2 -19 5 -12 2 6 2 18 0 25 -3 6 -5 1 -5 -13z"/>
<path d="M10210 2904 c0 -40 -2 -45 -17 -39 -41 16 -46 15 -13 -4 19 -11 44
-20 55 -19 17 0 17 1 3 5 -21 5 -25 72 -6 91 9 9 8 12 -5 12 -14 0 -17 -9 -17
-46z"/>
<path d="M10000 2919 c0 -5 5 -7 10 -4 6 3 10 8 10 11 0 2 -4 4 -10 4 -5 0
-10 -5 -10 -11z"/>
<path d="M10461 2901 c-17 -11 2 -51 24 -51 19 0 19 14 0 30 -8 7 -12 16 -9
21 7 11 3 11 -15 0z"/>
<path d="M3810 2889 c0 -5 5 -7 10 -4 6 3 10 8 10 11 0 2 -4 4 -10 4 -5 0 -10
-5 -10 -11z"/>
<path d="M10075 2890 c3 -5 13 -10 21 -10 8 0 12 5 9 10 -3 6 -13 10 -21 10
-8 0 -12 -4 -9 -10z"/>
<path d="M10377 2880 c-9 -11 -17 -27 -17 -34 0 -24 12 -46 21 -40 5 3 4 14
-2 26 -10 18 -8 25 10 39 11 9 21 20 21 23 0 12 -16 5 -33 -14z"/>
<path d="M3495 2870 c-17 -7 -16 -9 10 -9 21 -1 26 -4 18 -12 -6 -6 -9 -19 -6
-29 4 -16 8 -16 31 -4 19 10 28 10 33 2 10 -15 41 -20 32 -5 -36 64 -66 78
-118 57z"/>
<path d="M3796 2853 c-6 -14 -5 -15 5 -6 7 7 10 15 7 18 -3 3 -9 -2 -12 -12z"/>
<path d="M9823 2860 c-28 -11 -30 -20 -4 -20 10 0 21 7 25 15 3 8 4 15 3 14
-1 0 -12 -4 -24 -9z"/>
<path d="M10272 2830 c7 -11 23 -20 35 -20 31 0 29 6 -9 24 -40 20 -41 20 -26
-4z"/>
<path d="M10535 2840 c3 -5 16 -10 28 -10 18 0 19 2 7 10 -20 13 -43 13 -35 0z"/>
<path d="M7386 2814 c-4 -9 -4 -19 -1 -22 2 -3 7 3 11 12 4 9 4 19 1 22 -2 3
-7 -3 -11 -12z"/>
<path d="M3108 2790 c18 -17 37 -30 44 -30 6 0 -5 13 -23 30 -19 16 -38 30
-44 30 -5 -1 5 -14 23 -30z"/>
<path d="M3362 2789 c6 -16 12 -28 14 -26 5 5 -13 57 -20 57 -3 0 0 -14 6 -31z"/>
<path d="M10664 2801 c4 -5 -2 -23 -11 -39 -19 -33 -11 -52 31 -74 20 -10 19
-9 -1 11 -27 26 -28 39 -7 69 15 22 12 42 -7 42 -6 0 -8 -4 -5 -9z"/>
<path d="M8820 2790 c0 -5 7 -10 16 -10 8 0 12 5 9 10 -3 6 -10 10 -16 10 -5
0 -9 -4 -9 -10z"/>
<path d="M8796 2771 c-4 -5 -2 -12 3 -15 5 -4 12 -2 15 3 4 5 2 12 -3 15 -5 4
-12 2 -15 -3z"/>
<path d="M3826 2723 c-3 -21 -6 -54 -6 -73 1 -54 17 -15 22 53 5 64 -6 78 -16
20z"/>
<path d="M3731 2714 c0 -11 3 -14 6 -6 3 7 2 16 -1 19 -3 4 -6 -2 -5 -13z"/>
<path d="M10254 2714 c-18 -14 -18 -15 4 -4 12 6 22 13 22 15 0 8 -5 6 -26
-11z"/>
<path d="M10534 2721 c3 -5 2 -39 -3 -76 -6 -52 -5 -64 4 -52 7 11 16 13 26 6
26 -17 40 -10 19 11 -22 22 -34 62 -27 90 3 11 -1 21 -10 24 -8 3 -12 2 -9 -3z"/>
<path d="M10965 2720 c-12 -4 -27 -16 -35 -26 -12 -16 -12 -17 0 -6 9 7 42 12
90 11 51 0 69 -3 55 -9 -19 -8 -19 -9 3 -9 39 -2 23 24 -23 37 -52 14 -62 14
-90 2z"/>
<path d="M3588 2713 c-3 -4 8 -39 23 -78 32 -78 37 -72 13 13 -17 59 -28 80
-36 65z"/>
<path d="M7352 2685 c0 -16 2 -22 5 -12 2 9 2 23 0 30 -3 6 -5 -1 -5 -18z"/>
<path d="M8730 2685 c0 -8 2 -15 4 -15 2 0 6 7 10 15 3 8 1 15 -4 15 -6 0 -10
-7 -10 -15z"/>
<path d="M10189 2669 c-26 -26 -37 -30 -63 -25 -22 4 -27 3 -16 -4 8 -5 23
-10 33 -10 9 0 17 -5 17 -11 0 -6 9 -4 21 5 19 13 24 13 36 0 8 -8 20 -14 26
-14 7 1 0 11 -15 23 -33 27 -34 35 -10 53 9 7 14 14 10 14 -4 0 -22 -14 -39
-31z"/>
<path d="M3721 2674 c0 -11 3 -14 6 -6 3 7 2 16 -1 19 -3 4 -6 -2 -5 -13z"/>
<path d="M7375 2658 l-16 -33 20 25 c20 24 26 40 16 40 -2 0 -12 -15 -20 -32z"/>
<path d="M7749 2671 c-13 -11 -19 -20 -14 -20 14 0 50 28 43 34 -3 3 -16 -3
-29 -14z"/>
<path d="M7930 2680 c0 -5 5 -10 11 -10 5 0 7 5 4 10 -3 6 -8 10 -11 10 -2 0
-4 -4 -4 -10z"/>
<path d="M8770 2676 c0 -2 7 -6 15 -10 8 -3 15 -1 15 4 0 6 -7 10 -15 10 -8 0
-15 -2 -15 -4z"/>
<path d="M3080 2662 c0 -12 19 -26 26 -19 2 2 -2 10 -11 17 -9 8 -15 8 -15 2z"/>
<path d="M3385 2628 c4 -18 10 -67 14 -108 6 -65 25 -129 36 -118 2 2 0 21 -5
43 -5 22 -10 59 -10 83 0 55 -19 132 -32 132 -7 0 -8 -12 -3 -32z"/>
<path d="M10765 2620 c-21 -22 -36 -42 -33 -46 8 -7 38 21 61 59 23 37 18 34
-28 -13z"/>
<path d="M7900 2640 c-12 -8 -11 -10 8 -10 12 0 22 5 22 10 0 13 -11 13 -30 0z"/>
<path d="M8680 2639 c0 -5 5 -7 10 -4 6 3 10 8 10 11 0 2 -4 4 -10 4 -5 0 -10
-5 -10 -11z"/>
<path d="M8031 2626 c-8 -10 -9 -16 -1 -21 5 -3 13 1 16 10 9 22 -1 29 -15 11z"/>
<path d="M8635 2619 c-4 -6 -5 -12 -2 -15 7 -7 37 7 37 17 0 13 -27 11 -35 -2z"/>
<path d="M7880 2611 c0 -5 7 -11 14 -14 10 -4 13 -1 9 9 -6 15 -23 19 -23 5z"/>
<path d="M8868 2603 c7 -3 16 -2 19 1 4 3 -2 6 -13 5 -11 0 -14 -3 -6 -6z"/>
<path d="M3796 2585 c4 -8 15 -15 25 -15 10 0 19 7 19 15 0 9 -9 15 -25 15
-18 0 -23 -4 -19 -15z"/>
<path d="M7758 2567 c-54 -49 -85 -137 -48 -137 10 0 94 160 87 166 -2 2 -20
-11 -39 -29z"/>
<path d="M8752 2589 c2 -6 8 -10 13 -10 5 0 11 4 13 10 2 6 -4 11 -13 11 -9 0
-15 -5 -13 -11z"/>
<path d="M10274 2591 c3 -4 -3 -16 -14 -26 -11 -10 -20 -22 -20 -27 0 -4 13 6
28 23 l28 31 50 -24 c27 -14 70 -28 95 -32 39 -6 48 -4 64 16 11 13 13 17 5
11 -22 -20 -85 -15 -146 12 -56 25 -100 33 -90 16z"/>
<path d="M8965 2580 c3 -5 8 -10 11 -10 2 0 4 5 4 10 0 6 -5 10 -11 10 -5 0
-7 -4 -4 -10z"/>
<path d="M6630 2560 c-14 -11 -20 -20 -14 -20 6 0 19 9 29 20 23 25 17 25 -15
0z"/>
<path d="M8545 2560 c-10 -11 -15 -23 -12 -27 4 -3 -5 -16 -18 -29 -14 -13
-24 -29 -23 -36 2 -9 -7 -12 -29 -10 -20 2 -33 -1 -33 -8 0 -6 10 -10 23 -8
16 2 22 -2 20 -15 -1 -12 4 -17 14 -13 8 3 17 6 19 6 2 0 4 13 4 29 0 31 49
100 50 71 0 -9 -5 -21 -12 -28 -6 -6 -9 -14 -6 -18 4 -3 13 7 21 22 13 25 13
30 0 40 -14 10 -14 12 1 17 10 4 15 3 11 -3 -3 -6 -1 -10 5 -10 14 0 9 32 -6
37 -6 2 -19 -6 -29 -17z"/>
<path d="M8620 2573 c0 -7 33 -32 43 -33 4 0 7 8 7 18 0 11 -8 17 -25 18 -14
1 -25 -1 -25 -3z"/>
<path d="M10945 2544 c-16 -18 -31 -37 -33 -43 -2 -6 -7 -9 -11 -7 -4 3 -8 -7
-9 -22 -2 -26 -1 -26 22 9 14 20 33 39 42 43 9 4 14 9 11 13 -4 3 -2 12 5 20
23 28 2 18 -27 -13z"/>
<path d="M3643 2563 c-21 -7 -15 -33 7 -33 11 0 20 6 20 14 0 18 -11 25 -27
19z"/>
<path d="M8795 2560 c-3 -5 -2 -10 4 -10 5 0 13 5 16 10 3 6 2 10 -4 10 -5 0
-13 -4 -16 -10z"/>
<path d="M9055 2550 c3 -5 8 -10 11 -10 2 0 4 5 4 10 0 6 -5 10 -11 10 -5 0
-7 -4 -4 -10z"/>
<path d="M7835 2540 c-3 -5 -1 -10 4 -10 6 0 11 5 11 10 0 6 -2 10 -4 10 -3 0
-8 -4 -11 -10z"/>
<path d="M3095 2530 c3 -5 8 -10 11 -10 2 0 4 5 4 10 0 6 -5 10 -11 10 -5 0
-7 -4 -4 -10z"/>
<path d="M4152 2524 c-13 -9 -29 -13 -37 -10 -8 3 -15 1 -15 -5 0 -5 11 -14
24 -19 30 -11 38 -24 46 -70 4 -28 10 -36 30 -39 24 -3 24 -2 7 16 -23 26 -22
32 8 43 36 14 32 33 -5 25 -27 -6 -30 -4 -30 19 0 14 -5 26 -12 26 -6 0 -3 7
8 15 26 20 4 19 -24 -1z"/>
<path d="M8610 2529 c0 -5 5 -7 10 -4 6 3 10 8 10 11 0 2 -4 4 -10 4 -5 0 -10
-5 -10 -11z"/>
<path d="M8720 2520 c0 -5 4 -10 9 -10 6 0 13 5 16 10 3 6 -1 10 -9 10 -9 0
-16 -4 -16 -10z"/>
<path d="M8840 2520 c0 -5 5 -10 10 -10 6 0 10 5 10 10 0 6 -4 10 -10 10 -5 0
-10 -4 -10 -10z"/>
<path d="M10130 2523 c0 -11 67 -40 107 -48 18 -4 35 -11 39 -16 7 -13 -16
-110 -25 -105 -4 3 -5 -12 -2 -32 4 -26 6 -31 9 -14 2 12 7 22 12 22 14 0 61
-22 102 -47 30 -18 37 -20 42 -8 3 9 0 15 -8 15 -7 0 -29 11 -49 24 -20 14
-46 26 -59 28 -19 2 -22 8 -20 31 2 16 7 39 12 52 l9 24 41 -20 c23 -11 49
-19 57 -17 17 3 0 13 -99 57 -27 11 -48 27 -48 36 0 8 -4 15 -10 15 -5 0 -10
-4 -10 -10 0 -5 -21 -3 -47 5 -57 17 -53 17 -53 8z"/>
<path d="M8556 2455 c-20 -35 -36 -66 -36 -70 0 -11 -37 -55 -42 -49 -3 2 -11
-2 -18 -11 -17 -20 0 -19 29 2 23 16 24 16 19 -9 -3 -18 1 -30 14 -39 12 -9
16 -20 12 -34 -6 -17 -5 -18 9 -7 20 17 18 53 -5 70 -10 7 -18 18 -18 23 0 6
7 3 16 -6 13 -12 19 -13 24 -4 4 6 12 9 18 5 17 -10 24 12 12 35 -11 19 -13
19 -29 5 -23 -21 -34 -9 -16 18 8 11 15 28 15 38 0 10 5 18 11 18 5 0 8 4 5 9
-3 5 5 20 18 34 18 19 20 27 10 31 -8 3 -26 -18 -48 -59z"/>
<path d="M10790 2516 c0 -2 7 -7 16 -10 8 -3 12 -2 9 4 -6 10 -25 14 -25 6z"/>
<path d="M8267 2503 c-4 -3 -7 -11 -7 -17 0 -6 5 -5 12 2 6 6 9 14 7 17 -3 3
-9 2 -12 -2z"/>
<path d="M8950 2500 c0 -5 5 -10 10 -10 6 0 10 5 10 10 0 6 -4 10 -10 10 -5 0
-10 -4 -10 -10z"/>
<path d="M8622 2488 c-7 -7 -12 -18 -12 -25 0 -19 27 -4 33 18 6 22 -3 25 -21
7z"/>
<path d="M10830 2496 c0 -2 7 -7 16 -10 8 -3 12 -2 9 4 -6 10 -25 14 -25 6z"/>
<path d="M9040 2470 c0 -5 5 -10 10 -10 6 0 10 5 10 10 0 6 -4 10 -10 10 -5 0
-10 -4 -10 -10z"/>
<path d="M4815 2460 c-8 -13 35 -13 55 0 11 7 7 10 -17 10 -17 0 -35 -4 -38
-10z"/>
<path d="M7141 2439 c-14 -15 -28 -20 -46 -16 -20 3 -43 -6 -92 -39 -72 -48
-70 -58 5 -20 26 14 64 28 85 31 21 3 47 15 58 26 10 10 30 19 44 19 14 0 25
5 25 10 0 19 -59 10 -79 -11z"/>
<path d="M10741 2441 c-8 -6 -9 -11 -3 -15 6 -3 14 -1 17 5 9 14 2 20 -14 10z"/>
<path d="M8590 2421 c-12 -24 -13 -34 -1 -27 9 6 22 46 15 46 -2 0 -8 -9 -14
-19z"/>
<path d="M8800 2430 c0 -5 7 -7 15 -4 8 4 15 8 15 10 0 2 -7 4 -15 4 -8 0 -15
-4 -15 -10z"/>
<path d="M7655 2418 c-38 -21 -77 -58 -61 -58 8 0 18 4 21 10 3 5 20 9 38 7
24 -1 32 3 35 17 5 26 -9 37 -33 24z"/>
<path d="M8610 2405 c0 -8 5 -15 11 -15 5 0 7 -6 3 -12 -5 -8 -1 -7 10 2 11 8
14 16 7 18 -6 2 -9 8 -5 13 3 5 -2 9 -10 9 -9 0 -16 -7 -16 -15z"/>
<path d="M8920 2409 c0 -5 5 -7 10 -4 6 3 10 8 10 11 0 2 -4 4 -10 4 -5 0 -10
-5 -10 -11z"/>
<path d="M9060 2400 c0 -5 5 -10 10 -10 6 0 10 5 10 10 0 6 -4 10 -10 10 -5 0
-10 -4 -10 -10z"/>
<path d="M9151 2394 c0 -11 3 -14 6 -6 3 7 2 16 -1 19 -3 4 -6 -2 -5 -13z"/>
<path d="M10440 2395 c9 -11 25 -15 45 -13 42 5 59 -13 37 -38 -16 -18 -16
-18 3 -2 11 8 27 17 35 20 19 6 -19 28 -58 34 -15 2 -38 7 -51 10 -22 5 -23 3
-11 -11z"/>
<path d="M8307 2379 c-23 -14 -50 -67 -44 -90 7 -27 -12 -24 -23 4 -7 17 -9
18 -9 5 -1 -12 -9 -18 -23 -18 -21 0 -20 -2 10 -21 17 -12 32 -25 32 -30 0 -4
7 -6 15 -3 8 4 12 11 8 17 -4 7 0 8 11 4 10 -4 22 -7 27 -7 5 0 8 -3 7 -7 -2
-5 1 -10 6 -13 4 -3 10 12 12 33 3 34 1 37 -21 37 -14 0 -25 3 -25 8 1 12 27
42 32 36 3 -2 8 7 10 21 6 30 -1 37 -25 24z"/>
<path d="M8450 2375 c0 -9 6 -12 15 -9 8 4 15 10 15 15 0 5 -7 9 -15 9 -8 0
-15 -7 -15 -15z"/>
<path d="M9010 2380 c0 -5 5 -10 10 -10 6 0 10 5 10 10 0 6 -4 10 -10 10 -5 0
-10 -4 -10 -10z"/>
<path d="M8400 2361 c-5 -11 -10 -28 -9 -38 0 -15 2 -15 9 3 5 12 13 25 19 29
6 3 11 10 11 16 0 16 -19 10 -30 -10z"/>
<path d="M9110 2359 c0 -5 5 -7 10 -4 6 3 10 8 10 11 0 2 -4 4 -10 4 -5 0 -10
-5 -10 -11z"/>
<path d="M7634 2346 c-10 -8 -15 -18 -11 -22 4 -4 15 0 24 9 22 21 12 31 -13
13z"/>
<path d="M9076 2343 c-6 -14 -5 -15 5 -6 7 7 10 15 7 18 -3 3 -9 -2 -12 -12z"/>
<path d="M8760 2339 c0 -5 5 -7 10 -4 6 3 10 8 10 11 0 2 -4 4 -10 4 -5 0 -10
-5 -10 -11z"/>
<path d="M8190 2315 c0 -8 5 -15 10 -15 6 0 10 7 10 15 0 8 -4 15 -10 15 -5 0
-10 -7 -10 -15z"/>
<path d="M8875 2320 c-3 -5 -2 -10 4 -10 5 0 13 5 16 10 3 6 2 10 -4 10 -5 0
-13 -4 -16 -10z"/>
<path d="M8133 2284 c-4 -10 -2 -19 5 -22 7 -2 12 -10 12 -18 0 -9 5 -12 11
-9 5 4 18 0 27 -7 30 -27 42 -30 42 -13 0 9 -13 21 -29 26 -18 7 -31 19 -33
31 -4 28 -26 35 -35 12z"/>
<path d="M8365 2280 c-4 -12 -5 -24 -2 -27 3 -2 8 5 12 17 4 12 5 24 2 27 -3
2 -8 -5 -12 -17z"/>
<path d="M8970 2284 c0 -8 5 -12 10 -9 6 4 8 11 5 16 -9 14 -15 11 -15 -7z"/>
<path d="M8497 2266 c-4 -10 -5 -21 -2 -24 9 -9 17 6 13 25 -3 17 -4 17 -11
-1z"/>
<path d="M9160 2264 c0 -8 5 -12 10 -9 6 3 10 10 10 16 0 5 -4 9 -10 9 -5 0
-10 -7 -10 -16z"/>
<path d="M10460 2270 c0 -6 -5 -8 -12 -4 -8 5 -9 2 -5 -10 4 -11 -2 -26 -18
-42 -29 -29 -41 -30 -57 -4 -7 11 -22 20 -33 20 -19 0 -19 -1 2 -15 17 -12 21
-23 17 -51 -4 -30 -2 -35 11 -30 10 4 14 2 9 -5 -4 -8 1 -9 16 -4 18 6 22 4
17 -8 -4 -11 -2 -14 9 -10 20 7 66 -6 59 -17 -3 -6 0 -10 8 -10 35 0 21 15
-43 46 -39 18 -70 36 -70 39 0 2 17 13 37 22 38 19 80 78 63 88 -6 4 -10 1
-10 -5z"/>
<path d="M10743 2228 c-15 -29 -32 -53 -38 -53 -5 0 -11 17 -13 38 -2 22 -8
37 -16 37 -22 0 -34 -22 -38 -70 -3 -40 0 -46 25 -58 27 -13 27 -13 10 -43
-19 -33 -31 -34 -88 -14 -47 17 -45 17 -45 8 0 -17 72 -53 105 -53 30 0 35 4
40 28 4 15 13 42 21 60 8 18 14 38 14 45 0 8 13 26 30 42 35 34 56 85 35 85
-8 0 -26 -24 -42 -52z m-67 -65 c-10 -10 -19 5 -10 18 6 11 8 11 12 0 2 -7 1
-15 -2 -18z"/>
<path d="M8610 2260 c0 -5 5 -10 10 -10 6 0 10 5 10 10 0 6 -4 10 -10 10 -5 0
-10 -4 -10 -10z"/>
<path d="M10420 2261 c0 -6 4 -13 10 -16 6 -3 7 1 4 9 -7 18 -14 21 -14 7z"/>
<path d="M7470 2240 c14 -11 31 -25 38 -31 7 -6 15 -9 18 -6 7 6 -55 57 -69
57 -7 -1 -1 -10 13 -20z"/>
<path d="M8092 2248 c6 -18 28 -21 28 -4 0 9 -7 16 -16 16 -9 0 -14 -5 -12
-12z"/>
<path d="M8720 2249 c0 -5 5 -7 10 -4 6 3 10 8 10 11 0 2 -4 4 -10 4 -5 0 -10
-5 -10 -11z"/>
<path d="M10560 2240 c0 -5 14 -10 31 -10 26 0 30 -3 24 -17 -5 -14 -3 -15 6
-6 19 19 3 43 -31 43 -16 0 -30 -4 -30 -10z"/>
<path d="M8446 2231 c-4 -7 -5 -15 -2 -18 9 -9 19 4 14 18 -4 11 -6 11 -12 0z"/>
<path d="M8830 2229 c0 -5 5 -7 10 -4 6 3 10 8 10 11 0 2 -4 4 -10 4 -5 0 -10
-5 -10 -11z"/>
<path d="M10186 2224 c-30 -29 -19 -33 14 -4 13 11 18 20 12 20 -6 0 -18 -7
-26 -16z"/>
<path d="M8473 2203 c-12 -16 -18 -32 -14 -38 12 -15 3 -58 -15 -68 -12 -7
-14 -18 -9 -43 3 -20 1 -43 -7 -56 -7 -13 -11 -27 -10 -31 1 -4 -5 -10 -13
-13 -16 -7 -21 -44 -5 -44 11 0 60 100 60 124 0 9 7 30 15 46 8 16 12 35 9 43
-3 9 3 16 17 20 15 4 20 11 15 23 -3 9 -1 23 5 30 12 15 4 34 -14 34 -7 0 -22
-13 -34 -27z m14 -45 c-3 -7 -5 -2 -5 12 0 14 2 19 5 13 2 -7 2 -19 0 -25z"/>
<path d="M8985 2220 c-3 -5 -1 -10 4 -10 6 0 11 5 11 10 0 6 -2 10 -4 10 -3 0
-8 -4 -11 -10z"/>
<path d="M8144 2211 c4 -5 0 -12 -6 -15 -10 -5 -10 -7 0 -12 6 -3 12 -15 12
-27 0 -19 2 -18 15 7 18 33 13 56 -10 56 -9 0 -14 -4 -11 -9z"/>
<path d="M9173 2203 c-4 -10 -11 -21 -17 -25 -6 -4 -1 -8 12 -8 17 0 22 6 22
25 0 29 -8 33 -17 8z"/>
<path d="M8259 2187 c-22 -21 -22 -22 -4 -26 11 -2 21 2 23 8 2 6 8 9 13 5 5
-3 9 2 9 10 0 25 -16 26 -41 3z"/>
<path d="M8930 2194 c0 -8 5 -12 10 -9 6 3 10 10 10 16 0 5 -4 9 -10 9 -5 0
-10 -7 -10 -16z"/>
<path d="M10502 2193 c6 -7 14 -13 18 -13 3 0 7 6 7 13 0 7 -8 13 -18 13 -13
0 -15 -3 -7 -13z"/>
<path d="M10590 2198 c0 -6 -3 -9 -6 -5 -9 9 -36 -21 -29 -33 3 -5 14 -10 23
-10 12 0 18 9 18 30 1 17 0 30 -2 30 -2 0 -4 -5 -4 -12z"/>
<path d="M9210 2185 c0 -8 5 -15 10 -15 6 0 10 7 10 15 0 8 -4 15 -10 15 -5 0
-10 -7 -10 -15z"/>
<path d="M9240 2181 c0 -11 5 -23 10 -26 6 -3 10 3 10 14 0 11 -4 23 -10 26
-5 3 -10 -3 -10 -14z"/>
<path d="M10245 2190 c3 -5 13 -10 21 -10 8 0 12 5 9 10 -3 6 -13 10 -21 10
-8 0 -12 -4 -9 -10z"/>
<path d="M10325 2189 c-4 -6 -13 -8 -21 -5 -8 3 -11 0 -7 -10 8 -22 42 -18 40
6 -1 23 -3 24 -12 9z"/>
<path d="M8090 2155 c0 -8 7 -15 15 -15 8 0 15 7 15 15 0 8 -7 15 -15 15 -8 0
-15 -7 -15 -15z"/>
<path d="M8680 2154 c0 -8 5 -12 10 -9 6 4 8 11 5 16 -9 14 -15 11 -15 -7z"/>
<path d="M9000 2155 c0 -8 2 -15 4 -15 2 0 6 7 10 15 3 8 1 15 -4 15 -6 0 -10
-7 -10 -15z"/>
<path d="M8190 2146 c0 -8 4 -17 9 -20 10 -7 23 19 14 28 -11 11 -23 6 -23 -8z"/>
<path d="M8257 2140 c-7 -3 -13 -14 -14 -25 -1 -11 0 -14 3 -7 8 17 25 15 18
-3 -4 -8 -1 -15 5 -15 6 0 11 9 11 21 0 16 4 19 20 14 13 -4 20 -2 20 7 0 13
-39 18 -63 8z"/>
<path d="M8796 2141 c-4 -7 -5 -15 -2 -18 9 -9 19 4 14 18 -4 11 -6 11 -12 0z"/>
<path d="M9050 2125 c0 -8 5 -15 10 -15 6 0 10 7 10 15 0 8 -4 15 -10 15 -5 0
-10 -7 -10 -15z"/>
<path d="M10130 2131 c0 -9 -11 -11 -40 -6 -51 9 -51 -1 1 -21 37 -16 40 -19
34 -48 -15 -71 -14 -78 3 -32 10 28 27 53 38 57 16 7 17 8 2 8 -10 1 -18 5
-18 11 0 5 -8 6 -17 3 -16 -6 -16 -5 -4 10 8 10 11 20 7 24 -3 3 -6 1 -6 -6z"/>
<path d="M8149 2128 c-4 -19 -9 -51 -6 -47 1 2 8 11 15 21 9 11 10 18 2 23 -5
3 -10 5 -11 3z"/>
<path d="M9237 2123 c-4 -3 -7 -11 -7 -17 0 -6 5 -5 12 2 6 6 9 14 7 17 -3 3
-9 2 -12 -2z"/>
<path d="M8890 2099 c0 -5 5 -7 10 -4 6 3 10 8 10 11 0 2 -4 4 -10 4 -5 0 -10
-5 -10 -11z"/>
<path d="M5605 2070 c3 -5 1 -10 -6 -10 -23 0 -4 -8 79 -33 l83 -26 -3 22 c-2
16 -16 25 -63 39 -67 20 -99 23 -90 8z"/>
<path d="M8087 2074 c-8 -8 1 -24 14 -24 5 0 9 7 9 15 0 15 -12 20 -23 9z"/>
<path d="M8540 2069 c0 -5 5 -7 10 -4 6 3 10 8 10 11 0 2 -4 4 -10 4 -5 0 -10
-5 -10 -11z"/>
<path d="M10208 2068 c17 -8 26 -8 34 0 9 9 4 12 -22 11 -33 0 -34 -1 -12 -11z"/>
<path d="M8640 2059 c0 -5 5 -7 10 -4 6 3 10 8 10 11 0 2 -4 4 -10 4 -5 0 -10
-5 -10 -11z"/>
<path d="M9240 2061 c0 -5 5 -13 10 -16 6 -3 10 -2 10 4 0 5 -4 13 -10 16 -5
3 -10 2 -10 -4z"/>
<path d="M10294 2045 c20 -14 40 -25 44 -25 4 0 29 -11 56 -25 27 -14 55 -25
63 -25 17 0 17 -1 -9 -49 -19 -35 -26 -41 -55 -41 -18 0 -33 5 -33 10 0 6 -4
10 -8 10 -22 0 -5 -30 19 -35 15 -4 30 -13 33 -21 3 -9 10 -13 15 -9 5 3 13 0
16 -6 4 -5 13 -8 21 -5 9 4 18 -3 24 -17 7 -17 9 -18 9 -4 1 16 4 16 41 -3 63
-32 92 -23 50 15 -11 10 -20 13 -20 7 0 -7 -5 -12 -11 -12 -5 0 -7 4 -4 10 3
5 0 7 -9 4 -8 -3 -19 3 -25 15 -6 11 -20 23 -31 26 -25 8 -25 31 0 73 20 32
21 32 50 17 16 -8 33 -21 37 -28 9 -15 83 -31 83 -17 0 4 -12 11 -26 14 -14 4
-37 19 -51 34 -15 15 -22 20 -18 12 8 -13 7 -13 -8 -1 -20 16 -23 41 -4 41 8
0 7 4 -3 10 -11 7 -19 5 -28 -7 -11 -15 -16 -16 -45 -4 -17 7 -60 19 -94 26
-34 8 -71 19 -82 24 -36 20 -34 11 3 -14z"/>
<path d="M8180 2050 c0 -5 5 -10 10 -10 6 0 10 5 10 10 0 6 -4 10 -10 10 -5 0
-10 -4 -10 -10z"/>
<path d="M8757 2043 c-4 -3 -7 -11 -7 -17 0 -6 5 -5 12 2 6 6 9 14 7 17 -3 3
-9 2 -12 -2z"/>
<path d="M9020 2025 c0 -8 2 -15 4 -15 2 0 6 7 10 15 3 8 1 15 -4 15 -6 0 -10
-7 -10 -15z"/>
<path d="M8400 2020 c0 -5 5 -10 10 -10 6 0 10 5 10 10 0 6 -4 10 -10 10 -5 0
-10 -4 -10 -10z"/>
<path d="M8855 2010 c-3 -5 -1 -10 4 -10 6 0 11 5 11 10 0 6 -2 10 -4 10 -3 0
-8 -4 -11 -10z"/>
<path d="M8987 2013 c-4 -3 -7 -11 -7 -17 0 -6 5 -5 12 2 6 6 9 14 7 17 -3 3
-9 2 -12 -2z"/>
<path d="M8122 1998 c6 -18 25 -20 31 -3 5 10 0 15 -14 15 -12 0 -19 -5 -17
-12z"/>
<path d="M8240 2002 c0 -4 -13 -13 -30 -20 -28 -13 -42 -42 -20 -42 6 0 10 7
10 15 0 8 6 15 13 15 13 0 16 -38 3 -58 -9 -15 1 -32 19 -32 18 0 27 28 16 49
-6 10 -6 23 0 32 12 19 11 49 -1 49 -5 0 -10 -3 -10 -8z"/>
<path d="M9172 1998 c6 -18 28 -21 28 -4 0 9 -7 16 -16 16 -9 0 -14 -5 -12
-12z"/>
<path d="M8360 1976 c0 -14 5 -26 10 -26 6 0 10 7 10 15 0 8 0 18 1 22 0 4 -4
9 -10 11 -6 2 -11 -8 -11 -22z"/>
<path d="M9230 1980 c0 -11 4 -20 9 -20 11 0 22 26 14 34 -12 12 -23 5 -23
-14z"/>
<path d="M8595 1969 c-10 -15 3 -25 16 -12 7 7 7 13 1 17 -6 3 -14 1 -17 -5z"/>
<path d="M9090 1951 c0 -12 6 -21 15 -21 8 0 15 4 15 9 0 5 -7 14 -15 21 -13
10 -15 9 -15 -9z"/>
<path d="M8325 1950 c-4 -6 -3 -16 3 -22 13 -13 23 4 13 21 -7 10 -10 10 -16
1z"/>
<path d="M4965 1919 c-22 -4 -80 -14 -130 -22 -49 -9 -117 -21 -150 -26 l-60
-10 60 4 c98 8 359 46 375 55 17 10 -29 9 -95 -1z"/>
<path d="M7540 1921 c0 -6 4 -13 10 -16 6 -3 7 1 4 9 -7 18 -14 21 -14 7z"/>
<path d="M8817 1913 c-4 -3 -7 -11 -7 -17 0 -6 5 -5 12 2 6 6 9 14 7 17 -3 3
-9 2 -12 -2z"/>
<path d="M9066 1895 c-9 -24 -8 -25 15 -25 14 0 19 5 17 17 -4 23 -24 27 -32
8z"/>
<path d="M7616 1878 c5 -8 0 -9 -15 -5 -22 5 -22 5 -5 -15 11 -11 27 -24 38
-30 15 -8 18 -7 13 5 -4 11 -2 14 8 11 9 -4 13 1 12 15 -1 13 -6 20 -14 17 -7
-3 -13 -1 -13 4 0 6 -7 10 -16 10 -9 0 -12 -5 -8 -12z"/>
<path d="M8895 1880 c-3 -5 -1 -10 4 -10 6 0 11 5 11 10 0 6 -2 10 -4 10 -3 0
-8 -4 -11 -10z"/>
<path d="M8560 1870 c0 -5 5 -10 10 -10 6 0 10 5 10 10 0 6 -4 10 -10 10 -5 0
-10 -4 -10 -10z"/>
<path d="M10558 1863 c7 -3 16 -2 19 1 4 3 -2 6 -13 5 -11 0 -14 -3 -6 -6z"/>
<path d="M4588 1853 c6 -2 18 -2 25 0 6 3 1 5 -13 5 -14 0 -19 -2 -12 -5z"/>
<path d="M8670 1844 c0 -8 5 -12 10 -9 6 4 8 11 5 16 -9 14 -15 11 -15 -7z"/>
<path d="M4400 1834 c-47 -8 -129 -16 -183 -19 -55 -2 -105 -9 -113 -16 -10
-8 -36 -9 -84 -5 -39 4 -70 5 -70 2 0 -2 5 -17 10 -31 9 -23 13 -25 26 -14 11
9 12 14 3 20 -6 4 10 4 37 2 27 -3 62 -15 77 -25 28 -20 48 -20 121 -2 21 5
40 1 72 -17 40 -21 47 -22 76 -10 62 25 87 25 141 -2 47 -24 56 -25 96 -15 43
11 45 10 70 -21 24 -28 31 -31 84 -31 54 0 77 13 40 23 -11 3 -7 5 10 6 15 1
27 -4 27 -11 1 -9 5 -7 13 3 8 11 22 15 44 12 38 -6 55 19 31 43 -20 20 -144
20 -191 0 -23 -9 -46 -12 -64 -7 -15 4 -48 4 -71 -1 -37 -7 -50 -4 -86 17 -51
30 -77 31 -131 6 -40 -18 -40 -18 -84 7 -40 23 -47 24 -87 14 -59 -16 -89 -15
-104 3 -14 17 -21 15 185 44 232 33 265 39 225 39 -19 0 -73 -6 -120 -14z"/>
<path d="M10126 1829 c-19 -19 -19 -19 0 -19 10 0 25 9 32 20 17 27 -5 27 -32
-1z"/>
<path d="M8420 1830 c0 -5 5 -10 10 -10 6 0 10 5 10 10 0 6 -4 10 -10 10 -5 0
-10 -4 -10 -10z"/>
<path d="M9361 1824 c0 -11 3 -14 6 -6 3 7 2 16 -1 19 -3 4 -6 -2 -5 -13z"/>
<path d="M8770 1809 c0 -5 5 -7 10 -4 6 3 10 8 10 11 0 2 -4 4 -10 4 -5 0 -10
-5 -10 -11z"/>
<path d="M8850 1780 c0 -5 5 -10 10 -10 6 0 10 5 10 10 0 6 -4 10 -10 10 -5 0
-10 -4 -10 -10z"/>
<path d="M9320 1769 c0 -5 5 -7 10 -4 6 3 10 8 10 11 0 2 -4 4 -10 4 -5 0 -10
-5 -10 -11z"/>
<path d="M8620 1754 c0 -8 5 -12 10 -9 6 3 10 10 10 16 0 5 -4 9 -10 9 -5 0
-10 -7 -10 -16z"/>
<path d="M9360 1760 c0 -5 5 -10 11 -10 5 0 7 5 4 10 -3 6 -8 10 -11 10 -2 0
-4 -4 -4 -10z"/>
<path d="M9106 1743 c-11 -11 -6 -23 9 -23 8 0 15 4 15 9 0 13 -16 22 -24 14z"/>
<path d="M7288 1733 c7 -3 16 -2 19 1 4 3 -2 6 -13 5 -11 0 -14 -3 -6 -6z"/>
<path d="M9200 1725 c7 -9 15 -13 17 -11 7 7 -7 26 -19 26 -6 0 -6 -6 2 -15z"/>
<path d="M9260 1720 c0 -5 5 -10 10 -10 6 0 10 5 10 10 0 6 -4 10 -10 10 -5 0
-10 -4 -10 -10z"/>
<path d="M8470 1709 c0 -5 5 -7 10 -4 6 3 10 8 10 11 0 2 -4 4 -10 4 -5 0 -10
-5 -10 -11z"/>
<path d="M8720 1709 c0 -5 5 -7 10 -4 6 3 10 8 10 11 0 2 -4 4 -10 4 -5 0 -10
-5 -10 -11z"/>
<path d="M9314 1709 c-3 -6 -1 -16 5 -22 8 -8 11 -5 11 11 0 24 -5 28 -16 11z"/>
<path d="M9437 1714 c-4 -4 -7 -16 -7 -26 0 -11 -4 -17 -9 -13 -17 10 -21 -11
-6 -31 13 -19 14 -19 20 1 4 11 11 28 17 39 10 19 -2 43 -15 30z"/>
<path d="M3736 1693 c-6 -14 -5 -15 5 -6 7 7 10 15 7 18 -3 3 -9 -2 -12 -12z"/>
<path d="M7385 1690 c-3 -5 -1 -10 5 -10 6 0 9 -4 6 -9 -3 -5 1 -12 10 -15 23
-9 25 -8 22 12 -5 28 -31 41 -43 22z"/>
<path d="M8332 1670 c0 -14 2 -19 5 -12 2 6 2 18 0 25 -3 6 -5 1 -5 -13z"/>
<path d="M8376 1675 c-3 -8 -1 -15 4 -15 6 0 10 7 10 15 0 8 -2 15 -4 15 -2 0
-6 -7 -10 -15z"/>
<path d="M8405 1680 c-3 -5 -1 -10 4 -10 6 0 11 5 11 10 0 6 -2 10 -4 10 -3 0
-8 -4 -11 -10z"/>
<path d="M8810 1679 c0 -5 5 -7 10 -4 6 3 10 8 10 11 0 2 -4 4 -10 4 -5 0 -10
-5 -10 -11z"/>
<path d="M8570 1660 c0 -5 5 -10 10 -10 6 0 10 5 10 10 0 6 -4 10 -10 10 -5 0
-10 -4 -10 -10z"/>
<path d="M9190 1660 c0 -5 5 -10 10 -10 6 0 10 5 10 10 0 6 -4 10 -10 10 -5 0
-10 -4 -10 -10z"/>
<path d="M8960 1646 c0 -9 5 -16 10 -16 6 0 10 4 10 9 0 6 -4 13 -10 16 -5 3
-10 -1 -10 -9z"/>
<path d="M9250 1645 c0 -8 5 -15 10 -15 6 0 10 7 10 15 0 8 -4 15 -10 15 -5 0
-10 -7 -10 -15z"/>
<path d="M8350 1644 c0 -13 18 -39 24 -34 2 3 -2 14 -10 24 -8 11 -14 16 -14
10z"/>
<path d="M9130 1635 c0 -9 5 -15 11 -13 6 2 11 8 11 13 0 5 -5 11 -11 13 -6 2
-11 -4 -11 -13z"/>
<path d="M9300 1636 c0 -8 5 -18 10 -21 6 -3 10 3 10 14 0 12 -4 21 -10 21 -5
0 -10 -6 -10 -14z"/>
<path d="M8426 1625 c-3 -8 -1 -15 4 -15 13 0 22 18 11 24 -5 3 -11 -1 -15 -9z"/>
<path d="M8676 1614 c-4 -10 -1 -14 6 -12 15 5 23 28 10 28 -5 0 -13 -7 -16
-16z"/>
<path d="M9197 1623 c-11 -10 -8 -43 3 -43 6 0 10 11 10 25 0 26 -2 29 -13 18z"/>
<path d="M8295 1610 c3 -5 8 -10 11 -10 2 0 4 5 4 10 0 6 -5 10 -11 10 -5 0
-7 -4 -4 -10z"/>
<path d="M8390 1601 c0 -6 4 -13 10 -16 6 -3 7 1 4 9 -7 18 -14 21 -14 7z"/>
<path d="M9030 1595 c0 -9 5 -15 11 -13 6 2 11 8 11 13 0 5 -5 11 -11 13 -6 2
-11 -4 -11 -13z"/>
<path d="M8316 1590 c-19 -6 -19 -7 -1 -13 20 -8 29 -4 24 11 -2 5 -13 6 -23
2z"/>
<path d="M8771 1584 c0 -11 3 -14 6 -6 3 7 2 16 -1 19 -3 4 -6 -2 -5 -13z"/>
<path d="M8375 1563 c2 -10 4 -22 4 -26 1 -5 5 -6 10 -3 5 4 12 0 14 -6 3 -7
6 -3 6 10 1 25 19 30 27 7 4 -8 10 -12 16 -9 17 11 -14 36 -39 29 -13 -3 -23
-1 -23 5 0 5 -4 10 -9 10 -5 0 -8 -8 -6 -17z"/>
<path d="M8520 1565 c0 -9 6 -12 15 -9 8 4 12 10 9 15 -8 14 -24 10 -24 -6z"/>
<path d="M8920 1565 c0 -8 7 -15 15 -15 8 0 15 7 15 15 0 8 -7 15 -15 15 -8 0
-15 -7 -15 -15z"/>
<path d="M8993 1553 c-16 -6 -17 -39 -3 -48 13 -8 40 13 40 30 0 15 -19 24
-37 18z"/>
<path d="M9050 1550 c0 -5 5 -10 11 -10 5 0 7 5 4 10 -3 6 -8 10 -11 10 -2 0
-4 -4 -4 -10z"/>
<path d="M9551 1544 c-7 -8 -10 -18 -7 -21 3 -4 6 -3 6 0 0 4 11 2 25 -3 28
-11 31 -4 11 23 -16 20 -17 21 -35 1z"/>
<path d="M9380 1530 c0 -5 5 -10 10 -10 6 0 10 5 10 10 0 6 -4 10 -10 10 -5 0
-10 -4 -10 -10z"/>
<path d="M3812 1519 c2 -7 10 -15 17 -17 8 -3 12 1 9 9 -2 7 -10 15 -17 17 -8
3 -12 -1 -9 -9z"/>
<path d="M8630 1519 c0 -5 5 -7 10 -4 6 3 10 8 10 11 0 2 -4 4 -10 4 -5 0 -10
-5 -10 -11z"/>
<path d="M8375 1500 c3 -5 8 -10 11 -10 2 0 4 5 4 10 0 6 -5 10 -11 10 -5 0
-7 -4 -4 -10z"/>
<path d="M9198 1483 c7 -3 16 -2 19 1 4 3 -2 6 -13 5 -11 0 -14 -3 -6 -6z"/>
<path d="M9330 1470 c0 -5 5 -10 11 -10 5 0 7 5 4 10 -3 6 -8 10 -11 10 -2 0
-4 -4 -4 -10z"/>
<path d="M4223 1433 c-35 -14 -63 -29 -63 -34 0 -18 65 -20 105 -3 22 9 51 21
65 26 20 8 22 11 10 17 -35 20 -59 18 -117 -6z"/>
<path d="M9543 1435 c-8 -22 6 -33 17 -15 13 20 12 30 0 30 -6 0 -13 -7 -17
-15z"/>
<path d="M9470 1424 c0 -16 23 -44 35 -44 20 0 19 20 -2 36 -19 14 -33 18 -33
8z"/>
<path d="M5971 1389 c-16 -13 -18 -19 -8 -19 15 0 43 27 36 34 -2 3 -15 -4
-28 -15z"/>
<path d="M3845 1379 c-5 -14 -1 -27 9 -37 15 -15 16 -14 16 15 0 38 -16 52
-25 22z"/>
<path d="M4391 1379 c-25 -11 -52 -21 -60 -22 -9 -1 -36 -14 -61 -28 -25 -14
-65 -33 -90 -43 -150 -59 -200 -85 -200 -101 0 -12 4 -14 19 -5 30 15 40 12
47 -15 6 -24 69 -73 80 -62 6 6 -13 25 -56 57 l-25 18 23 20 c12 11 71 41 130
67 59 27 130 61 158 76 29 15 55 25 58 22 3 -4 6 -1 6 6 0 7 5 9 10 6 6 -3 10
1 10 9 0 9 -1 16 -2 15 -2 0 -23 -9 -47 -20z"/>
<path d="M9097 1386 c-7 -17 22 -31 36 -17 5 5 6 14 3 20 -10 16 -33 14 -39
-3z"/>
<path d="M4491 1353 l-63 -26 23 -18 c13 -10 33 -19 45 -19 26 0 144 40 144
49 0 8 -65 41 -78 41 -4 -1 -36 -13 -71 -27z"/>
<path d="M9358 1363 c12 -2 30 -2 40 0 9 3 -1 5 -23 4 -22 0 -30 -2 -17 -4z"/>
<path d="M2 1313 c2 -26 7 -47 13 -45 5 2 13 -5 17 -15 4 -10 6 8 5 42 -2 49
-5 60 -20 63 -16 3 -18 -3 -15 -45z"/>
<path d="M3985 1330 c-3 -6 1 -7 9 -4 18 7 21 14 7 14 -6 0 -13 -4 -16 -10z"/>
<path d="M4650 1326 c0 -2 7 -6 15 -10 8 -3 15 -1 15 4 0 6 -7 10 -15 10 -8 0
-15 -2 -15 -4z"/>
<path d="M4355 1295 c-18 -9 -21 -13 -8 -9 12 3 32 0 44 -6 17 -10 20 -9 13 2
-4 8 0 7 12 -3 31 -27 62 -40 69 -30 7 12 -63 61 -85 61 -8 -1 -28 -7 -45 -15z"/>
<path d="M4040 1290 c0 -5 5 -10 10 -10 6 0 10 5 10 10 0 6 -4 10 -10 10 -5 0
-10 -4 -10 -10z"/>
<path d="M4860 1271 c-13 -25 -13 -34 0 -26 16 10 32 45 21 45 -6 0 -15 -9
-21 -19z"/>
<path d="M8125 1169 c-9 -14 -2 -20 14 -10 8 6 9 11 3 15 -6 3 -14 1 -17 -5z"/>
<path d="M0 1120 c0 -22 5 -40 10 -40 6 0 10 9 10 21 0 11 5 17 10 14 17 -10
11 4 -10 25 l-20 20 0 -40z"/>
<path d="M8071 1141 c-8 -6 -9 -11 -3 -15 6 -3 14 -1 17 5 9 14 2 20 -14 10z"/>
<path d="M0 1060 c0 -5 5 -10 10 -10 6 0 10 5 10 10 0 6 -4 10 -10 10 -5 0
-10 -4 -10 -10z"/>
<path d="M5986 995 c24 -39 24 -40 24 -28 0 6 -9 21 -21 34 l-20 24 17 -30z"/>
<path d="M6080 896 c0 -62 -2 -69 -30 -93 -42 -35 -42 -86 0 -108 39 -20 40
-20 33 23 l-6 37 22 -27 c11 -14 21 -33 21 -42 0 -9 5 -16 10 -16 18 0 10 55
-15 99 -21 36 -25 55 -23 112 1 38 -2 72 -5 76 -4 3 -7 -24 -7 -61z"/>
<path d="M0 652 c0 -161 3 -292 8 -292 8 0 7 569 -2 577 -3 4 -6 -125 -6 -285z"/>
<path d="M5905 920 c-3 -6 1 -7 9 -4 18 7 21 14 7 14 -6 0 -13 -4 -16 -10z"/>
<path d="M5823 873 c9 -2 23 -2 30 0 6 3 -1 5 -18 5 -16 0 -22 -2 -12 -5z"/>
<path d="M5870 870 c0 -5 5 -10 10 -10 6 0 10 5 10 10 0 6 -4 10 -10 10 -5 0
-10 -4 -10 -10z"/>
<path d="M6346 862 c-4 -4 -22 -7 -39 -7 -26 0 -31 -3 -29 -20 5 -28 9 -30 28
-14 10 8 25 13 34 11 10 -2 20 4 23 12 7 17 -6 30 -17 18z"/>
<path d="M6246 845 c-3 -8 -1 -15 4 -15 6 0 10 7 10 15 0 8 -2 15 -4 15 -2 0
-6 -7 -10 -15z"/>
<path d="M6170 820 c0 -5 5 -10 11 -10 5 0 7 5 4 10 -3 6 -8 10 -11 10 -2 0
-4 -4 -4 -10z"/>
<path d="M4118 793 c7 -3 16 -2 19 1 4 3 -2 6 -13 5 -11 0 -14 -3 -6 -6z"/>
<path d="M4360 755 c0 -2 45 -29 100 -60 72 -41 100 -62 100 -76 0 -16 8 -19
48 -20 27 -1 37 -4 22 -6 -43 -8 -55 -43 -15 -43 27 0 31 -10 14 -42 -6 -11
-8 -22 -6 -25 7 -6 91 43 107 62 16 19 30 19 30 0 0 -8 19 -23 43 -35 23 -11
54 -28 70 -38 24 -15 29 -15 37 -2 15 24 12 -5 -4 -36 -18 -34 -4 -73 19 -54
20 16 28 65 15 89 -8 15 -8 21 0 21 6 0 9 4 6 9 -4 5 0 12 6 14 10 4 10 6 1 6
-7 1 -18 -5 -25 -12 -10 -11 -52 6 -238 96 -246 119 -330 158 -330 152z m310
-179 c0 -2 -7 -6 -15 -10 -8 -3 -15 -1 -15 4 0 6 7 10 15 10 8 0 15 -2 15 -4z"/>
<path d="M5120 720 c0 -5 -6 -10 -14 -10 -8 0 -17 -7 -20 -16 -10 -27 2 -29
23 -3 20 23 26 39 16 39 -3 0 -5 -4 -5 -10z"/>
<path d="M6214 698 c-9 -14 7 -26 41 -30 24 -2 31 1 33 19 3 18 -2 21 -32 21
-20 0 -39 -4 -42 -10z"/>
<path d="M6306 684 c-11 -28 -6 -41 19 -52 34 -16 35 -15 35 8 0 11 5 20 10
20 6 0 10 7 10 16 0 13 -3 14 -14 5 -10 -9 -16 -8 -26 4 -16 19 -26 19 -34 -1z"/>
<path d="M6401 630 c-29 -91 -36 -101 -52 -66 -9 19 -17 25 -28 20 -9 -4 -29
-7 -44 -6 -21 1 -36 -7 -54 -28 -29 -35 -53 -39 -53 -10 0 11 -4 20 -10 20 -5
0 -9 -17 -8 -37 1 -21 -5 -76 -13 -123 -10 -57 -13 -118 -9 -185 l5 -100 6 80
c5 72 9 85 44 135 21 30 40 57 41 59 2 2 31 5 65 7 34 2 73 11 85 19 13 8 32
15 44 15 15 0 20 6 20 29 0 17 -6 31 -16 35 -13 5 -15 15 -11 41 3 20 2 33 -2
31 -4 -3 -2 18 6 47 22 85 9 99 -16 17z"/>
<path d="M5871 574 c0 -11 3 -14 6 -6 3 7 2 16 -1 19 -3 4 -6 -2 -5 -13z"/>
<path d="M5642 484 c10 -10 20 -15 24 -12 3 4 -5 12 -18 18 -22 12 -22 12 -6
-6z"/>
<path d="M5790 465 c-14 -8 -20 -14 -14 -15 5 0 19 7 30 15 24 18 16 19 -16 0z"/>
<path d="M5684 439 c-3 -6 -25 -23 -48 -38 -24 -14 -58 -44 -77 -66 l-34 -39
55 45 c30 24 72 55 93 67 20 13 35 28 31 33 -7 12 -11 11 -20 -2z"/>
<path d="M6420 403 c0 -5 5 -15 10 -23 8 -12 10 -11 10 8 0 12 -4 22 -10 22
-5 0 -10 -3 -10 -7z"/>
<path d="M5505 340 c-13 -6 -15 -9 -5 -9 8 0 22 4 30 9 18 12 2 12 -25 0z"/>
<path d="M2 310 c0 -19 2 -27 5 -17 2 9 2 25 0 35 -3 9 -5 1 -5 -18z"/>
<path d="M5458 323 c7 -3 16 -2 19 1 4 3 -2 6 -13 5 -11 0 -14 -3 -6 -6z"/>
<path d="M5398 313 c7 -3 16 -2 19 1 4 3 -2 6 -13 5 -11 0 -14 -3 -6 -6z"/>
<path d="M5338 303 c6 -2 18 -2 25 0 6 3 1 5 -13 5 -14 0 -19 -2 -12 -5z"/>
<path d="M10688 134 c20 -14 22 -22 17 -55 -4 -21 -3 -43 0 -50 12 -18 25 10
25 53 0 31 3 35 20 31 33 -9 22 6 -16 22 -50 21 -76 20 -46 -1z"/>
<path d="M6194 121 c-5 -5 -18 -11 -29 -13 -19 -5 -19 -5 -2 -13 12 -5 24 -2
35 8 16 17 13 34 -4 18z"/>
</g>
</svg>
