<svg width="1361" height="158" viewBox="0 0 1361 158" fill="none" xmlns="http://www.w3.org/2000/svg">
<g filter="url(#filter0_d_212_685)">
<mask id="path-1-outside-1_212_685" maskUnits="userSpaceOnUse" x="3" y="-2" width="1355" height="153" fill="black">
<rect fill="white" x="3" y="-2" width="1355" height="153"/>
<path d="M4.81836 2.18945H30.834V54.0449C33.1191 52.4629 35.8145 50.9688 38.9199 49.5625C42.0254 48.1562 45.3652 46.9258 48.9395 45.8711C52.5137 44.8164 56.2051 43.9961 60.0137 43.4102C63.8223 42.7656 67.6309 42.4434 71.4395 42.4434C80.2285 42.4434 88.2852 43.7324 95.6094 46.3105C102.992 48.8887 109.32 52.5215 114.594 57.209C119.867 61.8965 123.969 67.5215 126.898 74.084C129.887 80.5879 131.381 87.7949 131.381 95.7051C131.381 103.967 129.828 111.438 126.723 118.117C123.617 124.738 119.311 130.422 113.803 135.168C108.354 139.855 101.85 143.488 94.291 146.066C86.791 148.586 78.6465 149.846 69.8574 149.846C66.1074 149.846 62.3867 149.611 58.6953 149.143C55.0625 148.674 51.5469 148.029 48.1484 147.209C44.8086 146.389 41.6445 145.422 38.6562 144.309C35.7266 143.137 33.1191 141.877 30.834 140.529V148H4.81836V2.18945ZM30.834 115.393C33.4707 117.502 36.2539 119.289 39.1836 120.754C42.1133 122.219 45.1016 123.42 48.1484 124.357C51.1953 125.295 54.2715 125.998 57.377 126.467C60.4824 126.877 63.5 127.082 66.4297 127.082C72.4062 127.082 77.709 126.291 82.3379 124.709C87.0254 123.068 90.9512 120.842 94.1152 118.029C97.3379 115.217 99.7988 111.906 101.498 108.098C103.197 104.289 104.047 100.158 104.047 95.7051C104.047 91.5449 103.197 87.6191 101.498 83.9277C99.8574 80.2363 97.4551 77.0137 94.291 74.2598C91.1855 71.4473 87.4062 69.25 82.9531 67.668C78.5586 66.0273 73.6074 65.207 68.0996 65.207C64.584 65.207 61.0684 65.5586 57.5527 66.2617C54.0371 66.9062 50.6387 67.8438 47.3574 69.0742C44.1348 70.3047 41.0879 71.7988 38.2168 73.5566C35.4043 75.3145 32.9434 77.2773 30.834 79.4453V115.393ZM159.541 95.793C159.541 88.7617 160.977 82.0527 163.848 75.666C166.719 69.2207 170.85 63.5371 176.24 58.6152C181.631 53.6934 188.223 49.7676 196.016 46.8379C203.867 43.9082 212.773 42.4434 222.734 42.4434C232.637 42.4434 241.543 43.9375 249.453 46.9258C257.422 49.8555 264.16 53.8984 269.668 59.0547C275.234 64.2109 279.482 70.2754 282.412 77.248C285.4 84.2207 286.895 91.6914 286.895 99.6602C286.895 100.656 286.865 101.74 286.807 102.912C286.807 104.025 286.748 105.051 286.631 105.988H188.545C189.658 109.094 191.445 111.936 193.906 114.514C196.426 117.092 199.561 119.318 203.311 121.193C207.061 123.068 211.396 124.533 216.318 125.588C221.24 126.584 226.689 127.082 232.666 127.082C238.643 127.082 244.59 126.467 250.508 125.236C256.426 123.947 262.08 122.336 267.471 120.402L276.26 140.266C272.861 141.848 269.404 143.254 265.889 144.484C262.432 145.656 258.799 146.652 254.99 147.473C251.24 148.234 247.285 148.82 243.125 149.23C239.023 149.641 234.688 149.846 230.117 149.846C218.457 149.846 208.232 148.439 199.443 145.627C190.654 142.814 183.301 138.977 177.383 134.113C171.465 129.25 167.012 123.537 164.023 116.975C161.035 110.412 159.541 103.352 159.541 95.793ZM259.297 85.6855C258.359 82.8145 256.895 80.1484 254.902 77.6875C252.969 75.168 250.537 73 247.607 71.1836C244.678 69.3086 241.279 67.8438 237.412 66.7891C233.545 65.7344 229.297 65.207 224.668 65.207C219.746 65.207 215.264 65.7637 211.221 66.877C207.178 67.9902 203.633 69.4844 200.586 71.3594C197.539 73.2344 194.99 75.4023 192.939 77.8633C190.947 80.3242 189.482 82.9316 188.545 85.6855H259.297ZM328.062 116.184C335.094 120.402 342.828 123.508 351.266 125.5C359.703 127.492 368.346 128.488 377.193 128.488C383.17 128.488 388.15 128.078 392.135 127.258C396.119 126.438 399.312 125.383 401.715 124.094C404.117 122.805 405.816 121.34 406.812 119.699C407.809 118.059 408.307 116.389 408.307 114.689C408.307 112.229 407.223 110.119 405.055 108.361C402.945 106.604 399.43 105.725 394.508 105.725C392.223 105.725 389.762 105.871 387.125 106.164C384.488 106.457 381.705 106.779 378.775 107.131C375.904 107.424 372.887 107.717 369.723 108.01C366.617 108.303 363.453 108.449 360.23 108.449C353.199 108.449 347.193 107.688 342.213 106.164C337.291 104.641 333.277 102.561 330.172 99.9238C327.066 97.2871 324.811 94.1816 323.404 90.6074C321.998 86.9746 321.295 83.0781 321.295 78.918C321.295 73.6445 322.525 68.7812 324.986 64.3281C327.447 59.875 330.963 56.0371 335.533 52.8145C340.104 49.5332 345.611 46.9844 352.057 45.168C358.561 43.3516 365.797 42.4434 373.766 42.4434C377.926 42.4434 382.262 42.707 386.773 43.2344C391.344 43.7031 395.826 44.3477 400.221 45.168C404.615 45.9883 408.834 46.9551 412.877 48.0684C416.92 49.123 420.494 50.2656 423.6 51.4961L415.426 71.7109C408.805 69.25 402.184 67.3164 395.562 65.9102C389 64.4453 382.232 63.7129 375.26 63.7129C370.396 63.7129 366.266 64.0938 362.867 64.8555C359.527 65.5586 356.803 66.5254 354.693 67.7559C352.584 68.9277 351.031 70.3047 350.035 71.8867C349.098 73.4102 348.629 75.0215 348.629 76.7207C348.629 77.9512 348.863 79.0645 349.332 80.0605C349.859 81.0566 350.68 81.9355 351.793 82.6973C352.965 83.4004 354.459 83.957 356.275 84.3672C358.15 84.7188 360.436 84.8945 363.131 84.8945C365.592 84.8945 368.199 84.748 370.953 84.4551C373.707 84.1621 376.578 83.8691 379.566 83.5762C382.555 83.2246 385.631 82.9023 388.795 82.6094C392.018 82.3164 395.299 82.1699 398.639 82.1699C404.85 82.1699 410.27 82.9023 414.898 84.3672C419.586 85.832 423.453 87.8828 426.5 90.5195C429.547 93.1562 431.832 96.2617 433.355 99.8359C434.879 103.41 435.641 107.307 435.641 111.525C435.641 116.975 434.381 122.043 431.861 126.73C429.342 131.418 425.592 135.49 420.611 138.947C415.631 142.346 409.42 145.012 401.979 146.945C394.596 148.879 386.041 149.846 376.314 149.846C370.338 149.846 364.566 149.465 359 148.703C353.434 148 348.131 147.033 343.092 145.803C338.053 144.514 333.307 143.02 328.854 141.32C324.459 139.621 320.445 137.805 316.812 135.871L328.062 116.184ZM483.752 63.8008H458.703V44.2891H483.752V12.0332H509.768V44.2891H534.816V63.8008H509.768V148H483.752V63.8008ZM629.457 96.1445C629.457 88.7031 630.951 81.7305 633.939 75.2266C636.986 68.7227 641.293 63.0391 646.859 58.1758C652.484 53.3125 659.252 49.4746 667.162 46.6621C675.131 43.8496 684.066 42.4434 693.969 42.4434C703.871 42.4434 712.777 43.8496 720.688 46.6621C728.656 49.4746 735.424 53.3125 740.99 58.1758C746.615 63.0391 750.922 68.7227 753.91 75.2266C756.957 81.7305 758.48 88.7031 758.48 96.1445C758.48 103.586 756.957 110.559 753.91 117.062C750.922 123.566 746.615 129.25 740.99 134.113C735.424 138.977 728.656 142.814 720.688 145.627C712.777 148.439 703.871 149.846 693.969 149.846C684.066 149.846 675.131 148.439 667.162 145.627C659.252 142.814 652.484 138.977 646.859 134.113C641.293 129.25 636.986 123.566 633.939 117.062C630.951 110.559 629.457 103.586 629.457 96.1445ZM656.791 96.1445C656.791 100.305 657.611 104.26 659.252 108.01C660.951 111.701 663.383 114.982 666.547 117.854C669.77 120.666 673.666 122.922 678.236 124.621C682.865 126.262 688.109 127.082 693.969 127.082C699.828 127.082 705.043 126.262 709.613 124.621C714.242 122.922 718.139 120.666 721.303 117.854C724.525 114.982 726.957 111.701 728.598 108.01C730.297 104.26 731.146 100.305 731.146 96.1445C731.146 91.9844 730.297 88.0293 728.598 84.2793C726.957 80.5293 724.525 77.248 721.303 74.4355C718.139 71.5645 714.242 69.3086 709.613 67.668C705.043 65.9688 699.828 65.1191 693.969 65.1191C688.109 65.1191 682.865 65.9688 678.236 67.668C673.666 69.3086 669.77 71.5645 666.547 74.4355C663.383 77.248 660.951 80.5293 659.252 84.2793C657.611 88.0293 656.791 91.9844 656.791 96.1445ZM805.098 63.8008H787.344V44.2891H805.098C805.098 37.2578 806.094 31.0176 808.086 25.5684C810.078 20.0605 812.949 15.4316 816.699 11.6816C820.508 7.87305 825.107 4.97266 830.498 2.98047C835.947 0.988281 842.07 -0.0078125 848.867 -0.0078125C853.613 -0.0078125 858.271 0.460937 862.842 1.39844C867.412 2.27734 871.455 3.56641 874.971 5.26562L865.742 27.1504C864.336 26.3301 862.344 25.5684 859.766 24.8652C857.246 24.1621 854.463 23.8105 851.416 23.8105C845.439 23.8105 840.605 25.5098 836.914 28.9082C833.281 32.248 831.348 37.375 831.113 44.2891H863.896V63.8008H831.113V148H805.098V63.8008ZM956.779 115.305C956.779 110.324 957.863 105.783 960.031 101.682C962.199 97.5801 965.451 94.0645 969.787 91.1348C974.123 88.1465 979.514 85.8613 985.959 84.2793C992.463 82.6387 1000.02 81.8184 1008.63 81.8184C1015.02 81.8184 1021.73 82.2871 1028.76 83.2246C1035.85 84.1621 1043.15 85.5977 1050.65 87.5312C1050.35 84.25 1049.36 81.2324 1047.66 78.4785C1045.96 75.666 1043.59 73.2637 1040.54 71.2715C1037.55 69.2207 1033.92 67.6387 1029.64 66.5254C1025.42 65.4121 1020.62 64.8555 1015.23 64.8555C1012.3 64.8555 1009.07 65.0312 1005.56 65.3828C1002.04 65.7344 998.41 66.2617 994.66 66.9648C990.91 67.668 987.189 68.5469 983.498 69.6016C979.865 70.6562 976.467 71.916 973.303 73.3809L965.393 52.0234C969.318 50.6172 973.508 49.3281 977.961 48.1562C982.473 46.9844 987.072 45.9883 991.76 45.168C996.447 44.2891 1001.13 43.6152 1005.82 43.1465C1010.51 42.6777 1015.05 42.4434 1019.45 42.4434C1038.84 42.4434 1053.25 47.3945 1062.69 57.2969C1072.12 67.1992 1076.84 82.375 1076.84 102.824V148H1050.82V138.244C1048.13 139.826 1045.17 141.32 1041.95 142.727C1038.78 144.133 1035.32 145.363 1031.57 146.418C1027.82 147.473 1023.78 148.293 1019.45 148.879C1015.17 149.523 1010.63 149.846 1005.82 149.846C997.736 149.846 990.617 148.967 984.465 147.209C978.371 145.451 973.273 143.02 969.172 139.914C965.07 136.809 961.965 133.176 959.855 129.016C957.805 124.797 956.779 120.227 956.779 115.305ZM984.201 114.426C984.201 116.125 984.641 117.766 985.52 119.348C986.398 120.871 987.805 122.248 989.738 123.479C991.672 124.65 994.133 125.617 997.121 126.379C1000.17 127.082 1003.83 127.434 1008.11 127.434C1012.68 127.434 1017.1 127.023 1021.38 126.203C1025.66 125.383 1029.64 124.299 1033.33 122.951C1037.02 121.604 1040.36 120.051 1043.35 118.293C1046.34 116.535 1048.83 114.719 1050.82 112.844V108.273C1046.84 107.16 1042.88 106.223 1038.96 105.461C1035.09 104.699 1031.37 104.113 1027.79 103.703C1024.28 103.234 1020.94 102.912 1017.78 102.736C1014.67 102.561 1011.95 102.473 1009.6 102.473C1004.74 102.473 1000.7 102.795 997.473 103.439C994.25 104.084 991.643 104.963 989.65 106.076C987.658 107.131 986.252 108.391 985.432 109.855C984.611 111.32 984.201 112.844 984.201 114.426ZM1120.99 2.18945H1147.01V148H1120.99V2.18945ZM1190.11 2.18945H1216.13V148H1190.11V2.18945ZM1335.69 2.18945C1338.8 2.18945 1341.64 2.6875 1344.22 3.68359C1346.86 4.67969 1349.11 6.14453 1350.99 8.07812C1352.86 9.95312 1354.33 12.2383 1355.38 14.9336C1356.44 17.6289 1356.96 20.6758 1356.96 24.0742C1356.96 31.75 1354.33 39.1035 1349.05 46.1348C1343.84 53.1074 1336.22 59.3184 1326.2 64.7676L1316.53 50.9688C1319.17 49.5625 1321.48 48.1855 1323.48 46.8379C1325.53 45.4902 1327.29 44.1133 1328.75 42.707C1330.27 41.3008 1331.56 39.8652 1332.62 38.4004C1333.73 36.877 1334.73 35.2656 1335.61 33.5664C1332.73 33.5664 1330.13 33.1562 1327.78 32.3359C1325.5 31.5156 1323.51 30.4023 1321.81 28.9961C1320.17 27.5312 1318.88 25.8613 1317.94 23.9863C1317.06 22.0527 1316.62 20.002 1316.62 17.834C1316.62 15.666 1317.06 13.6445 1317.94 11.7695C1318.88 9.83594 1320.17 8.16602 1321.81 6.75977C1323.51 5.35352 1325.53 4.24023 1327.87 3.41992C1330.21 2.59961 1332.82 2.18945 1335.69 2.18945ZM1281.03 2.18945C1284.13 2.18945 1286.97 2.6875 1289.55 3.68359C1292.19 4.67969 1294.44 6.14453 1296.32 8.07812C1298.19 9.95312 1299.66 12.2383 1300.71 14.9336C1301.77 17.6289 1302.29 20.6758 1302.29 24.0742C1302.29 31.75 1299.66 39.1035 1294.38 46.1348C1289.17 53.1074 1281.55 59.3184 1271.53 64.7676L1261.87 50.9688C1264.5 49.5625 1266.82 48.1855 1268.81 46.8379C1270.86 45.4902 1272.62 44.1133 1274.08 42.707C1275.61 41.3008 1276.89 39.8652 1277.95 38.4004C1279.06 36.877 1280.06 35.2656 1280.94 33.5664C1278.07 33.5664 1275.46 33.1562 1273.12 32.3359C1270.83 31.5156 1268.84 30.4023 1267.14 28.9961C1265.5 27.5312 1264.21 25.8613 1263.27 23.9863C1262.39 22.0527 1261.95 20.002 1261.95 17.834C1261.95 15.666 1262.39 13.6445 1263.27 11.7695C1264.21 9.83594 1265.5 8.16602 1267.14 6.75977C1268.84 5.35352 1270.86 4.24023 1273.2 3.41992C1275.55 2.59961 1278.15 2.18945 1281.03 2.18945Z"/>
</mask>
<path d="M4.81836 2.18945H30.834V54.0449C33.1191 52.4629 35.8145 50.9688 38.9199 49.5625C42.0254 48.1562 45.3652 46.9258 48.9395 45.8711C52.5137 44.8164 56.2051 43.9961 60.0137 43.4102C63.8223 42.7656 67.6309 42.4434 71.4395 42.4434C80.2285 42.4434 88.2852 43.7324 95.6094 46.3105C102.992 48.8887 109.32 52.5215 114.594 57.209C119.867 61.8965 123.969 67.5215 126.898 74.084C129.887 80.5879 131.381 87.7949 131.381 95.7051C131.381 103.967 129.828 111.438 126.723 118.117C123.617 124.738 119.311 130.422 113.803 135.168C108.354 139.855 101.85 143.488 94.291 146.066C86.791 148.586 78.6465 149.846 69.8574 149.846C66.1074 149.846 62.3867 149.611 58.6953 149.143C55.0625 148.674 51.5469 148.029 48.1484 147.209C44.8086 146.389 41.6445 145.422 38.6562 144.309C35.7266 143.137 33.1191 141.877 30.834 140.529V148H4.81836V2.18945ZM30.834 115.393C33.4707 117.502 36.2539 119.289 39.1836 120.754C42.1133 122.219 45.1016 123.42 48.1484 124.357C51.1953 125.295 54.2715 125.998 57.377 126.467C60.4824 126.877 63.5 127.082 66.4297 127.082C72.4062 127.082 77.709 126.291 82.3379 124.709C87.0254 123.068 90.9512 120.842 94.1152 118.029C97.3379 115.217 99.7988 111.906 101.498 108.098C103.197 104.289 104.047 100.158 104.047 95.7051C104.047 91.5449 103.197 87.6191 101.498 83.9277C99.8574 80.2363 97.4551 77.0137 94.291 74.2598C91.1855 71.4473 87.4062 69.25 82.9531 67.668C78.5586 66.0273 73.6074 65.207 68.0996 65.207C64.584 65.207 61.0684 65.5586 57.5527 66.2617C54.0371 66.9062 50.6387 67.8438 47.3574 69.0742C44.1348 70.3047 41.0879 71.7988 38.2168 73.5566C35.4043 75.3145 32.9434 77.2773 30.834 79.4453V115.393ZM159.541 95.793C159.541 88.7617 160.977 82.0527 163.848 75.666C166.719 69.2207 170.85 63.5371 176.24 58.6152C181.631 53.6934 188.223 49.7676 196.016 46.8379C203.867 43.9082 212.773 42.4434 222.734 42.4434C232.637 42.4434 241.543 43.9375 249.453 46.9258C257.422 49.8555 264.16 53.8984 269.668 59.0547C275.234 64.2109 279.482 70.2754 282.412 77.248C285.4 84.2207 286.895 91.6914 286.895 99.6602C286.895 100.656 286.865 101.74 286.807 102.912C286.807 104.025 286.748 105.051 286.631 105.988H188.545C189.658 109.094 191.445 111.936 193.906 114.514C196.426 117.092 199.561 119.318 203.311 121.193C207.061 123.068 211.396 124.533 216.318 125.588C221.24 126.584 226.689 127.082 232.666 127.082C238.643 127.082 244.59 126.467 250.508 125.236C256.426 123.947 262.08 122.336 267.471 120.402L276.26 140.266C272.861 141.848 269.404 143.254 265.889 144.484C262.432 145.656 258.799 146.652 254.99 147.473C251.24 148.234 247.285 148.82 243.125 149.23C239.023 149.641 234.688 149.846 230.117 149.846C218.457 149.846 208.232 148.439 199.443 145.627C190.654 142.814 183.301 138.977 177.383 134.113C171.465 129.25 167.012 123.537 164.023 116.975C161.035 110.412 159.541 103.352 159.541 95.793ZM259.297 85.6855C258.359 82.8145 256.895 80.1484 254.902 77.6875C252.969 75.168 250.537 73 247.607 71.1836C244.678 69.3086 241.279 67.8438 237.412 66.7891C233.545 65.7344 229.297 65.207 224.668 65.207C219.746 65.207 215.264 65.7637 211.221 66.877C207.178 67.9902 203.633 69.4844 200.586 71.3594C197.539 73.2344 194.99 75.4023 192.939 77.8633C190.947 80.3242 189.482 82.9316 188.545 85.6855H259.297ZM328.062 116.184C335.094 120.402 342.828 123.508 351.266 125.5C359.703 127.492 368.346 128.488 377.193 128.488C383.17 128.488 388.15 128.078 392.135 127.258C396.119 126.438 399.312 125.383 401.715 124.094C404.117 122.805 405.816 121.34 406.812 119.699C407.809 118.059 408.307 116.389 408.307 114.689C408.307 112.229 407.223 110.119 405.055 108.361C402.945 106.604 399.43 105.725 394.508 105.725C392.223 105.725 389.762 105.871 387.125 106.164C384.488 106.457 381.705 106.779 378.775 107.131C375.904 107.424 372.887 107.717 369.723 108.01C366.617 108.303 363.453 108.449 360.23 108.449C353.199 108.449 347.193 107.688 342.213 106.164C337.291 104.641 333.277 102.561 330.172 99.9238C327.066 97.2871 324.811 94.1816 323.404 90.6074C321.998 86.9746 321.295 83.0781 321.295 78.918C321.295 73.6445 322.525 68.7812 324.986 64.3281C327.447 59.875 330.963 56.0371 335.533 52.8145C340.104 49.5332 345.611 46.9844 352.057 45.168C358.561 43.3516 365.797 42.4434 373.766 42.4434C377.926 42.4434 382.262 42.707 386.773 43.2344C391.344 43.7031 395.826 44.3477 400.221 45.168C404.615 45.9883 408.834 46.9551 412.877 48.0684C416.92 49.123 420.494 50.2656 423.6 51.4961L415.426 71.7109C408.805 69.25 402.184 67.3164 395.562 65.9102C389 64.4453 382.232 63.7129 375.26 63.7129C370.396 63.7129 366.266 64.0938 362.867 64.8555C359.527 65.5586 356.803 66.5254 354.693 67.7559C352.584 68.9277 351.031 70.3047 350.035 71.8867C349.098 73.4102 348.629 75.0215 348.629 76.7207C348.629 77.9512 348.863 79.0645 349.332 80.0605C349.859 81.0566 350.68 81.9355 351.793 82.6973C352.965 83.4004 354.459 83.957 356.275 84.3672C358.15 84.7188 360.436 84.8945 363.131 84.8945C365.592 84.8945 368.199 84.748 370.953 84.4551C373.707 84.1621 376.578 83.8691 379.566 83.5762C382.555 83.2246 385.631 82.9023 388.795 82.6094C392.018 82.3164 395.299 82.1699 398.639 82.1699C404.85 82.1699 410.27 82.9023 414.898 84.3672C419.586 85.832 423.453 87.8828 426.5 90.5195C429.547 93.1562 431.832 96.2617 433.355 99.8359C434.879 103.41 435.641 107.307 435.641 111.525C435.641 116.975 434.381 122.043 431.861 126.73C429.342 131.418 425.592 135.49 420.611 138.947C415.631 142.346 409.42 145.012 401.979 146.945C394.596 148.879 386.041 149.846 376.314 149.846C370.338 149.846 364.566 149.465 359 148.703C353.434 148 348.131 147.033 343.092 145.803C338.053 144.514 333.307 143.02 328.854 141.32C324.459 139.621 320.445 137.805 316.812 135.871L328.062 116.184ZM483.752 63.8008H458.703V44.2891H483.752V12.0332H509.768V44.2891H534.816V63.8008H509.768V148H483.752V63.8008ZM629.457 96.1445C629.457 88.7031 630.951 81.7305 633.939 75.2266C636.986 68.7227 641.293 63.0391 646.859 58.1758C652.484 53.3125 659.252 49.4746 667.162 46.6621C675.131 43.8496 684.066 42.4434 693.969 42.4434C703.871 42.4434 712.777 43.8496 720.688 46.6621C728.656 49.4746 735.424 53.3125 740.99 58.1758C746.615 63.0391 750.922 68.7227 753.91 75.2266C756.957 81.7305 758.48 88.7031 758.48 96.1445C758.48 103.586 756.957 110.559 753.91 117.062C750.922 123.566 746.615 129.25 740.99 134.113C735.424 138.977 728.656 142.814 720.688 145.627C712.777 148.439 703.871 149.846 693.969 149.846C684.066 149.846 675.131 148.439 667.162 145.627C659.252 142.814 652.484 138.977 646.859 134.113C641.293 129.25 636.986 123.566 633.939 117.062C630.951 110.559 629.457 103.586 629.457 96.1445ZM656.791 96.1445C656.791 100.305 657.611 104.26 659.252 108.01C660.951 111.701 663.383 114.982 666.547 117.854C669.77 120.666 673.666 122.922 678.236 124.621C682.865 126.262 688.109 127.082 693.969 127.082C699.828 127.082 705.043 126.262 709.613 124.621C714.242 122.922 718.139 120.666 721.303 117.854C724.525 114.982 726.957 111.701 728.598 108.01C730.297 104.26 731.146 100.305 731.146 96.1445C731.146 91.9844 730.297 88.0293 728.598 84.2793C726.957 80.5293 724.525 77.248 721.303 74.4355C718.139 71.5645 714.242 69.3086 709.613 67.668C705.043 65.9688 699.828 65.1191 693.969 65.1191C688.109 65.1191 682.865 65.9688 678.236 67.668C673.666 69.3086 669.77 71.5645 666.547 74.4355C663.383 77.248 660.951 80.5293 659.252 84.2793C657.611 88.0293 656.791 91.9844 656.791 96.1445ZM805.098 63.8008H787.344V44.2891H805.098C805.098 37.2578 806.094 31.0176 808.086 25.5684C810.078 20.0605 812.949 15.4316 816.699 11.6816C820.508 7.87305 825.107 4.97266 830.498 2.98047C835.947 0.988281 842.07 -0.0078125 848.867 -0.0078125C853.613 -0.0078125 858.271 0.460937 862.842 1.39844C867.412 2.27734 871.455 3.56641 874.971 5.26562L865.742 27.1504C864.336 26.3301 862.344 25.5684 859.766 24.8652C857.246 24.1621 854.463 23.8105 851.416 23.8105C845.439 23.8105 840.605 25.5098 836.914 28.9082C833.281 32.248 831.348 37.375 831.113 44.2891H863.896V63.8008H831.113V148H805.098V63.8008ZM956.779 115.305C956.779 110.324 957.863 105.783 960.031 101.682C962.199 97.5801 965.451 94.0645 969.787 91.1348C974.123 88.1465 979.514 85.8613 985.959 84.2793C992.463 82.6387 1000.02 81.8184 1008.63 81.8184C1015.02 81.8184 1021.73 82.2871 1028.76 83.2246C1035.85 84.1621 1043.15 85.5977 1050.65 87.5312C1050.35 84.25 1049.36 81.2324 1047.66 78.4785C1045.96 75.666 1043.59 73.2637 1040.54 71.2715C1037.55 69.2207 1033.92 67.6387 1029.64 66.5254C1025.42 65.4121 1020.62 64.8555 1015.23 64.8555C1012.3 64.8555 1009.07 65.0312 1005.56 65.3828C1002.04 65.7344 998.41 66.2617 994.66 66.9648C990.91 67.668 987.189 68.5469 983.498 69.6016C979.865 70.6562 976.467 71.916 973.303 73.3809L965.393 52.0234C969.318 50.6172 973.508 49.3281 977.961 48.1562C982.473 46.9844 987.072 45.9883 991.76 45.168C996.447 44.2891 1001.13 43.6152 1005.82 43.1465C1010.51 42.6777 1015.05 42.4434 1019.45 42.4434C1038.84 42.4434 1053.25 47.3945 1062.69 57.2969C1072.12 67.1992 1076.84 82.375 1076.84 102.824V148H1050.82V138.244C1048.13 139.826 1045.17 141.32 1041.95 142.727C1038.78 144.133 1035.32 145.363 1031.57 146.418C1027.82 147.473 1023.78 148.293 1019.45 148.879C1015.17 149.523 1010.63 149.846 1005.82 149.846C997.736 149.846 990.617 148.967 984.465 147.209C978.371 145.451 973.273 143.02 969.172 139.914C965.07 136.809 961.965 133.176 959.855 129.016C957.805 124.797 956.779 120.227 956.779 115.305ZM984.201 114.426C984.201 116.125 984.641 117.766 985.52 119.348C986.398 120.871 987.805 122.248 989.738 123.479C991.672 124.65 994.133 125.617 997.121 126.379C1000.17 127.082 1003.83 127.434 1008.11 127.434C1012.68 127.434 1017.1 127.023 1021.38 126.203C1025.66 125.383 1029.64 124.299 1033.33 122.951C1037.02 121.604 1040.36 120.051 1043.35 118.293C1046.34 116.535 1048.83 114.719 1050.82 112.844V108.273C1046.84 107.16 1042.88 106.223 1038.96 105.461C1035.09 104.699 1031.37 104.113 1027.79 103.703C1024.28 103.234 1020.94 102.912 1017.78 102.736C1014.67 102.561 1011.95 102.473 1009.6 102.473C1004.74 102.473 1000.7 102.795 997.473 103.439C994.25 104.084 991.643 104.963 989.65 106.076C987.658 107.131 986.252 108.391 985.432 109.855C984.611 111.32 984.201 112.844 984.201 114.426ZM1120.99 2.18945H1147.01V148H1120.99V2.18945ZM1190.11 2.18945H1216.13V148H1190.11V2.18945ZM1335.69 2.18945C1338.8 2.18945 1341.64 2.6875 1344.22 3.68359C1346.86 4.67969 1349.11 6.14453 1350.99 8.07812C1352.86 9.95312 1354.33 12.2383 1355.38 14.9336C1356.44 17.6289 1356.96 20.6758 1356.96 24.0742C1356.96 31.75 1354.33 39.1035 1349.05 46.1348C1343.84 53.1074 1336.22 59.3184 1326.2 64.7676L1316.53 50.9688C1319.17 49.5625 1321.48 48.1855 1323.48 46.8379C1325.53 45.4902 1327.29 44.1133 1328.75 42.707C1330.27 41.3008 1331.56 39.8652 1332.62 38.4004C1333.73 36.877 1334.73 35.2656 1335.61 33.5664C1332.73 33.5664 1330.13 33.1562 1327.78 32.3359C1325.5 31.5156 1323.51 30.4023 1321.81 28.9961C1320.17 27.5312 1318.88 25.8613 1317.94 23.9863C1317.06 22.0527 1316.62 20.002 1316.62 17.834C1316.62 15.666 1317.06 13.6445 1317.94 11.7695C1318.88 9.83594 1320.17 8.16602 1321.81 6.75977C1323.51 5.35352 1325.53 4.24023 1327.87 3.41992C1330.21 2.59961 1332.82 2.18945 1335.69 2.18945ZM1281.03 2.18945C1284.13 2.18945 1286.97 2.6875 1289.55 3.68359C1292.19 4.67969 1294.44 6.14453 1296.32 8.07812C1298.19 9.95312 1299.66 12.2383 1300.71 14.9336C1301.77 17.6289 1302.29 20.6758 1302.29 24.0742C1302.29 31.75 1299.66 39.1035 1294.38 46.1348C1289.17 53.1074 1281.55 59.3184 1271.53 64.7676L1261.87 50.9688C1264.5 49.5625 1266.82 48.1855 1268.81 46.8379C1270.86 45.4902 1272.62 44.1133 1274.08 42.707C1275.61 41.3008 1276.89 39.8652 1277.95 38.4004C1279.06 36.877 1280.06 35.2656 1280.94 33.5664C1278.07 33.5664 1275.46 33.1562 1273.12 32.3359C1270.83 31.5156 1268.84 30.4023 1267.14 28.9961C1265.5 27.5312 1264.21 25.8613 1263.27 23.9863C1262.39 22.0527 1261.95 20.002 1261.95 17.834C1261.95 15.666 1262.39 13.6445 1263.27 11.7695C1264.21 9.83594 1265.5 8.16602 1267.14 6.75977C1268.84 5.35352 1270.86 4.24023 1273.2 3.41992C1275.55 2.59961 1278.15 2.18945 1281.03 2.18945Z" fill="#F8BD25"/>
<path d="M4.81836 2.18945V1.18945H3.81836V2.18945H4.81836ZM30.834 2.18945H31.834V1.18945H30.834V2.18945ZM30.834 54.0449H29.834V55.9535L31.4032 54.8671L30.834 54.0449ZM60.0137 43.4102L60.1657 44.3985L60.1731 44.3974L60.1805 44.3961L60.0137 43.4102ZM95.6094 46.3105L95.2773 47.2538L95.2797 47.2546L95.6094 46.3105ZM126.898 74.084L125.985 74.4917L125.99 74.5015L126.898 74.084ZM126.723 118.117L127.628 118.542L127.629 118.539L126.723 118.117ZM113.803 135.168L114.455 135.926L114.456 135.926L113.803 135.168ZM94.291 146.066L94.6095 147.014L94.6138 147.013L94.291 146.066ZM58.6953 149.143L58.5673 150.134L58.5693 150.135L58.6953 149.143ZM48.1484 147.209L47.9099 148.18L47.9138 148.181L48.1484 147.209ZM38.6562 144.309L38.2849 145.237L38.2959 145.242L38.3071 145.246L38.6562 144.309ZM30.834 140.529L31.342 139.668L29.834 138.779V140.529H30.834ZM30.834 148V149H31.834V148H30.834ZM4.81836 148H3.81836V149H4.81836V148ZM30.834 115.393H29.834V115.873L30.2093 116.173L30.834 115.393ZM57.377 126.467L57.2277 127.456L57.2368 127.457L57.246 127.458L57.377 126.467ZM82.3379 124.709L82.6613 125.655L82.6682 125.653L82.3379 124.709ZM94.1152 118.029L93.4577 117.276L93.4509 117.282L94.1152 118.029ZM101.498 83.9277L100.584 84.3339L100.59 84.3459L101.498 83.9277ZM94.291 74.2598L93.6198 75.001L93.627 75.0076L93.6345 75.0141L94.291 74.2598ZM82.9531 67.668L82.6034 68.6048L82.6108 68.6076L82.6183 68.6103L82.9531 67.668ZM57.5527 66.2617L57.7331 67.2453L57.741 67.2439L57.7489 67.2423L57.5527 66.2617ZM47.3574 69.0742L47.0063 68.1379L47.0007 68.14L47.3574 69.0742ZM38.2168 73.5566L37.6946 72.7038L37.6868 72.7086L38.2168 73.5566ZM30.834 79.4453L30.1173 78.748L29.834 79.0391V79.4453H30.834ZM4.81836 3.18945H30.834V1.18945H4.81836V3.18945ZM29.834 2.18945V54.0449H31.834V2.18945H29.834ZM31.4032 54.8671C33.6293 53.326 36.27 51.8602 39.3324 50.4735L38.5074 48.6515C35.3589 50.0773 32.609 51.5998 30.2648 53.2227L31.4032 54.8671ZM39.3324 50.4735C42.3922 49.0879 45.6884 47.873 49.2225 46.8302L48.6564 44.912C45.042 45.9785 41.6586 47.2246 38.5074 48.6515L39.3324 50.4735ZM49.2225 46.8302C52.7523 45.7886 56.3999 44.9779 60.1657 44.3985L59.8616 42.4218C56.0103 43.0143 52.275 43.8442 48.6564 44.912L49.2225 46.8302ZM60.1805 44.3961C63.9348 43.7608 67.6876 43.4434 71.4395 43.4434V41.4434C67.5742 41.4434 63.7097 41.7704 59.8468 42.4242L60.1805 44.3961ZM71.4395 43.4434C80.1302 43.4434 88.0729 44.7178 95.2773 47.2538L95.9414 45.3673C88.4974 42.747 80.3269 41.4434 71.4395 41.4434V43.4434ZM95.2797 47.2546C102.553 49.7944 108.764 53.3646 113.929 57.9564L115.258 56.4616C109.877 51.6783 103.432 47.983 95.9391 45.3665L95.2797 47.2546ZM113.929 57.9564C119.095 62.5478 123.112 68.0563 125.985 74.4916L127.812 73.6763C124.825 66.9867 120.64 61.2452 115.258 56.4616L113.929 57.9564ZM125.99 74.5015C128.912 80.8612 130.381 87.9238 130.381 95.7051H132.381C132.381 87.6661 130.862 80.3146 127.807 73.6665L125.99 74.5015ZM130.381 95.7051C130.381 103.839 128.853 111.163 125.816 117.696L127.629 118.539C130.803 111.712 132.381 104.095 132.381 95.7051H130.381ZM125.817 117.693C122.771 124.187 118.55 129.757 113.15 134.41L114.456 135.926C120.071 131.087 124.463 125.29 127.628 118.542L125.817 117.693ZM113.151 134.41C107.808 139.005 101.419 142.578 93.9682 145.12L94.6138 147.013C102.28 144.398 108.899 140.706 114.455 135.926L113.151 134.41ZM93.9726 145.118C86.5859 147.6 78.5501 148.846 69.8574 148.846V150.846C78.7429 150.846 86.9961 149.572 94.6095 147.014L93.9726 145.118ZM69.8574 148.846C66.1492 148.846 62.4706 148.614 58.8213 148.151L58.5693 150.135C62.3029 150.609 66.0656 150.846 69.8574 150.846V148.846ZM58.8233 148.151C55.2247 147.686 51.7447 147.048 48.3831 146.237L47.9138 148.181C51.349 149.01 54.9003 149.661 58.5673 150.134L58.8233 148.151ZM48.387 146.238C45.0817 145.426 41.9548 144.47 39.0054 143.372L38.3071 145.246C41.3343 146.373 44.5355 147.351 47.9099 148.18L48.387 146.238ZM39.0276 143.38C36.1366 142.224 33.5761 140.985 31.342 139.668L30.326 141.391C32.6622 142.768 35.3166 144.05 38.2849 145.237L39.0276 143.38ZM29.834 140.529V148H31.834V140.529H29.834ZM30.834 147H4.81836V149H30.834V147ZM5.81836 148V2.18945H3.81836V148H5.81836ZM30.2093 116.173C32.8993 118.325 35.7418 120.151 38.7364 121.648L39.6308 119.859C36.766 118.427 34.0421 116.678 31.4587 114.612L30.2093 116.173ZM38.7364 121.648C41.714 123.137 44.7534 124.359 47.8544 125.313L48.4425 123.402C45.4497 122.481 42.5126 121.3 39.6308 119.859L38.7364 121.648ZM47.8544 125.313C50.9479 126.265 54.0725 126.979 57.2277 127.456L57.5262 125.478C54.4705 125.017 51.4427 124.325 48.4425 123.402L47.8544 125.313ZM57.246 127.458C60.3919 127.874 63.4533 128.082 66.4297 128.082V126.082C63.5467 126.082 60.5729 125.88 57.5079 125.475L57.246 127.458ZM66.4297 128.082C72.4927 128.082 77.9081 127.28 82.6613 125.655L82.0145 123.763C77.5098 125.302 72.3198 126.082 66.4297 126.082V128.082ZM82.6682 125.653C87.4578 123.976 91.5027 121.689 94.7796 118.777L93.4509 117.282C90.3996 119.994 86.593 122.16 82.0075 123.765L82.6682 125.653ZM94.7728 118.783C98.1019 115.877 100.651 112.45 102.411 108.505L100.585 107.69C98.9463 111.363 96.5739 114.556 93.4577 117.276L94.7728 118.783ZM102.411 108.505C104.172 104.56 105.047 100.289 105.047 95.7051H103.047C103.047 100.027 102.223 104.018 100.585 107.69L102.411 108.505ZM105.047 95.7051C105.047 91.4041 104.167 87.3353 102.406 83.5096L100.59 84.3459C102.227 87.903 103.047 91.6858 103.047 95.7051H105.047ZM102.412 83.5216C100.71 79.6916 98.2174 76.3515 94.9475 73.5055L93.6345 75.0141C96.6927 77.6759 99.0052 80.7811 100.584 84.3339L102.412 83.5216ZM94.9623 73.5186C91.7473 70.6068 87.8495 68.3462 83.2879 66.7257L82.6183 68.6103C86.963 70.1538 90.6238 72.2877 93.6198 75.001L94.9623 73.5186ZM83.3029 66.7311C78.7788 65.0422 73.7065 64.207 68.0996 64.207V66.207C73.5084 66.207 78.3383 67.0125 82.6034 68.6048L83.3029 66.7311ZM68.0996 64.207C64.5168 64.207 60.9355 64.5654 57.3566 65.2811L57.7489 67.2423C61.2012 66.5518 64.6511 66.207 68.0996 66.207V64.207ZM57.3724 65.2781C53.7997 65.9331 50.3441 66.8862 47.0063 68.1379L47.7085 70.0106C50.9333 68.8013 54.2745 67.8794 57.7331 67.2453L57.3724 65.2781ZM47.0007 68.14C43.7219 69.3919 40.6196 70.913 37.6946 72.7038L38.739 74.4095C41.5562 72.6846 44.5476 71.2175 47.7141 70.0084L47.0007 68.14ZM37.6868 72.7086C34.8127 74.5049 32.2877 76.5172 30.1173 78.748L31.5507 80.1427C33.599 78.0375 35.9959 76.124 38.7468 74.4046L37.6868 72.7086ZM29.834 79.4453V115.393H31.834V79.4453H29.834ZM163.848 75.666L164.76 76.076L164.761 76.0729L163.848 75.666ZM196.016 46.8379L195.666 45.901L195.664 45.9018L196.016 46.8379ZM249.453 46.9258L249.1 47.8613L249.108 47.8644L249.453 46.9258ZM269.668 59.0547L268.985 59.7847L268.988 59.7883L269.668 59.0547ZM282.412 77.248L281.49 77.6354L281.493 77.642L282.412 77.248ZM286.807 102.912L285.808 102.862L285.807 102.887V102.912H286.807ZM286.631 105.988V106.988H287.514L287.623 106.112L286.631 105.988ZM188.545 105.988V104.988H187.124L187.604 106.326L188.545 105.988ZM193.906 114.514L193.183 115.204L193.191 115.213L193.906 114.514ZM216.318 125.588L216.109 126.566L216.12 126.568L216.318 125.588ZM250.508 125.236L250.711 126.215L250.721 126.213L250.508 125.236ZM267.471 120.402L268.385 119.998L268.009 119.147L267.133 119.461L267.471 120.402ZM276.26 140.266L276.682 141.172L277.571 140.758L277.174 139.861L276.26 140.266ZM265.889 144.484L266.21 145.431L266.219 145.428L265.889 144.484ZM254.99 147.473L255.189 148.453L255.201 148.45L254.99 147.473ZM243.125 149.23L243.027 148.235L243.025 148.235L243.125 149.23ZM259.297 85.6855V86.6855H260.675L260.247 85.3751L259.297 85.6855ZM254.902 77.6875L254.109 78.2963L254.117 78.3066L254.125 78.3167L254.902 77.6875ZM247.607 71.1836L247.068 72.0259L247.074 72.0297L247.08 72.0335L247.607 71.1836ZM192.939 77.8633L192.171 77.2231L192.167 77.2286L192.162 77.2341L192.939 77.8633ZM188.545 85.6855L187.598 85.3633L187.148 86.6855H188.545V85.6855ZM160.541 95.793C160.541 88.9025 161.947 82.3333 164.76 76.076L162.936 75.256C160.006 81.7722 158.541 88.621 158.541 95.793H160.541ZM164.761 76.0729C167.574 69.7578 171.622 64.186 176.914 59.3537L175.566 57.8767C170.077 62.8882 165.863 68.6836 162.934 75.2591L164.761 76.0729ZM176.914 59.3537C182.199 54.5288 188.677 50.6651 196.368 47.7739L195.664 45.9018C187.768 48.8701 181.063 52.8579 175.566 57.8767L176.914 59.3537ZM196.365 47.7748C204.086 44.8939 212.871 43.4434 222.734 43.4434V41.4434C212.676 41.4434 203.648 42.9225 195.666 45.901L196.365 47.7748ZM222.734 43.4434C232.536 43.4434 241.32 44.9223 249.1 47.8613L249.807 45.9903C241.766 42.9527 232.737 41.4434 222.734 41.4434V43.4434ZM249.108 47.8644C256.967 50.7536 263.586 54.7307 268.985 59.7847L270.351 58.3247C264.734 53.0662 257.877 48.9573 249.798 45.9872L249.108 47.8644ZM268.988 59.7883C274.451 64.848 278.616 70.7946 281.49 77.6354L283.334 76.8607C280.349 69.7562 276.018 63.5738 270.348 58.3211L268.988 59.7883ZM281.493 77.642C284.425 84.4839 285.895 91.8199 285.895 99.6602H287.895C287.895 91.5629 286.376 83.9575 283.331 76.8541L281.493 77.642ZM285.895 99.6602C285.895 100.637 285.866 101.704 285.808 102.862L287.805 102.962C287.865 101.776 287.895 100.676 287.895 99.6602H285.895ZM285.807 102.912C285.807 103.991 285.75 104.974 285.639 105.864L287.623 106.112C287.746 105.127 287.807 104.06 287.807 102.912H285.807ZM286.631 104.988H188.545V106.988H286.631V104.988ZM187.604 106.326C188.768 109.573 190.633 112.533 193.183 115.204L194.63 113.823C192.257 111.338 190.549 108.614 189.486 105.651L187.604 106.326ZM193.191 115.213C195.8 117.882 199.03 120.171 202.863 122.088L203.758 120.299C200.091 118.466 197.052 116.301 194.621 113.815L193.191 115.213ZM202.863 122.088C206.702 124.007 211.12 125.497 216.109 126.566L216.528 124.61C211.673 123.57 207.419 122.13 203.758 120.299L202.863 122.088ZM216.12 126.568C221.118 127.58 226.635 128.082 232.666 128.082V126.082C226.744 126.082 221.362 125.588 216.517 124.608L216.12 126.568ZM232.666 128.082C238.712 128.082 244.727 127.46 250.711 126.215L250.304 124.257C244.452 125.474 238.573 126.082 232.666 126.082V128.082ZM250.721 126.213C256.679 124.916 262.375 123.293 267.808 121.344L267.133 119.461C261.785 121.379 256.173 122.979 250.295 124.259L250.721 126.213ZM266.556 120.807L275.345 140.67L277.174 139.861L268.385 119.998L266.556 120.807ZM275.838 139.359C272.469 140.927 269.043 142.321 265.558 143.541L266.219 145.428C269.766 144.187 273.254 142.768 276.682 141.172L275.838 139.359ZM265.568 143.537C262.149 144.696 258.553 145.682 254.78 146.495L255.201 148.45C259.044 147.622 262.714 146.616 266.21 145.431L265.568 143.537ZM254.791 146.493C251.077 147.247 247.156 147.828 243.027 148.235L243.223 150.226C247.414 149.812 251.403 149.222 255.189 148.453L254.791 146.493ZM243.025 148.235C238.96 148.642 234.658 148.846 230.117 148.846V150.846C234.717 150.846 239.087 150.639 243.225 150.226L243.025 148.235ZM230.117 148.846C218.535 148.846 208.417 147.448 199.748 144.675L199.139 146.579C208.048 149.43 218.38 150.846 230.117 150.846V148.846ZM199.748 144.675C191.055 141.893 183.82 138.109 178.018 133.341L176.748 134.886C182.781 139.844 190.253 143.736 199.139 146.579L199.748 144.675ZM178.018 133.341C172.21 128.568 167.855 122.975 164.934 116.56L163.113 117.389C166.169 124.099 170.72 129.932 176.748 134.886L178.018 133.341ZM164.934 116.56C162.007 110.134 160.541 103.216 160.541 95.793H158.541C158.541 103.487 160.063 110.69 163.113 117.389L164.934 116.56ZM260.247 85.3751C259.27 82.3826 257.745 79.6094 255.68 77.0583L254.125 78.3167C256.044 80.6875 257.448 83.2463 258.346 85.9959L260.247 85.3751ZM255.696 77.0787C253.682 74.4555 251.158 72.2083 248.134 70.3337L247.08 72.0335C249.916 73.7917 252.255 75.8804 254.109 78.2963L255.696 77.0787ZM248.146 70.3413C245.12 68.4042 241.625 66.9016 237.675 65.8243L237.149 67.7538C240.933 68.7859 244.236 70.213 247.068 72.0259L248.146 70.3413ZM237.675 65.8243C233.71 64.7429 229.372 64.207 224.668 64.207V66.207C229.221 66.207 233.38 66.7258 237.149 67.7538L237.675 65.8243ZM224.668 64.207C219.672 64.207 215.098 64.772 210.955 65.9128L211.486 67.8411C215.429 66.7553 219.821 66.207 224.668 66.207V64.207ZM210.955 65.9128C206.836 67.047 203.202 68.5756 200.062 70.5077L201.11 72.211C204.064 70.3932 207.519 68.9335 211.486 67.8411L210.955 65.9128ZM200.062 70.5077C196.933 72.4329 194.299 74.6698 192.171 77.2231L193.708 78.5035C195.681 76.1349 198.145 74.0358 201.11 72.211L200.062 70.5077ZM192.162 77.2341C190.102 79.7785 188.577 82.4884 187.598 85.3633L189.492 86.0078C190.388 83.3748 191.792 80.87 193.717 78.4925L192.162 77.2341ZM188.545 86.6855H259.297V84.6855H188.545V86.6855ZM328.062 116.184L328.577 115.326L327.701 114.801L327.194 115.687L328.062 116.184ZM405.055 108.361L404.414 109.13L404.425 109.138L405.055 108.361ZM378.775 107.131L378.877 108.126L378.886 108.125L378.895 108.124L378.775 107.131ZM369.723 108.01L369.63 107.014L369.629 107.014L369.723 108.01ZM342.213 106.164L341.917 107.119L341.92 107.12L342.213 106.164ZM323.404 90.6074L322.472 90.9684L322.474 90.9735L323.404 90.6074ZM335.533 52.8145L336.109 53.6317L336.116 53.6268L335.533 52.8145ZM352.057 45.168L351.788 44.2048L351.785 44.2055L352.057 45.168ZM386.773 43.2344L386.657 44.2276L386.664 44.2284L386.671 44.2292L386.773 43.2344ZM412.877 48.0684L412.611 49.0326L412.625 49.036L412.877 48.0684ZM423.6 51.4961L424.527 51.871L424.904 50.9374L423.968 50.5664L423.6 51.4961ZM415.426 71.7109L415.077 72.6483L415.988 72.9869L416.353 72.0858L415.426 71.7109ZM395.562 65.9102L395.345 66.8862L395.355 66.8883L395.562 65.9102ZM362.867 64.8555L363.073 65.8341L363.086 65.8313L362.867 64.8555ZM354.693 67.7559L355.179 68.63L355.188 68.6249L355.197 68.6196L354.693 67.7559ZM350.035 71.8867L349.189 71.3539L349.183 71.3626L350.035 71.8867ZM349.332 80.0605L348.427 80.4863L348.437 80.5076L348.448 80.5284L349.332 80.0605ZM351.793 82.6973L351.228 83.5226L351.253 83.5394L351.279 83.5548L351.793 82.6973ZM356.275 84.3672L356.055 85.3426L356.073 85.3467L356.091 85.3501L356.275 84.3672ZM379.566 83.5762L379.664 84.5714L379.674 84.5705L379.683 84.5693L379.566 83.5762ZM388.795 82.6094L388.704 81.6135L388.703 81.6136L388.795 82.6094ZM414.898 84.3672L414.597 85.3206L414.6 85.3217L414.898 84.3672ZM420.611 138.947L421.175 139.773L421.182 139.769L420.611 138.947ZM401.979 146.945L401.727 145.977L401.725 145.978L401.979 146.945ZM359 148.703L359.136 147.712L359.125 147.711L359 148.703ZM343.092 145.803L342.844 146.772L342.855 146.774L343.092 145.803ZM328.854 141.32L328.493 142.253L328.497 142.255L328.854 141.32ZM316.812 135.871L315.944 135.375L315.433 136.27L316.343 136.754L316.812 135.871ZM327.548 117.041C334.673 121.316 342.504 124.459 351.036 126.473L351.495 124.527C343.152 122.557 335.515 119.489 328.577 115.326L327.548 117.041ZM351.036 126.473C359.55 128.484 368.27 129.488 377.193 129.488V127.488C368.422 127.488 359.856 126.501 351.495 124.527L351.036 126.473ZM377.193 129.488C383.209 129.488 388.263 129.076 392.336 128.237L391.933 126.278C388.038 127.08 383.131 127.488 377.193 127.488V129.488ZM392.336 128.237C396.374 127.406 399.669 126.326 402.188 124.975L401.242 123.213C398.956 124.439 395.865 125.469 391.933 126.278L392.336 128.237ZM402.188 124.975C404.685 123.635 406.547 122.063 407.667 120.218L405.958 119.18C405.085 120.617 403.55 121.974 401.242 123.213L402.188 124.975ZM407.667 120.218C408.746 118.442 409.307 116.595 409.307 114.689H407.307C407.307 116.183 406.871 117.675 405.958 119.18L407.667 120.218ZM409.307 114.689C409.307 111.884 408.051 109.504 405.685 107.585L404.425 109.138C406.394 110.735 407.307 112.573 407.307 114.689H409.307ZM405.695 107.593C403.31 105.606 399.498 104.725 394.508 104.725V106.725C399.361 106.725 402.58 107.601 404.414 109.13L405.695 107.593ZM394.508 104.725C392.18 104.725 389.682 104.874 387.015 105.17L387.235 107.158C389.841 106.868 392.265 106.725 394.508 106.725V104.725ZM387.015 105.17C384.375 105.464 381.589 105.786 378.656 106.138L378.895 108.124C381.822 107.772 384.602 107.451 387.235 107.158L387.015 105.17ZM378.674 106.136C375.806 106.429 372.792 106.721 369.63 107.014L369.815 109.006C372.982 108.712 376.002 108.419 378.877 108.126L378.674 106.136ZM369.629 107.014C366.555 107.304 363.423 107.449 360.23 107.449V109.449C363.483 109.449 366.679 109.301 369.817 109.005L369.629 107.014ZM360.23 107.449C353.266 107.449 347.365 106.694 342.505 105.208L341.92 107.12C347.022 108.681 353.132 109.449 360.23 109.449V107.449ZM342.509 105.209C337.683 103.715 333.798 101.691 330.819 99.1615L329.525 100.686C332.756 103.43 336.899 105.566 341.917 107.119L342.509 105.209ZM330.819 99.1615C327.831 96.6248 325.677 93.6528 324.335 90.2413L322.474 90.9735C323.944 94.7105 326.301 97.9494 329.525 100.686L330.819 99.1615ZM324.337 90.2464C322.978 86.7364 322.295 82.9631 322.295 78.918H320.295C320.295 83.1931 321.018 87.2128 322.472 90.9684L324.337 90.2464ZM322.295 78.918C322.295 73.8073 323.486 69.1113 325.862 64.8118L324.111 63.8444C321.565 68.4512 320.295 73.4818 320.295 78.918H322.295ZM325.862 64.8118C328.242 60.5037 331.65 56.776 336.109 53.6317L334.957 51.9972C330.275 55.2982 326.652 59.2463 324.111 63.8444L325.862 64.8118ZM336.116 53.6268C340.576 50.4249 345.974 47.9212 352.328 46.1305L351.785 44.2055C345.249 46.0476 339.631 48.6415 334.95 52.0021L336.116 53.6268ZM352.326 46.1311C358.728 44.3431 365.872 43.4434 373.766 43.4434V41.4434C365.722 41.4434 358.393 42.36 351.788 44.2048L352.326 46.1311ZM373.766 43.4434C377.884 43.4434 382.181 43.7044 386.657 44.2276L386.89 42.2411C382.343 41.7097 377.968 41.4434 373.766 41.4434V43.4434ZM386.671 44.2292C391.215 44.6952 395.67 45.3359 400.037 46.151L400.404 44.185C395.982 43.3595 391.472 42.7111 386.875 42.2396L386.671 44.2292ZM400.037 46.151C404.406 46.9665 408.597 47.9271 412.611 49.0325L413.142 47.1042C409.071 45.983 404.825 45.0101 400.404 44.185L400.037 46.151ZM412.625 49.036C416.637 50.0828 420.172 51.2135 423.231 52.4258L423.968 50.5664C420.817 49.3178 417.202 48.1633 413.129 47.1007L412.625 49.036ZM422.673 51.1212L414.499 71.3361L416.353 72.0858L424.527 51.871L422.673 51.1212ZM415.774 70.7736C409.109 68.2964 402.441 66.3488 395.77 64.932L395.355 66.8883C401.926 68.284 408.5 70.2036 415.077 72.6483L415.774 70.7736ZM395.78 64.9342C389.144 63.4528 382.303 62.7129 375.26 62.7129V64.7129C382.162 64.7129 388.856 65.4378 395.345 66.8861L395.78 64.9342ZM375.26 62.7129C370.349 62.7129 366.141 63.0969 362.648 63.8797L363.086 65.8313C366.391 65.0906 370.443 64.7129 375.26 64.7129V62.7129ZM362.661 63.8769C359.255 64.594 356.42 65.5909 354.19 66.8921L355.197 68.6196C357.185 67.4599 359.8 66.5232 363.073 65.834L362.661 63.8769ZM354.208 66.8817C351.993 68.1121 350.297 69.5941 349.189 71.3539L350.881 72.4195C351.766 71.0153 353.175 69.7433 355.179 68.63L354.208 66.8817ZM349.183 71.3626C348.154 73.035 347.629 74.8265 347.629 76.7207H349.629C349.629 75.2165 350.041 73.7853 350.887 72.4108L349.183 71.3626ZM347.629 76.7207C347.629 78.0809 347.889 79.3421 348.427 80.4863L350.237 79.6348C349.838 78.7868 349.629 77.8214 349.629 76.7207H347.629ZM348.448 80.5284C349.065 81.6934 350.007 82.6872 351.228 83.5226L352.358 81.872C351.352 81.1839 350.654 80.4199 350.216 79.5927L348.448 80.5284ZM351.279 83.5548C352.568 84.3284 354.17 84.9169 356.055 85.3426L356.496 83.3917C354.748 82.9971 353.362 82.4724 352.307 81.8398L351.279 83.5548ZM356.091 85.3501C358.046 85.7166 360.397 85.8945 363.131 85.8945V83.8945C360.474 83.8945 358.255 83.7209 356.46 83.3843L356.091 85.3501ZM363.131 85.8945C365.631 85.8945 368.274 85.7457 371.059 85.4495L370.847 83.4607C368.124 83.7504 365.552 83.8945 363.131 83.8945V85.8945ZM371.059 85.4495C373.81 85.1568 376.678 84.8641 379.664 84.5714L379.469 82.5809C376.478 82.8742 373.604 83.1674 370.847 83.4607L371.059 85.4495ZM379.683 84.5693C382.663 84.2188 385.731 83.8974 388.887 83.6051L388.703 81.6136C385.531 81.9073 382.446 82.2304 379.45 82.583L379.683 84.5693ZM388.885 83.6053C392.077 83.3151 395.328 83.1699 398.639 83.1699V81.1699C395.27 81.1699 391.958 81.3177 388.704 81.6135L388.885 83.6053ZM398.639 83.1699C404.774 83.1699 410.088 83.8939 414.597 85.3206L415.2 83.4138C410.451 81.9108 404.925 81.1699 398.639 81.1699V83.1699ZM414.6 85.3217C419.185 86.7543 422.923 88.7462 425.846 91.2757L427.154 89.7634C423.984 87.0194 419.987 84.9098 415.197 83.4127L414.6 85.3217ZM425.846 91.2757C428.782 93.8167 430.974 96.799 432.436 100.228L434.275 99.4438C432.69 95.7244 430.312 92.4958 427.154 89.7634L425.846 91.2757ZM432.436 100.228C433.902 103.668 434.641 107.43 434.641 111.525H436.641C436.641 107.184 435.856 103.152 434.275 99.4438L432.436 100.228ZM434.641 111.525C434.641 116.813 433.42 121.719 430.981 126.257L432.742 127.204C435.342 122.367 436.641 117.136 436.641 111.525H434.641ZM430.981 126.257C428.545 130.787 424.91 134.746 420.041 138.126L421.182 139.769C426.273 136.234 430.138 132.049 432.742 127.204L430.981 126.257ZM420.048 138.121C415.184 141.44 409.086 144.065 401.727 145.977L402.23 147.913C409.754 145.958 416.077 143.252 421.175 139.773L420.048 138.121ZM401.725 145.978C394.444 147.885 385.978 148.846 376.314 148.846V150.846C386.104 150.846 394.747 149.873 402.232 147.913L401.725 145.978ZM376.314 148.846C370.38 148.846 364.654 148.468 359.136 147.712L358.864 149.694C364.479 150.462 370.295 150.846 376.314 150.846V148.846ZM359.125 147.711C353.594 147.012 348.328 146.052 343.329 144.831L342.855 146.774C347.933 148.014 353.274 148.988 358.875 149.695L359.125 147.711ZM343.34 144.834C338.334 143.553 333.625 142.071 329.21 140.386L328.497 142.255C332.989 143.969 337.771 145.474 342.844 146.772L343.34 144.834ZM329.214 140.388C324.852 138.701 320.875 136.901 317.282 134.988L316.343 136.754C320.015 138.709 324.066 140.541 328.493 142.253L329.214 140.388ZM317.681 136.367L328.931 116.68L327.194 115.687L315.944 135.375L317.681 136.367ZM483.752 63.8008H484.752V62.8008H483.752V63.8008ZM458.703 63.8008H457.703V64.8008H458.703V63.8008ZM458.703 44.2891V43.2891H457.703V44.2891H458.703ZM483.752 44.2891V45.2891H484.752V44.2891H483.752ZM483.752 12.0332V11.0332H482.752V12.0332H483.752ZM509.768 12.0332H510.768V11.0332H509.768V12.0332ZM509.768 44.2891H508.768V45.2891H509.768V44.2891ZM534.816 44.2891H535.816V43.2891H534.816V44.2891ZM534.816 63.8008V64.8008H535.816V63.8008H534.816ZM509.768 63.8008V62.8008H508.768V63.8008H509.768ZM509.768 148V149H510.768V148H509.768ZM483.752 148H482.752V149H483.752V148ZM483.752 62.8008H458.703V64.8008H483.752V62.8008ZM459.703 63.8008V44.2891H457.703V63.8008H459.703ZM458.703 45.2891H483.752V43.2891H458.703V45.2891ZM484.752 44.2891V12.0332H482.752V44.2891H484.752ZM483.752 13.0332H509.768V11.0332H483.752V13.0332ZM508.768 12.0332V44.2891H510.768V12.0332H508.768ZM509.768 45.2891H534.816V43.2891H509.768V45.2891ZM533.816 44.2891V63.8008H535.816V44.2891H533.816ZM534.816 62.8008H509.768V64.8008H534.816V62.8008ZM508.768 63.8008V148H510.768V63.8008H508.768ZM509.768 147H483.752V149H509.768V147ZM484.752 148V63.8008H482.752V148H484.752ZM633.939 75.2266L633.034 74.8023L633.031 74.8091L633.939 75.2266ZM646.859 58.1758L646.205 57.4193L646.201 57.4227L646.859 58.1758ZM667.162 46.6621L666.829 45.7191L666.827 45.7199L667.162 46.6621ZM720.688 46.6621L720.352 47.6043L720.355 47.6051L720.688 46.6621ZM740.99 58.1758L740.332 58.9289L740.336 58.9323L740.99 58.1758ZM753.91 75.2266L753.001 75.6441L753.005 75.6508L753.91 75.2266ZM753.91 117.062L753.005 116.638L753.001 116.645L753.91 117.062ZM740.99 134.113L740.336 133.357L740.332 133.36L740.99 134.113ZM720.688 145.627L720.355 144.684L720.352 144.685L720.688 145.627ZM667.162 145.627L666.827 146.569L666.829 146.57L667.162 145.627ZM646.859 134.113L646.201 134.866L646.205 134.87L646.859 134.113ZM633.939 117.062L633.031 117.48L633.034 117.487L633.939 117.062ZM659.252 108.01L658.336 108.411L658.34 108.419L658.344 108.428L659.252 108.01ZM666.547 117.854L665.875 118.594L665.882 118.601L665.889 118.607L666.547 117.854ZM678.236 124.621L677.888 125.558L677.895 125.561L677.902 125.564L678.236 124.621ZM709.613 124.621L709.951 125.562L709.958 125.56L709.613 124.621ZM721.303 117.854L721.967 118.601L721.968 118.6L721.303 117.854ZM728.598 108.01L727.687 107.597L727.684 107.604L728.598 108.01ZM728.598 84.2793L727.681 84.6802L727.687 84.692L728.598 84.2793ZM721.303 74.4355L720.631 75.1761L720.638 75.1826L720.645 75.189L721.303 74.4355ZM709.613 67.668L709.265 68.6053L709.272 68.608L709.279 68.6105L709.613 67.668ZM678.236 67.668L678.574 68.6092L678.581 68.6067L678.236 67.668ZM666.547 74.4355L667.211 75.183L667.212 75.1822L666.547 74.4355ZM659.252 84.2793L658.341 83.8665L658.336 83.8785L659.252 84.2793ZM630.457 96.1445C630.457 88.8414 631.922 82.0118 634.848 75.6441L633.031 74.8091C629.98 81.4492 628.457 88.5649 628.457 96.1445H630.457ZM634.845 75.6508C637.831 69.2762 642.052 63.7036 647.517 58.9288L646.201 57.4227C640.534 62.3745 636.141 68.1691 633.034 74.8023L634.845 75.6508ZM647.513 58.9323C653.033 54.1599 659.689 50.3806 667.497 47.6043L666.827 45.7199C658.815 48.5686 651.936 52.4651 646.205 57.4193L647.513 58.9323ZM667.495 47.6051C675.34 44.8362 684.161 43.4434 693.969 43.4434V41.4434C683.972 41.4434 674.922 42.863 666.829 45.7191L667.495 47.6051ZM693.969 43.4434C703.777 43.4434 712.567 44.8362 720.352 47.6043L721.023 45.7199C712.987 42.863 703.965 41.4434 693.969 41.4434V43.4434ZM720.355 47.6051C728.221 50.3814 734.874 54.16 740.332 58.9288L741.648 57.4227C735.974 52.465 729.092 48.5678 721.02 45.7191L720.355 47.6051ZM740.336 58.9323C745.857 63.7058 750.075 69.2751 753.001 75.6441L754.819 74.8091C751.769 68.1702 747.373 62.3724 741.644 57.4193L740.336 58.9323ZM753.005 75.6508C755.987 82.0171 757.48 88.8443 757.48 96.1445H759.48C759.48 88.5619 757.927 81.4439 754.816 74.8023L753.005 75.6508ZM757.48 96.1445C757.48 103.445 755.987 110.272 753.005 116.638L754.816 117.487C757.927 110.845 759.48 103.727 759.48 96.1445H757.48ZM753.001 116.645C750.075 123.014 745.857 128.583 740.336 133.357L741.644 134.87C747.373 129.917 751.769 124.119 754.819 117.48L753.001 116.645ZM740.332 133.36C734.874 138.129 728.221 141.908 720.355 144.684L721.02 146.57C729.092 143.721 735.974 139.824 741.648 134.866L740.332 133.36ZM720.352 144.685C712.567 147.453 703.777 148.846 693.969 148.846V150.846C703.965 150.846 712.987 149.426 721.023 146.569L720.352 144.685ZM693.969 148.846C684.161 148.846 675.34 147.453 667.495 144.684L666.829 146.57C674.922 149.426 683.972 150.846 693.969 150.846V148.846ZM667.497 144.685C659.689 141.908 653.033 138.129 647.513 133.357L646.205 134.87C651.936 139.824 658.815 143.72 666.827 146.569L667.497 144.685ZM647.517 133.36C642.052 128.585 637.831 123.013 634.845 116.638L633.034 117.487C636.141 124.12 640.534 129.915 646.201 134.866L647.517 133.36ZM634.848 116.645C631.922 110.277 630.457 103.448 630.457 96.1445H628.457C628.457 103.724 629.98 110.84 633.031 117.48L634.848 116.645ZM655.791 96.1445C655.791 100.44 656.639 104.532 658.336 108.411L660.168 107.609C658.584 103.987 657.791 100.169 657.791 96.1445H655.791ZM658.344 108.428C660.102 112.248 662.616 115.637 665.875 118.594L667.219 117.113C664.149 114.328 661.8 111.154 660.16 107.592L658.344 108.428ZM665.889 118.607C669.215 121.509 673.22 123.823 677.888 125.558L678.585 123.684C674.112 122.021 670.324 119.823 667.204 117.1L665.889 118.607ZM677.902 125.564C682.657 127.249 688.017 128.082 693.969 128.082V126.082C688.202 126.082 683.074 125.275 678.57 123.679L677.902 125.564ZM693.969 128.082C699.92 128.082 705.253 127.249 709.951 125.562L709.275 123.68C704.833 125.275 699.736 126.082 693.969 126.082V128.082ZM709.958 125.56C714.685 123.824 718.695 121.509 721.967 118.601L720.638 117.106C717.582 119.823 713.799 122.019 709.269 123.682L709.958 125.56ZM721.968 118.6C725.289 115.641 727.809 112.246 729.511 108.416L727.684 107.604C726.105 111.156 723.761 114.324 720.638 117.107L721.968 118.6ZM729.508 108.423C731.267 104.541 732.146 100.445 732.146 96.1445H730.146C730.146 100.164 729.327 103.978 727.687 107.597L729.508 108.423ZM732.146 96.1445C732.146 91.8436 731.267 87.7476 729.508 83.8666L727.687 84.692C729.327 88.311 730.146 92.1252 730.146 96.1445H732.146ZM729.514 83.8785C727.811 79.9872 725.289 76.5872 721.96 73.6821L720.645 75.189C723.762 77.9089 726.103 81.0714 727.682 84.6801L729.514 83.8785ZM721.975 73.695C718.699 70.7225 714.683 68.4038 709.947 66.7254L709.279 68.6105C713.802 70.2134 717.578 72.4064 720.631 75.1761L721.975 73.695ZM709.962 66.7307C705.26 64.9826 699.924 64.1191 693.969 64.1191V66.1191C699.732 66.1191 704.826 66.9549 709.265 68.6053L709.962 66.7307ZM693.969 64.1191C688.013 64.1191 682.65 64.9827 677.892 66.7292L678.581 68.6067C683.081 66.9548 688.205 66.1191 693.969 66.1191V64.1191ZM677.898 66.7268C673.223 68.4053 669.211 70.7226 665.882 73.6889L667.212 75.1822C670.328 72.4063 674.109 70.2119 678.574 68.6092L677.898 66.7268ZM665.883 73.6881C662.617 76.591 660.1 79.9853 658.341 83.8666L660.163 84.692C661.803 81.0733 664.149 77.9051 667.211 75.183L665.883 73.6881ZM658.336 83.8785C656.639 87.757 655.791 91.8487 655.791 96.1445H657.791C657.791 92.12 658.584 88.3016 660.168 84.6801L658.336 83.8785ZM805.098 63.8008H806.098V62.8008H805.098V63.8008ZM787.344 63.8008H786.344V64.8008H787.344V63.8008ZM787.344 44.2891V43.2891H786.344V44.2891H787.344ZM805.098 44.2891V45.2891H806.098V44.2891H805.098ZM808.086 25.5684L809.025 25.9117L809.026 25.9085L808.086 25.5684ZM830.498 2.98047L830.155 2.04126L830.151 2.04247L830.498 2.98047ZM862.842 1.39844L862.641 2.37812L862.653 2.38044L862.842 1.39844ZM874.971 5.26562L875.892 5.65418L876.261 4.77873L875.406 4.36528L874.971 5.26562ZM865.742 27.1504L865.238 28.0142L866.221 28.5876L866.664 27.5389L865.742 27.1504ZM859.766 24.8652L859.497 25.8284L859.503 25.83L859.766 24.8652ZM836.914 28.9082L837.591 29.6444L837.591 29.6439L836.914 28.9082ZM831.113 44.2891L830.114 44.2552L830.079 45.2891H831.113V44.2891ZM863.896 44.2891H864.896V43.2891H863.896V44.2891ZM863.896 63.8008V64.8008H864.896V63.8008H863.896ZM831.113 63.8008V62.8008H830.113V63.8008H831.113ZM831.113 148V149H832.113V148H831.113ZM805.098 148H804.098V149H805.098V148ZM805.098 62.8008H787.344V64.8008H805.098V62.8008ZM788.344 63.8008V44.2891H786.344V63.8008H788.344ZM787.344 45.2891H805.098V43.2891H787.344V45.2891ZM806.098 44.2891C806.098 37.3509 807.081 31.2304 809.025 25.9117L807.147 25.225C805.107 30.8048 804.098 37.1647 804.098 44.2891H806.098ZM809.026 25.9085C810.974 20.5241 813.77 16.0246 817.406 12.3887L815.992 10.9745C812.128 14.8387 809.182 19.597 807.146 25.2282L809.026 25.9085ZM817.406 12.3887C821.106 8.68897 825.58 5.86402 830.845 3.91846L830.151 2.04247C824.635 4.08129 819.91 7.05712 815.992 10.9745L817.406 12.3887ZM830.841 3.91967C836.164 1.97395 842.168 0.992188 848.867 0.992188V-1.00781C841.973 -1.00781 835.731 0.00261688 830.155 2.04127L830.841 3.91967ZM848.867 0.992188C853.547 0.992188 858.138 1.45434 862.641 2.37804L863.043 0.418835C858.405 -0.532463 853.68 -1.00781 848.867 -1.00781V0.992188ZM862.653 2.38044C867.154 3.24598 871.111 4.51097 874.536 6.16597L875.406 4.36528C871.799 2.62185 867.671 1.3087 863.031 0.416431L862.653 2.38044ZM874.049 4.87707L864.821 26.7618L866.664 27.5389L875.892 5.65418L874.049 4.87707ZM866.246 26.2866C864.732 25.4032 862.645 24.6139 860.029 23.9005L859.503 25.83C862.043 26.5228 863.94 27.2569 865.238 28.0142L866.246 26.2866ZM860.034 23.902C857.414 23.1709 854.539 22.8105 851.416 22.8105V24.8105C854.387 24.8105 857.078 25.1534 859.497 25.8284L860.034 23.902ZM851.416 22.8105C845.239 22.8105 840.147 24.5726 836.237 28.1725L837.591 29.6439C841.064 26.447 845.64 24.8105 851.416 24.8105V22.8105ZM836.237 28.172C832.339 31.756 830.354 37.1827 830.114 44.2552L832.113 44.3229C832.342 37.5673 834.224 32.7401 837.591 29.6444L836.237 28.172ZM831.113 45.2891H863.896V43.2891H831.113V45.2891ZM862.896 44.2891V63.8008H864.896V44.2891H862.896ZM863.896 62.8008H831.113V64.8008H863.896V62.8008ZM830.113 63.8008V148H832.113V63.8008H830.113ZM831.113 147H805.098V149H831.113V147ZM806.098 148V63.8008H804.098V148H806.098ZM969.787 91.1348L970.347 91.9634L970.355 91.9582L969.787 91.1348ZM985.959 84.2793L986.197 85.2505L986.204 85.2489L985.959 84.2793ZM1028.76 83.2246L1028.63 84.2158L1028.63 84.216L1028.76 83.2246ZM1050.65 87.5312L1050.4 88.4996L1051.77 88.8532L1051.64 87.4423L1050.65 87.5312ZM1047.66 78.4785L1046.8 78.9957L1046.81 79.0036L1047.66 78.4785ZM1040.54 71.2715L1039.97 72.096L1039.98 72.1023L1039.99 72.1085L1040.54 71.2715ZM1029.64 66.5254L1029.39 67.4923L1029.39 67.4931L1029.64 66.5254ZM983.498 69.6016L983.223 68.64L983.219 68.6412L983.498 69.6016ZM973.303 73.3809L972.365 73.7282L972.741 74.743L973.723 74.2883L973.303 73.3809ZM965.393 52.0234L965.055 51.082L964.104 51.4229L964.455 52.3708L965.393 52.0234ZM977.961 48.1562L977.71 47.1884L977.706 47.1892L977.961 48.1562ZM991.76 45.168L991.932 46.1531L991.944 46.1508L991.76 45.168ZM1076.84 148V149H1077.84V148H1076.84ZM1050.82 148H1049.82V149H1050.82V148ZM1050.82 138.244H1051.82V136.498L1050.32 137.382L1050.82 138.244ZM1041.95 142.727L1041.55 141.81L1041.54 141.813L1041.95 142.727ZM1019.45 148.879L1019.31 147.888L1019.3 147.889L1019.3 147.89L1019.45 148.879ZM984.465 147.209L984.188 148.17L984.19 148.171L984.465 147.209ZM959.855 129.016L958.956 129.453L958.96 129.46L958.964 129.468L959.855 129.016ZM985.52 119.348L984.645 119.833L984.649 119.84L984.653 119.847L985.52 119.348ZM989.738 123.479L989.201 124.322L989.211 124.328L989.22 124.334L989.738 123.479ZM997.121 126.379L996.874 127.348L996.885 127.351L996.896 127.353L997.121 126.379ZM1050.82 112.844L1051.51 113.572L1051.82 113.276V112.844H1050.82ZM1050.82 108.273H1051.82V107.515L1051.09 107.31L1050.82 108.273ZM1038.96 105.461L1038.76 106.442L1038.77 106.443L1038.96 105.461ZM1027.79 103.703L1027.66 104.694L1027.67 104.696L1027.68 104.697L1027.79 103.703ZM1017.78 102.736L1017.72 103.735L1017.72 103.735L1017.78 102.736ZM989.65 106.076L990.118 106.96L990.128 106.955L990.138 106.949L989.65 106.076ZM957.779 115.305C957.779 110.475 958.829 106.096 960.915 102.149L959.147 101.214C956.898 105.47 955.779 110.174 955.779 115.305H957.779ZM960.915 102.149C962.997 98.2103 966.13 94.813 970.347 91.9634L969.227 90.3062C964.773 93.3159 961.401 96.9498 959.147 101.214L960.915 102.149ZM970.355 91.9582C974.568 89.054 979.84 86.8108 986.197 85.2505L985.721 83.3081C979.187 84.9118 973.678 87.239 969.22 90.3114L970.355 91.9582ZM986.204 85.2489C992.609 83.6332 1000.08 82.8184 1008.63 82.8184V80.8184C999.961 80.8184 992.317 81.6441 985.714 83.3097L986.204 85.2489ZM1008.63 82.8184C1014.97 82.8184 1021.64 83.2835 1028.63 84.2158L1028.89 82.2334C1021.82 81.2907 1015.07 80.8184 1008.63 80.8184V82.8184ZM1028.63 84.216C1035.68 85.1478 1042.93 86.5752 1050.4 88.4996L1050.9 86.5629C1043.36 84.6201 1036.03 83.1764 1028.89 82.2332L1028.63 84.216ZM1051.64 87.4423C1051.34 84.0093 1050.29 80.8419 1048.51 77.9534L1046.81 79.0036C1048.42 81.6229 1049.37 84.4907 1049.65 87.6202L1051.64 87.4423ZM1048.51 77.9614C1046.73 75.0072 1044.25 72.4999 1041.09 70.4345L1039.99 72.1085C1042.93 74.0275 1045.19 76.3249 1046.8 78.9956L1048.51 77.9614ZM1041.1 70.447C1038 68.318 1034.26 66.6939 1029.89 65.5576L1029.39 67.4931C1033.58 68.5834 1037.1 70.1234 1039.97 72.096L1041.1 70.447ZM1029.9 65.5585C1025.58 64.4188 1020.68 63.8555 1015.23 63.8555V65.8555C1020.55 65.8555 1025.27 66.4054 1029.39 67.4923L1029.9 65.5585ZM1015.23 63.8555C1012.26 63.8555 1009 64.0336 1005.46 64.3878L1005.66 66.3779C1009.15 66.0289 1012.34 65.8555 1015.23 65.8555V63.8555ZM1005.46 64.3878C1001.91 64.7424 998.252 65.274 994.476 65.982L994.844 67.9477C998.569 67.2494 1002.17 66.7264 1005.66 66.3779L1005.46 64.3878ZM994.476 65.982C990.695 66.6908 986.944 67.5769 983.223 68.64L983.773 70.5631C987.435 69.5169 991.125 68.6451 994.844 67.9477L994.476 65.982ZM983.219 68.6412C979.542 69.7088 976.096 70.9857 972.883 72.4734L973.723 74.2883C976.838 72.8463 980.188 71.6037 983.777 70.5619L983.219 68.6412ZM974.24 73.0335L966.33 51.6761L964.455 52.3708L972.365 73.7282L974.24 73.0335ZM965.73 52.9649C969.626 51.5693 973.787 50.2886 978.215 49.1233L977.706 47.1892C973.228 48.3677 969.011 49.6651 965.055 51.082L965.73 52.9649ZM978.212 49.1241C982.697 47.9592 987.271 46.9688 991.932 46.153L991.587 44.1829C986.874 45.0078 982.248 46.0096 977.71 47.1884L978.212 49.1241ZM991.944 46.1508C996.604 45.2771 1001.26 44.6074 1005.92 44.1415L1005.72 42.1514C1001.01 42.6231 996.291 43.301 991.575 44.1851L991.944 46.1508ZM1005.92 44.1415C1010.58 43.6758 1015.09 43.4434 1019.45 43.4434V41.4434C1015.02 41.4434 1010.44 41.6796 1005.72 42.1514L1005.92 44.1415ZM1019.45 43.4434C1038.68 43.4434 1052.79 48.3533 1061.96 57.9866L1063.41 56.6071C1053.72 46.4358 1039 41.4434 1019.45 41.4434V43.4434ZM1061.96 57.9866C1071.15 67.6289 1075.84 82.5069 1075.84 102.824H1077.84C1077.84 82.2431 1073.09 66.7696 1063.41 56.6071L1061.96 57.9866ZM1075.84 102.824V148H1077.84V102.824H1075.84ZM1076.84 147H1050.82V149H1076.84V147ZM1051.82 148V138.244H1049.82V148H1051.82ZM1050.32 137.382C1047.66 138.941 1044.74 140.418 1041.55 141.81L1042.35 143.643C1045.6 142.223 1048.59 140.711 1051.33 139.107L1050.32 137.382ZM1041.54 141.813C1038.42 143.197 1035.01 144.412 1031.3 145.455L1031.84 147.381C1035.64 146.315 1039.14 145.068 1042.35 143.64L1041.54 141.813ZM1031.3 145.455C1027.6 146.496 1023.61 147.307 1019.31 147.888L1019.58 149.87C1023.96 149.278 1028.05 148.449 1031.84 147.381L1031.3 145.455ZM1019.3 147.89C1015.07 148.526 1010.58 148.846 1005.82 148.846V150.846C1010.67 150.846 1015.26 150.52 1019.59 149.868L1019.3 147.89ZM1005.82 148.846C997.806 148.846 990.783 147.974 984.74 146.247L984.19 148.171C990.452 149.96 997.667 150.846 1005.82 150.846V148.846ZM984.742 146.248C978.74 144.517 973.759 142.133 969.776 139.117L968.568 140.711C972.787 143.906 978.003 146.386 984.188 148.17L984.742 146.248ZM969.776 139.117C965.782 136.093 962.781 132.575 960.747 128.563L958.964 129.468C961.148 133.777 964.358 137.524 968.568 140.711L969.776 139.117ZM960.755 128.578C958.774 124.503 957.779 120.083 957.779 115.305H955.779C955.779 120.37 956.836 125.091 958.956 129.453L960.755 128.578ZM983.201 114.426C983.201 116.306 983.689 118.113 984.645 119.833L986.394 118.862C985.592 117.419 985.201 115.944 985.201 114.426H983.201ZM984.653 119.847C985.633 121.546 987.172 123.031 989.201 124.322L990.275 122.635C988.438 121.466 987.163 120.196 986.386 118.848L984.653 119.847ZM989.22 124.334C991.262 125.571 993.823 126.57 996.874 127.348L997.368 125.41C994.443 124.664 992.082 123.729 990.257 122.623L989.22 124.334ZM996.896 127.353C1000.04 128.078 1003.78 128.434 1008.11 128.434V126.434C1003.88 126.434 1000.3 126.086 997.346 125.405L996.896 127.353ZM1008.11 128.434C1012.74 128.434 1017.22 128.018 1021.57 127.185L1021.19 125.221C1016.98 126.029 1012.62 126.434 1008.11 126.434V128.434ZM1021.57 127.185C1025.89 126.356 1029.93 125.258 1033.67 123.891L1032.99 122.012C1029.35 123.339 1025.42 124.41 1021.19 125.221L1021.57 127.185ZM1033.67 123.891C1037.42 122.525 1040.81 120.947 1043.86 119.155L1042.84 117.431C1039.91 119.154 1036.63 120.682 1032.99 122.012L1033.67 123.891ZM1043.86 119.155C1046.89 117.369 1049.45 115.509 1051.51 113.572L1050.14 112.116C1048.21 113.928 1045.78 115.701 1042.84 117.431L1043.86 119.155ZM1051.82 112.844V108.273H1049.82V112.844H1051.82ZM1051.09 107.31C1047.08 106.19 1043.1 105.246 1039.15 104.479L1038.77 106.443C1042.67 107.199 1046.59 108.13 1050.55 109.237L1051.09 107.31ZM1039.15 104.48C1035.26 103.713 1031.51 103.123 1027.91 102.71L1027.68 104.697C1031.23 105.103 1034.92 105.685 1038.76 106.442L1039.15 104.48ZM1027.93 102.712C1024.39 102.24 1021.02 101.915 1017.83 101.738L1017.72 103.735C1020.86 103.909 1024.17 104.229 1027.66 104.694L1027.93 102.712ZM1017.83 101.738C1014.71 101.561 1011.97 101.473 1009.6 101.473V103.473C1011.92 103.473 1014.63 103.56 1017.72 103.735L1017.83 101.738ZM1009.6 101.473C1004.7 101.473 1000.59 101.797 997.276 102.459L997.669 104.42C1000.8 103.793 1004.78 103.473 1009.6 103.473V101.473ZM997.276 102.459C993.993 103.116 991.276 104.022 989.163 105.203L990.138 106.949C992.009 105.904 994.507 105.052 997.669 104.42L997.276 102.459ZM989.182 105.192C987.077 106.307 985.501 107.686 984.559 109.367L986.304 110.344C987.003 109.096 988.239 107.955 990.118 106.96L989.182 105.192ZM984.559 109.367C983.661 110.972 983.201 112.662 983.201 114.426H985.201C985.201 113.025 985.562 111.669 986.304 110.344L984.559 109.367ZM1120.99 2.18945V1.18945H1119.99V2.18945H1120.99ZM1147.01 2.18945H1148.01V1.18945H1147.01V2.18945ZM1147.01 148V149H1148.01V148H1147.01ZM1120.99 148H1119.99V149H1120.99V148ZM1120.99 3.18945H1147.01V1.18945H1120.99V3.18945ZM1146.01 2.18945V148H1148.01V2.18945H1146.01ZM1147.01 147H1120.99V149H1147.01V147ZM1121.99 148V2.18945H1119.99V148H1121.99ZM1190.11 2.18945V1.18945H1189.11V2.18945H1190.11ZM1216.13 2.18945H1217.13V1.18945H1216.13V2.18945ZM1216.13 148V149H1217.13V148H1216.13ZM1190.11 148H1189.11V149H1190.11V148ZM1190.11 3.18945H1216.13V1.18945H1190.11V3.18945ZM1215.13 2.18945V148H1217.13V2.18945H1215.13ZM1216.13 147H1190.11V149H1216.13V147ZM1191.11 148V2.18945H1189.11V148H1191.11ZM1344.22 3.68359L1343.86 4.61642L1343.87 4.61906L1344.22 3.68359ZM1350.99 8.07812L1350.27 8.77427L1350.27 8.77979L1350.28 8.78523L1350.99 8.07812ZM1349.05 46.1348L1348.25 45.5348L1348.25 45.5358L1349.05 46.1348ZM1326.2 64.7676L1325.38 65.3414L1325.89 66.0727L1326.68 65.6461L1326.2 64.7676ZM1316.53 50.9688L1316.06 50.0864L1315.07 50.6178L1315.71 51.5426L1316.53 50.9688ZM1323.48 46.8379L1322.93 46.0021L1322.92 46.0096L1323.48 46.8379ZM1328.75 42.707L1328.07 41.9722L1328.06 41.9789L1328.06 41.9856L1328.75 42.707ZM1332.62 38.4004L1331.81 37.8104L1331.81 37.8161L1332.62 38.4004ZM1335.61 33.5664L1336.49 34.0258L1337.25 32.5664H1335.61V33.5664ZM1327.78 32.3359L1327.45 33.2772L1327.45 33.2798L1327.78 32.3359ZM1321.81 28.9961L1321.14 29.742L1321.15 29.7545L1321.17 29.7665L1321.81 28.9961ZM1317.94 23.9863L1317.03 24.4001L1317.04 24.417L1317.05 24.4335L1317.94 23.9863ZM1317.94 11.7695L1317.04 11.3332L1317.03 11.3451L1317.94 11.7695ZM1321.81 6.75977L1321.17 5.98937L1321.16 5.99488L1321.16 6.00051L1321.81 6.75977ZM1289.55 3.68359L1289.19 4.61642L1289.2 4.61906L1289.55 3.68359ZM1296.32 8.07812L1295.6 8.77427L1295.61 8.77979L1295.61 8.78523L1296.32 8.07812ZM1294.38 46.1348L1293.58 45.5348L1293.58 45.5358L1294.38 46.1348ZM1271.53 64.7676L1270.71 65.3414L1271.23 66.0727L1272.01 65.6461L1271.53 64.7676ZM1261.87 50.9688L1261.39 50.0864L1260.4 50.6178L1261.05 51.5426L1261.87 50.9688ZM1268.81 46.8379L1268.26 46.0021L1268.25 46.0096L1268.81 46.8379ZM1274.08 42.707L1273.4 41.9722L1273.4 41.9789L1273.39 41.9856L1274.08 42.707ZM1277.95 38.4004L1277.14 37.8104L1277.14 37.8161L1277.95 38.4004ZM1280.94 33.5664L1281.83 34.0258L1282.58 32.5664H1280.94V33.5664ZM1273.12 32.3359L1272.78 33.2772L1272.78 33.2798L1273.12 32.3359ZM1267.14 28.9961L1266.47 29.742L1266.49 29.7545L1266.5 29.7665L1267.14 28.9961ZM1263.27 23.9863L1262.36 24.4001L1262.37 24.417L1262.38 24.4335L1263.27 23.9863ZM1263.27 11.7695L1262.37 11.3332L1262.37 11.3451L1263.27 11.7695ZM1267.14 6.75977L1266.5 5.98937L1266.49 5.99488L1266.49 6.00051L1267.14 6.75977ZM1335.69 3.18945C1338.69 3.18945 1341.41 3.66987 1343.86 4.61639L1344.58 2.7508C1341.87 1.70513 1338.91 1.18945 1335.69 1.18945V3.18945ZM1343.87 4.61906C1346.37 5.56565 1348.5 6.95121 1350.27 8.77427L1351.7 7.38198C1349.72 5.33785 1347.34 3.79373 1344.57 2.74812L1343.87 4.61906ZM1350.28 8.78523C1352.05 10.5541 1353.44 12.7193 1354.45 15.298L1356.31 14.5692C1355.21 11.7573 1353.67 9.35219 1351.69 7.37102L1350.28 8.78523ZM1354.45 15.298C1355.45 17.8589 1355.96 20.7791 1355.96 24.0742H1357.96C1357.96 20.5724 1357.42 17.399 1356.31 14.5692L1354.45 15.298ZM1355.96 24.0742C1355.96 31.503 1353.42 38.6504 1348.25 45.5348L1349.85 46.7348C1355.24 39.5566 1357.96 31.997 1357.96 24.0742H1355.96ZM1348.25 45.5358C1343.15 52.3632 1335.65 58.4883 1325.72 63.8891L1326.68 65.6461C1336.79 60.1484 1344.53 53.8516 1349.85 46.7337L1348.25 45.5358ZM1327.02 64.1938L1317.35 50.3949L1315.71 51.5426L1325.38 65.3414L1327.02 64.1938ZM1317 51.8511C1319.66 50.4322 1322.01 49.0374 1324.04 47.6662L1322.92 46.0096C1320.96 47.3337 1318.68 48.6928 1316.06 50.0864L1317 51.8511ZM1324.03 47.6736C1326.12 46.299 1327.93 44.8848 1329.44 43.4284L1328.06 41.9856C1326.64 43.3418 1324.94 44.6815 1322.93 46.0022L1324.03 47.6736ZM1329.43 43.4418C1330.99 41.9966 1332.33 40.5114 1333.43 38.9847L1331.81 37.8161C1330.8 39.2191 1329.55 40.605 1328.07 41.9722L1329.43 43.4418ZM1333.42 38.9904C1334.57 37.425 1335.59 35.77 1336.49 34.0258L1334.72 33.107C1333.86 34.7613 1332.89 36.3289 1331.81 37.8104L1333.42 38.9904ZM1335.61 32.5664C1332.83 32.5664 1330.34 32.1699 1328.11 31.3921L1327.45 33.2798C1329.92 34.1426 1332.64 34.5664 1335.61 34.5664V32.5664ZM1328.12 31.3947C1325.93 30.6096 1324.05 29.551 1322.44 28.2257L1321.17 29.7665C1322.97 31.2537 1325.06 32.4216 1327.45 33.2771L1328.12 31.3947ZM1322.47 28.2502C1320.92 26.8653 1319.71 25.2955 1318.83 23.5391L1317.05 24.4335C1318.04 26.4272 1319.41 28.1972 1321.14 29.742L1322.47 28.2502ZM1318.85 23.5725C1318.03 21.7716 1317.62 19.8622 1317.62 17.834H1315.62C1315.62 20.1417 1316.09 22.3338 1317.03 24.4001L1318.85 23.5725ZM1317.62 17.834C1317.62 15.8057 1318.03 13.9299 1318.84 12.194L1317.03 11.3451C1316.09 13.3592 1315.62 15.5264 1315.62 17.834H1317.62ZM1318.84 12.2058C1319.72 10.3965 1320.92 8.83637 1322.46 7.51902L1321.16 6.00051C1319.41 7.49566 1318.04 9.27533 1317.04 11.3333L1318.84 12.2058ZM1322.44 7.53016C1324.04 6.20837 1325.96 5.14982 1328.2 4.36378L1327.54 2.47606C1325.1 3.33065 1322.97 4.49866 1321.17 5.98937L1322.44 7.53016ZM1328.2 4.36378C1330.42 3.58593 1332.92 3.18945 1335.69 3.18945V1.18945C1332.73 1.18945 1330.01 1.61329 1327.54 2.47606L1328.2 4.36378ZM1281.03 3.18945C1284.02 3.18945 1286.74 3.66987 1289.19 4.61639L1289.91 2.7508C1287.2 1.70513 1284.24 1.18945 1281.03 1.18945V3.18945ZM1289.2 4.61906C1291.7 5.56565 1293.83 6.95121 1295.6 8.77427L1297.04 7.38198C1295.05 5.33785 1292.67 3.79373 1289.9 2.74812L1289.2 4.61906ZM1295.61 8.78523C1297.38 10.5541 1298.77 12.7193 1299.78 15.298L1301.64 14.5692C1300.54 11.7573 1299.01 9.35219 1297.03 7.37102L1295.61 8.78523ZM1299.78 15.298C1300.78 17.8589 1301.29 20.7791 1301.29 24.0742H1303.29C1303.29 20.5724 1302.75 17.399 1301.64 14.5692L1299.78 15.298ZM1301.29 24.0742C1301.29 31.503 1298.75 38.6504 1293.58 45.5348L1295.18 46.7348C1300.57 39.5566 1303.29 31.997 1303.29 24.0742H1301.29ZM1293.58 45.5358C1288.48 52.3632 1280.99 58.4883 1271.06 63.8891L1272.01 65.6461C1282.12 60.1484 1289.86 53.8516 1295.19 46.7337L1293.58 45.5358ZM1272.35 64.1938L1262.68 50.3949L1261.05 51.5426L1270.71 65.3414L1272.35 64.1938ZM1262.34 51.8511C1265 50.4322 1267.34 49.0374 1269.37 47.6662L1268.25 46.0096C1266.29 47.3337 1264.01 48.6928 1261.39 50.0864L1262.34 51.8511ZM1269.36 47.6736C1271.45 46.299 1273.26 44.8848 1274.77 43.4284L1273.39 41.9856C1271.98 43.3418 1270.27 44.6815 1268.26 46.0022L1269.36 47.6736ZM1274.76 43.4418C1276.33 41.9966 1277.66 40.5114 1278.76 38.9847L1277.14 37.8161C1276.13 39.2191 1274.88 40.605 1273.4 41.9722L1274.76 43.4418ZM1278.76 38.9904C1279.9 37.425 1280.92 35.77 1281.83 34.0258L1280.05 33.107C1279.19 34.7613 1278.22 36.3289 1277.14 37.8104L1278.76 38.9904ZM1280.94 32.5664C1278.16 32.5664 1275.67 32.1699 1273.45 31.3921L1272.78 33.2798C1275.25 34.1426 1277.97 34.5664 1280.94 34.5664V32.5664ZM1273.45 31.3947C1271.27 30.6096 1269.38 29.551 1267.78 28.2257L1266.5 29.7665C1268.3 31.2537 1270.39 32.4216 1272.78 33.2771L1273.45 31.3947ZM1267.8 28.2502C1266.25 26.8653 1265.04 25.2955 1264.17 23.5391L1262.38 24.4335C1263.37 26.4272 1264.74 28.1972 1266.47 29.742L1267.8 28.2502ZM1264.18 23.5725C1263.36 21.7716 1262.95 19.8622 1262.95 17.834H1260.95C1260.95 20.1417 1261.42 22.3338 1262.36 24.4001L1264.18 23.5725ZM1262.95 17.834C1262.95 15.8057 1263.36 13.9299 1264.18 12.194L1262.37 11.3451C1261.42 13.3592 1260.95 15.5264 1260.95 17.834H1262.95ZM1264.17 12.2058C1265.05 10.3965 1266.25 8.83637 1267.79 7.51902L1266.49 6.00051C1264.74 7.49566 1263.37 9.27533 1262.37 11.3333L1264.17 12.2058ZM1267.78 7.53016C1269.37 6.20837 1271.29 5.14982 1273.53 4.36378L1272.87 2.47606C1270.43 3.33065 1268.3 4.49866 1266.5 5.98937L1267.78 7.53016ZM1273.53 4.36378C1275.76 3.58593 1278.25 3.18945 1281.03 3.18945V1.18945C1278.06 1.18945 1275.34 1.61329 1272.87 2.47606L1273.53 4.36378Z" fill="black" mask="url(#path-1-outside-1_212_685)"/>
</g>
<defs>
<filter id="filter0_d_212_685" x="0.820312" y="-0.0078125" width="1360.14" height="157.854" filterUnits="userSpaceOnUse" color-interpolation-filters="sRGB">
<feFlood flood-opacity="0" result="BackgroundImageFix"/>
<feColorMatrix in="SourceAlpha" type="matrix" values="0 0 0 0 0 0 0 0 0 0 0 0 0 0 0 0 0 0 127 0" result="hardAlpha"/>
<feOffset dy="4"/>
<feGaussianBlur stdDeviation="2"/>
<feComposite in2="hardAlpha" operator="out"/>
<feColorMatrix type="matrix" values="0 0 0 0 0 0 0 0 0 0 0 0 0 0 0 0 0 0 0.25 0"/>
<feBlend mode="normal" in2="BackgroundImageFix" result="effect1_dropShadow_212_685"/>
<feBlend mode="normal" in="SourceGraphic" in2="effect1_dropShadow_212_685" result="shape"/>
</filter>
</defs>
</svg>
