<svg width="188" height="196" viewBox="0 0 188 196" fill="none" xmlns="http://www.w3.org/2000/svg">
<g filter="url(#filter0_d_212_686)">
<ellipse cx="142.907" cy="97.6487" rx="37.0946" ry="93.6487" fill="#999999"/>
<ellipse cx="139.867" cy="97.6487" rx="34.0541" ry="93.6487" fill="#0B0A0A"/>
<ellipse cx="135.61" cy="97.6487" rx="29.7973" ry="93.6487" fill="#DADADA"/>
<ellipse cx="131.961" cy="97.0406" rx="26.1486" ry="89.3919" fill="#212121"/>
<ellipse cx="129.528" cy="95.8242" rx="12.7703" ry="73.5811" fill="white"/>
<ellipse cx="129.528" cy="95.8242" rx="12.7703" ry="73.5811" fill="white"/>
<ellipse cx="129.528" cy="95.8242" rx="12.7703" ry="73.5811" fill="white"/>
<ellipse cx="128.312" cy="97.6486" rx="7.90541" ry="49.8649" fill="white"/>
<ellipse cx="128.312" cy="97.6486" rx="7.90541" ry="49.8649" fill="white"/>
<ellipse cx="128.312" cy="97.6486" rx="7.90541" ry="49.8649" fill="#1A4B86"/>
<ellipse cx="127.703" cy="96.4325" rx="3.64865" ry="36.4865" fill="white"/>
<ellipse cx="127.703" cy="96.4325" rx="3.64865" ry="36.4865" fill="white"/>
<ellipse cx="127.703" cy="96.4325" rx="3.64865" ry="36.4865" fill="white"/>
<ellipse cx="128.313" cy="99.473" rx="1.82432" ry="15.2027" fill="white"/>
<ellipse cx="128.313" cy="99.473" rx="1.82432" ry="15.2027" fill="white"/>
<ellipse cx="128.313" cy="99.473" rx="1.82432" ry="15.2027" fill="#294397"/>
</g>
<path d="M123.348 100.173L123.348 103.08L12.1618 104.645L12.1618 98.8315L123.348 100.173Z" fill="#FF9E0D"/>
<path d="M131.328 101.092L116.612 109.588L123.122 101.276L115.355 95.1982L131.328 101.092Z" fill="#414141"/>
<path d="M11.5541 101.906L-8.506e-07 92.7839L17.6352 98.2569L17.6352 105.554L7.24921e-07 112.243L11.5541 101.906Z" fill="#3D1C22"/>
<defs>
<filter id="filter0_d_212_686" x="105.812" y="0" width="82.1875" height="195.297" filterUnits="userSpaceOnUse" color-interpolation-filters="sRGB">
<feFlood flood-opacity="0" result="BackgroundImageFix"/>
<feColorMatrix in="SourceAlpha" type="matrix" values="0 0 0 0 0 0 0 0 0 0 0 0 0 0 0 0 0 0 127 0" result="hardAlpha"/>
<feOffset dx="4"/>
<feGaussianBlur stdDeviation="2"/>
<feComposite in2="hardAlpha" operator="out"/>
<feColorMatrix type="matrix" values="0 0 0 0 0 0 0 0 0 0 0 0 0 0 0 0 0 0 0.25 0"/>
<feBlend mode="normal" in2="BackgroundImageFix" result="effect1_dropShadow_212_686"/>
<feBlend mode="normal" in="SourceGraphic" in2="effect1_dropShadow_212_686" result="shape"/>
</filter>
</defs>
</svg>
