<svg width="424" height="130" viewBox="0 0 424 130" fill="none" xmlns="http://www.w3.org/2000/svg">
<path d="M15.6508 109.719C17.8383 110.5 20.0648 111.145 22.3305 111.652C24.5961 112.199 26.7836 112.629 28.893 112.941C31.0414 113.293 33.0922 113.527 35.0453 113.645C36.9984 113.801 38.7367 113.879 40.2602 113.879C44.8695 113.879 48.8734 113.313 52.2719 112.18C55.7094 111.086 58.5609 109.602 60.8266 107.727C63.1313 105.852 64.85 103.664 65.9828 101.164C67.1156 98.7031 67.682 96.0859 67.682 93.3125V90.3242C66.1977 91.3398 64.4594 92.3164 62.4672 93.2539C60.475 94.1914 58.2875 95.0117 55.9047 95.7148C53.5219 96.418 50.9828 96.9844 48.2875 97.4141C45.6313 97.8438 42.8773 98.0586 40.0258 98.0586C34.3617 98.0586 29.1273 97.2188 24.3227 95.5391C19.518 93.8203 15.3578 91.4375 11.8422 88.3906C8.32657 85.3047 5.57266 81.6133 3.58047 77.3164C1.62735 73.0195 0.650787 68.2539 0.650787 63.0195C0.650787 57.668 1.68594 52.8242 3.75626 48.4883C5.82657 44.1133 8.67813 40.3828 12.3109 37.2969C15.9828 34.2109 20.3188 31.8281 25.3188 30.1484C30.3188 28.4688 35.7484 27.6289 41.6078 27.6289C44.1078 27.6289 46.5883 27.7852 49.0492 28.0977C51.5102 28.4102 53.8539 28.8398 56.0805 29.3867C58.3461 29.9336 60.4555 30.5977 62.4086 31.3789C64.4008 32.1211 66.1586 32.9414 67.682 33.8398V28.8594H85.0258L85.0258 90.0898C85.0258 96.3789 84.0688 101.945 82.1547 106.789C80.2406 111.633 77.4281 115.695 73.7172 118.977C70.0453 122.297 65.475 124.797 60.0063 126.477C54.5375 128.195 48.268 129.055 41.1977 129.055C38.6586 129.055 36.0219 128.938 33.2875 128.703C30.5531 128.508 27.7992 128.195 25.0258 127.766C22.2914 127.375 19.5766 126.887 16.8813 126.301C14.225 125.754 11.6664 125.109 9.20547 124.367L15.6508 109.719ZM18.8734 62.8438C18.8734 65.6172 19.4203 68.2344 20.5141 70.6953C21.6469 73.1172 23.2484 75.2461 25.3188 77.082C27.3891 78.8789 29.8891 80.3047 32.8188 81.3594C35.7484 82.375 39.0492 82.8828 42.7211 82.8828C45.1039 82.8828 47.4672 82.668 49.8109 82.2383C52.1938 81.7695 54.4594 81.125 56.6078 80.3047C58.7953 79.4844 60.8266 78.4883 62.7016 77.3164C64.6156 76.1445 66.2758 74.8359 67.682 73.3906V50.5977C65.9242 49.1914 64.0688 48 62.1156 47.0234C60.1625 46.0469 58.1703 45.2461 56.1391 44.6211C54.1078 43.9961 52.057 43.5469 49.9867 43.2734C47.9164 42.9609 45.9047 42.8047 43.9516 42.8047C39.9672 42.8047 36.4125 43.332 33.2875 44.3867C30.2016 45.4414 27.5844 46.8867 25.4359 48.7227C23.3266 50.5195 21.7055 52.6289 20.5727 55.0508C19.4398 57.4727 18.8734 60.0703 18.8734 62.8438ZM101.812 63.4297C101.812 58.4688 102.808 53.8203 104.8 49.4844C106.831 45.1484 109.702 41.3594 113.413 38.1172C117.163 34.875 121.675 32.3164 126.948 30.4414C132.261 28.5664 138.218 27.6289 144.82 27.6289C151.421 27.6289 157.359 28.5664 162.632 30.4414C167.945 32.3164 172.456 34.875 176.167 38.1172C179.917 41.3594 182.788 45.1484 184.78 49.4844C186.812 53.8203 187.827 58.4688 187.827 63.4297C187.827 68.3906 186.812 73.0391 184.78 77.375C182.788 81.7109 179.917 85.5 176.167 88.7422C172.456 91.9844 167.945 94.543 162.632 96.418C157.359 98.293 151.421 99.2305 144.82 99.2305C138.218 99.2305 132.261 98.293 126.948 96.418C121.675 94.543 117.163 91.9844 113.413 88.7422C109.702 85.5 106.831 81.7109 104.8 77.375C102.808 73.0391 101.812 68.3906 101.812 63.4297ZM120.034 63.4297C120.034 66.2031 120.581 68.8398 121.675 71.3398C122.808 73.8008 124.429 75.9883 126.538 77.9023C128.687 79.7773 131.284 81.2813 134.331 82.4141C137.417 83.5078 140.913 84.0547 144.82 84.0547C148.726 84.0547 152.202 83.5078 155.249 82.4141C158.335 81.2813 160.933 79.7773 163.042 77.9023C165.191 75.9883 166.812 73.8008 167.905 71.3398C169.038 68.8398 169.605 66.2031 169.605 63.4297C169.605 60.6563 169.038 58.0195 167.905 55.5195C166.812 53.0195 165.191 50.832 163.042 48.957C160.933 47.043 158.335 45.5391 155.249 44.4453C152.202 43.3125 148.726 42.7461 144.82 42.7461C140.913 42.7461 137.417 43.3125 134.331 44.4453C131.284 45.5391 128.687 47.043 126.538 48.957C124.429 50.832 122.808 53.0195 121.675 55.5195C120.581 58.0195 120.034 60.6563 120.034 63.4297ZM203.266 76.2031C203.266 72.8828 203.988 69.8555 205.434 67.1211C206.879 64.3867 209.047 62.043 211.938 60.0898C214.828 58.0977 218.422 56.5742 222.719 55.5195C227.055 54.4258 232.094 53.8789 237.836 53.8789C242.094 53.8789 246.566 54.1914 251.254 54.8164C255.98 55.4414 260.844 56.3984 265.844 57.6875C265.648 55.5 264.984 53.4883 263.852 51.6523C262.719 49.7773 261.137 48.1758 259.105 46.8477C257.113 45.4805 254.691 44.4258 251.84 43.6836C249.027 42.9414 245.824 42.5703 242.23 42.5703C240.277 42.5703 238.129 42.6875 235.785 42.9219C233.441 43.1563 231.02 43.5078 228.52 43.9766C226.02 44.4453 223.539 45.0313 221.078 45.7344C218.656 46.4375 216.391 47.2773 214.281 48.2539L209.008 34.0156C211.625 33.0781 214.418 32.2188 217.387 31.4375C220.395 30.6563 223.461 29.9922 226.586 29.4453C229.711 28.8594 232.836 28.4102 235.961 28.0977C239.086 27.7852 242.113 27.6289 245.043 27.6289C257.973 27.6289 267.582 30.9297 273.871 37.5313C280.16 44.1328 283.305 54.25 283.305 67.8828V98H265.961V91.4961C264.164 92.5508 262.191 93.5469 260.043 94.4844C257.934 95.4219 255.629 96.2422 253.129 96.9453C250.629 97.6484 247.934 98.1953 245.043 98.5859C242.191 99.0156 239.164 99.2305 235.961 99.2305C230.57 99.2305 225.824 98.6445 221.723 97.4727C217.66 96.3008 214.262 94.6797 211.527 92.6094C208.793 90.5391 206.723 88.1172 205.316 85.3438C203.949 82.5313 203.266 79.4844 203.266 76.2031ZM221.547 75.6172C221.547 76.75 221.84 77.8438 222.426 78.8984C223.012 79.9141 223.949 80.832 225.238 81.6523C226.527 82.4336 228.168 83.0781 230.16 83.5859C232.191 84.0547 234.633 84.2891 237.484 84.2891C240.531 84.2891 243.48 84.0156 246.332 83.4688C249.184 82.9219 251.84 82.1992 254.301 81.3008C256.762 80.4023 258.988 79.3672 260.98 78.1953C262.973 77.0234 264.633 75.8125 265.961 74.5625V71.5156C263.305 70.7734 260.668 70.1484 258.051 69.6406C255.473 69.1328 252.992 68.7422 250.609 68.4688C248.266 68.1563 246.039 67.9414 243.93 67.8242C241.859 67.707 240.043 67.6484 238.48 67.6484C235.238 67.6484 232.543 67.8633 230.395 68.293C228.246 68.7227 226.508 69.3086 225.18 70.0508C223.852 70.7539 222.914 71.5938 222.367 72.5703C221.82 73.5469 221.547 74.5625 221.547 75.6172ZM307.942 0.792969L325.286 0.792969V98H307.942V0.792969ZM351.505 76.7891C356.193 79.6016 361.349 81.6719 366.974 83C372.599 84.3281 378.361 84.9922 384.259 84.9922C388.244 84.9922 391.564 84.7188 394.22 84.1719C396.877 83.625 399.005 82.9219 400.607 82.0625C402.209 81.2031 403.341 80.2266 404.005 79.1328C404.67 78.0391 405.002 76.9258 405.002 75.793C405.002 74.1523 404.279 72.7461 402.834 71.5742C401.427 70.4023 399.084 69.8164 395.802 69.8164C394.279 69.8164 392.638 69.9141 390.88 70.1094C389.123 70.3047 387.267 70.5195 385.314 70.7539C383.4 70.9492 381.388 71.1445 379.279 71.3398C377.209 71.5352 375.099 71.6328 372.951 71.6328C368.263 71.6328 364.259 71.125 360.939 70.1094C357.658 69.0938 354.982 67.707 352.912 65.9492C350.841 64.1914 349.337 62.1211 348.4 59.7383C347.462 57.3164 346.994 54.7188 346.994 51.9453C346.994 48.4297 347.814 45.1875 349.455 42.2188C351.095 39.25 353.439 36.6914 356.486 34.543C359.533 32.3555 363.205 30.6563 367.502 29.4453C371.837 28.2344 376.662 27.6289 381.974 27.6289C384.748 27.6289 387.638 27.8047 390.646 28.1563C393.693 28.4688 396.681 28.8984 399.611 29.4453C402.541 29.9922 405.353 30.6367 408.048 31.3789C410.744 32.082 413.127 32.8438 415.197 33.6641L409.748 47.1406C405.334 45.5 400.92 44.2109 396.505 43.2734C392.13 42.2969 387.619 41.8086 382.97 41.8086C379.728 41.8086 376.974 42.0625 374.709 42.5703C372.482 43.0391 370.666 43.6836 369.259 44.5039C367.853 45.2852 366.818 46.2031 366.154 47.2578C365.529 48.2734 365.216 49.3477 365.216 50.4805C365.216 51.3008 365.373 52.043 365.685 52.707C366.037 53.3711 366.584 53.957 367.326 54.4648C368.107 54.9336 369.103 55.3047 370.314 55.5781C371.564 55.8125 373.087 55.9297 374.884 55.9297C376.525 55.9297 378.263 55.832 380.099 55.6367C381.935 55.4414 383.849 55.2461 385.841 55.0508C387.834 54.8164 389.884 54.6016 391.994 54.4063C394.142 54.2109 396.33 54.1133 398.556 54.1133C402.697 54.1133 406.31 54.6016 409.396 55.5781C412.521 56.5547 415.099 57.9219 417.13 59.6797C419.162 61.4375 420.685 63.5078 421.701 65.8906C422.716 68.2734 423.224 70.8711 423.224 73.6836C423.224 77.3164 422.384 80.6953 420.705 83.8203C419.025 86.9453 416.525 89.6602 413.205 91.9648C409.884 94.2305 405.744 96.0078 400.783 97.2969C395.861 98.5859 390.158 99.2305 383.673 99.2305C379.689 99.2305 375.841 98.9766 372.13 98.4688C368.42 98 364.884 97.3555 361.525 96.5352C358.166 95.6758 355.002 94.6797 352.033 93.5469C349.103 92.4141 346.427 91.2031 344.005 89.9141L351.505 76.7891Z" fill="#F8BD25" fill-opacity="0.1"/>
</svg>
