<svg version="1.1" id="Layer_1" xmlns="http://www.w3.org/2000/svg" xmlns:xlink="http://www.w3.org/1999/xlink" x="0px" y="0px"
	 width="100%" viewBox="0 0 1080 1080" enable-background="new 0 0 1080 1080" xml:space="preserve">
<path fill="#FFFFFF" opacity="1.000000" stroke="none" 
	d="
M296.324585,1080.770264 
	C199.014633,1081.000000 102.029259,1080.979004 5.044018,1081.088867 
	C1.717300,1081.092651 0.899752,1080.558838 0.900795,1077.045166 
	C1.006874,719.765747 1.007671,362.486328 0.895246,5.206943 
	C0.894074,1.484713 1.801833,0.912358 5.291830,0.913264 
	C362.404572,1.005969 719.517334,1.008809 1076.630127,0.889146 
	C1080.665771,0.887794 1081.081177,2.116573 1081.078857,5.628790 
	C1080.986572,148.773376 1081.000000,291.918030 1081.000000,435.531342 
	C1079.967285,436.855682 1080.001953,438.046478 1079.981323,439.595581 
	C1077.761475,452.126251 1073.756470,463.800934 1070.321777,475.625824 
	C1057.307373,520.430481 1042.191528,564.549255 1027.098999,608.683777 
	C1013.783997,647.620117 1001.036865,686.751160 987.948853,725.765869 
	C981.222839,745.815796 974.755737,765.984863 965.035339,784.882629 
	C964.425720,786.067810 963.844360,787.268005 963.183472,788.426025 
	C955.253723,802.319824 945.973816,806.684998 930.291626,803.487732 
	C918.036926,800.989258 906.266968,796.670532 894.211853,793.400879 
	C869.343079,786.655884 843.890625,783.728516 818.345154,781.237183 
	C807.406250,780.170349 796.496948,779.079285 785.478333,779.304016 
	C772.483643,779.569153 766.512146,783.959290 763.283569,796.485779 
	C758.877197,813.582214 754.944214,830.793762 748.574280,847.338562 
	C738.595459,873.256897 725.751343,897.699829 710.837952,921.055115 
	C696.845520,942.968201 681.961182,964.264526 664.936401,983.981018 
	C644.361572,1007.808716 621.816223,1029.444458 594.491577,1045.472168 
	C575.361389,1056.693115 555.031677,1065.062012 532.681213,1067.017090 
	C510.245056,1068.979614 488.766937,1065.647217 469.458191,1053.138306 
	C466.332092,1051.113037 463.309052,1051.059692 459.940338,1051.693481 
	C430.309631,1057.268799 400.645813,1062.664795 370.985931,1068.081665 
	C350.503723,1071.822388 330.040833,1075.668701 309.546600,1079.343140 
	C305.287994,1080.106812 300.964355,1080.312134 296.324585,1080.770264 
z"/>
<path fill="#294397" opacity="1.000000" stroke="none" 
	d="
M296.468658,1081.000000 
	C309.330841,1077.419067 323.014069,1075.621582 336.547913,1073.088745 
	C377.742035,1065.379272 418.979431,1057.901245 460.189484,1050.276489 
	C464.062042,1049.559937 467.192566,1049.894775 470.810028,1052.263550 
	C490.222351,1064.975098 511.913544,1068.034546 534.482788,1065.409668 
	C567.166870,1061.608276 594.748779,1046.268066 619.986633,1026.147705 
	C649.986267,1002.231140 673.996216,972.905396 695.664673,941.513855 
	C716.735046,910.988831 735.441589,879.189087 748.344421,844.231812 
	C754.010254,828.881348 757.536987,812.942993 761.741516,797.183289 
	C765.812683,781.923645 771.094971,777.547424 786.983765,778.072815 
	C831.040527,779.529602 874.549377,784.776123 916.693909,798.569580 
	C923.000061,800.633423 929.419739,802.338867 936.070068,803.176758 
	C945.914307,804.417053 953.250183,800.621338 958.773315,792.720337 
	C965.908997,782.512451 970.444946,771.028687 974.692932,759.459534 
	C991.566406,713.505188 1005.863586,666.675781 1021.756958,620.387451 
	C1042.033203,561.334351 1062.138428,502.226440 1078.575073,441.950623 
	C1078.750000,441.308807 1078.875000,440.653290 1079.095703,439.629089 
	C1079.972534,439.121155 1080.405884,439.462799 1080.447388,440.275421 
	C1080.506836,441.440826 1080.483765,442.607605 1080.483765,443.773865 
	C1080.484253,655.049255 1080.484253,866.324707 1080.484375,1077.600098 
	C1080.484375,1078.433228 1080.486450,1079.266357 1080.214722,1080.549072 
	C818.979126,1081.000000 557.958191,1081.000000 296.468658,1081.000000 
z"/>
<path fill="#AEB8D8" opacity="1.000000" stroke="none" 
	d="
M1080.500000,1081.000000 
	C1079.999878,870.111572 1080.001099,659.223145 1079.984985,448.334747 
	C1079.984741,445.516022 1079.764404,442.697266 1079.407471,439.566284 
	C1079.016113,438.027008 1078.740234,436.755951 1080.639893,436.065460 
	C1081.000000,651.000000 1081.000000,866.000000 1080.500000,1081.000000 
z"/>
</svg>