<svg version="1.1" id="Layer_1" xmlns="http://www.w3.org/2000/svg" xmlns:xlink="http://www.w3.org/1999/xlink" x="0px" y="0px"
	 width="100%" viewBox="0 0 211 224" enable-background="new 0 0 211 224" xml:space="preserve">
<path fill="#000001" opacity="1.000000" stroke="none" 
	d="
M212.000000,86.000000 
	C212.000000,131.500000 211.963089,176.500092 212.083450,221.499771 
	C212.091431,224.482941 211.482330,225.087051 208.499878,225.082336 
	C140.500046,224.975372 72.499962,224.975388 4.500130,225.082352 
	C1.517678,225.087051 0.913433,224.482269 0.917778,221.499878 
	C1.023154,149.166702 1.023154,76.833305 0.917778,4.500120 
	C0.913433,1.517743 1.517678,0.912950 4.500130,0.917641 
	C72.499962,1.024608 140.500046,1.024608 208.499878,0.917641 
	C211.482330,0.912949 212.101471,1.515609 212.085342,4.500461 
	C211.939545,31.499674 212.000000,58.500000 212.000000,86.000000 
z"/>
<path fill="#254BC2" opacity="1.000000" stroke="none" 
	d="
M173.648804,106.810806 
	C175.492126,108.537949 177.048401,110.029350 178.777374,111.794922 
	C185.328445,120.121727 188.841202,129.359528 190.434143,139.810471 
	C190.614502,140.832245 190.637756,141.499832 190.625977,142.500061 
	C188.948318,152.369644 186.013809,161.207916 180.301025,169.372299 
	C174.143936,178.171677 166.051956,183.279007 155.953842,185.188492 
	C142.028320,187.821701 127.881325,186.290436 113.827515,186.392960 
	C97.184952,186.514343 80.542152,186.640518 63.898048,186.390701 
	C58.996597,186.317139 57.549114,186.074310 57.511765,180.029587 
	C57.356602,154.916245 58.329716,129.809052 58.017300,104.692619 
	C57.969109,100.817963 57.853733,96.959114 57.518124,93.094826 
	C57.412163,91.874748 57.140182,90.180901 58.858692,89.459229 
	C60.502762,88.768806 61.330315,90.067131 62.356304,90.907860 
	C68.742363,96.140808 74.160027,102.372276 80.072586,108.093262 
	C85.210449,113.064674 86.122276,113.076614 91.217323,107.805389 
	C97.634628,101.166183 103.457481,93.973244 110.119286,87.559425 
	C111.329399,86.394356 112.502945,84.820015 114.255257,85.349533 
	C116.525383,86.035553 115.955406,88.341507 116.000847,90.073891 
	C116.052666,92.049377 116.091637,94.040298 115.781631,96.486465 
	C115.665276,111.675728 115.673683,126.397751 115.670700,141.592316 
	C116.372749,146.157623 116.051773,150.290710 115.924515,154.389816 
	C115.821167,157.718506 117.424538,158.681152 120.324394,158.867828 
	C121.070869,158.915878 121.873207,159.010880 122.605316,158.997192 
	C132.287704,158.816315 131.524170,157.564804 131.518845,150.287994 
	C131.498581,122.637543 131.512863,94.987106 131.505951,67.336655 
	C131.504333,60.835873 130.641541,60.488949 124.511414,59.894951 
	C114.933701,58.966881 109.276199,64.870979 104.091591,71.131783 
	C99.404999,76.791183 93.880379,81.576630 89.076294,87.072685 
	C86.499512,90.020607 84.430550,89.703674 81.537865,86.991478 
	C73.914009,79.843300 66.677261,72.308258 59.217918,65.002296 
	C50.104397,56.076183 40.765442,47.370949 31.961706,38.130516 
	C31.004923,37.126274 30.052197,36.050228 29.324255,34.333488 
	C29.757927,32.473202 30.754133,31.436556 32.665962,30.988075 
	C49.545147,29.040344 66.167305,30.175072 82.759056,30.049387 
	C101.217018,29.909565 119.686424,30.245674 138.139450,30.074724 
	C159.768448,29.874348 174.385910,44.289497 177.419464,64.689972 
	C177.640366,66.463074 177.671814,67.765694 177.670715,69.458313 
	C175.903839,79.841438 172.910080,89.208984 165.466187,96.676376 
	C163.617645,98.530769 163.492645,100.765236 166.683334,102.236893 
	C169.066315,103.336014 171.107651,105.163292 173.648804,106.810806 
z"/>
<path fill="#18327F" opacity="1.000000" stroke="none" 
	d="
M115.893196,96.628601 
	C114.789635,95.427643 115.020271,93.730042 114.848549,92.085625 
	C114.669312,90.369179 115.708252,87.906181 113.550262,87.204292 
	C111.602966,86.570930 110.462494,88.833069 109.243034,90.091354 
	C103.455612,96.063026 97.840187,102.202583 92.008255,108.129593 
	C86.203880,114.028618 84.809586,113.943474 78.965851,108.258194 
	C73.718529,103.153168 68.451485,98.067963 63.145176,93.024483 
	C62.238270,92.162491 61.302311,90.756721 59.773724,91.577164 
	C58.594570,92.210052 58.827465,93.619438 58.826996,94.748772 
	C58.815254,123.048149 58.834671,151.347534 58.822250,179.646912 
	C58.820747,183.070999 60.279179,185.069305 63.841022,185.030548 
	C93.287552,184.710114 122.754555,186.179855 152.179932,184.258316 
	C168.466278,183.194809 178.160919,173.193130 185.025375,159.407166 
	C187.589859,154.256882 187.403717,148.344604 190.336700,143.062103 
	C191.814438,152.032074 187.421310,159.521469 183.163773,167.026718 
	C175.140549,181.170090 162.065872,187.197739 146.700058,187.523285 
	C118.879646,188.112762 91.037819,187.717743 63.205025,187.674042 
	C57.533722,187.665131 56.207378,186.242966 56.135544,180.527740 
	C55.817444,155.219421 57.668503,129.934097 56.963696,104.622849 
	C56.848450,100.484238 56.421394,96.354362 56.141415,92.220253 
	C56.007435,90.241959 56.511650,88.523491 58.452171,87.657875 
	C60.449314,86.766991 61.517826,88.384819 62.665565,89.514809 
	C69.078430,95.828522 75.569565,102.068848 81.800652,108.558266 
	C84.547867,111.419373 86.554161,111.391922 89.148392,108.480881 
	C95.230537,101.655983 101.402077,94.905228 107.721588,88.300674 
	C109.656189,86.278801 111.747185,82.660988 114.783630,84.078415 
	C117.752655,85.464378 116.525185,89.433342 116.571884,92.357765 
	C116.592842,93.670326 116.287048,94.988098 115.893196,96.628601 
z"/>
<path fill="#18327F" opacity="1.000000" stroke="none" 
	d="
M29.102283,34.306366 
	C46.264027,50.727871 63.375805,67.511833 80.487289,84.296097 
	C84.990280,88.712990 85.930481,88.822006 90.220360,84.410019 
	C95.902443,78.566208 101.486954,72.622650 106.969963,66.591568 
	C112.167648,60.874336 118.467110,58.551121 126.169487,58.990540 
	C130.861038,59.258194 132.788147,61.415562 132.829208,65.809174 
	C132.861893,69.306267 132.886765,72.803574 132.887253,76.300789 
	C132.890640,101.116165 132.912811,125.931602 132.852066,150.746841 
	C132.844589,153.801224 133.778595,157.742813 130.116302,159.150391 
	C125.904419,160.769226 121.281769,160.627350 116.940254,159.034119 
	C115.391609,158.465805 115.017265,156.794434 114.990173,155.244888 
	C114.917564,151.092285 114.498795,146.927444 115.480110,142.430328 
	C117.294365,144.678696 116.505882,147.585861 116.571976,150.359619 
	C116.733948,157.156784 117.393082,158.005508 123.274841,158.068573 
	C129.233139,158.132462 130.256882,156.992416 130.261932,150.070618 
	C130.276764,129.742584 130.269760,109.414543 130.267746,89.086510 
	C130.266998,81.588493 130.176758,74.089378 130.281219,66.592903 
	C130.339859,62.385307 128.573059,60.884857 124.303856,60.649994 
	C114.082458,60.087696 108.688652,67.060097 103.156960,73.647972 
	C98.650597,79.014748 93.413933,83.627060 88.693916,88.761536 
	C85.478371,92.259438 82.768547,89.886696 80.280312,87.410385 
	C68.602112,75.788200 56.853790,64.235260 45.278721,52.511253 
	C40.497990,47.669014 34.706425,43.852112 30.788019,38.131374 
	C30.036291,37.033882 28.988611,36.150433 29.102283,34.306366 
z"/>
<path fill="#18327F" opacity="1.000000" stroke="none" 
	d="
M177.704407,64.743767 
	C175.516632,63.375801 175.479019,60.706902 174.860825,58.361832 
	C170.469894,41.705231 157.983200,31.769974 140.918976,31.738844 
	C107.841385,31.678499 74.763603,31.728138 41.685951,31.690639 
	C39.041817,31.687641 36.398048,31.363644 33.368198,31.049656 
	C35.692680,28.620258 38.993729,28.323818 42.305882,28.320654 
	C74.375931,28.290003 106.460930,27.705463 138.511017,28.505981 
	C160.887085,29.064873 175.956390,43.591061 177.704407,64.743767 
z"/>
<path fill="#18327F" opacity="1.000000" stroke="none" 
	d="
M173.811371,106.735115 
	C170.142120,106.472755 167.451019,103.817818 164.354889,101.938210 
	C162.508621,100.817360 162.433441,99.064407 163.758957,97.697891 
	C171.214188,90.012161 174.394943,80.281929 177.394196,70.086136 
	C178.506149,79.941185 173.740036,88.052155 167.840378,95.399689 
	C164.881424,99.084831 165.422287,100.857101 169.118683,102.707901 
	C170.927078,103.613373 172.383713,104.915398 173.811371,106.735115 
z"/>
<path fill="#18327F" opacity="1.000000" stroke="none" 
	d="
M190.694702,139.741638 
	C190.055115,139.357025 189.151550,138.597153 189.039444,137.734451 
	C187.845474,128.546173 183.447037,120.666473 179.000183,112.422974 
	C186.884827,119.419441 189.900024,128.908798 190.694702,139.741638 
z"/>
</svg>